<svg width="449" height="358" viewBox="0 0 449 358" fill="none" xmlns="http://www.w3.org/2000/svg">
<mask id="path-1-inside-1_538_1227" fill="white">
<path fill-rule="evenodd" clip-rule="evenodd" d="M33.5 0L0 25V55V55V333L33.5 358H250H415.5L449 333V55V25L415.5 0H250H33.5Z"/>
</mask>
<path fill-rule="evenodd" clip-rule="evenodd" d="M33.5 0L0 25V55V55V333L33.5 358H250H415.5L449 333V55V25L415.5 0H250H33.5Z" fill="#452D80" fill-opacity="0.2"/>
<path d="M0 25L-0.598084 24.1986L-1 24.4985V25H0ZM33.5 0V-1H33.168L32.9019 -0.801433L33.5 0ZM0 333H-1V333.501L-0.598084 333.801L0 333ZM33.5 358L32.9019 358.801L33.168 359H33.5V358ZM415.5 358V359H415.832L416.098 358.801L415.5 358ZM449 333L449.598 333.801L450 333.501V333H449ZM449 25H450V24.4985L449.598 24.1986L449 25ZM415.5 0L416.098 -0.801433L415.832 -1H415.5V0ZM0.598084 25.8014L34.0981 0.801433L32.9019 -0.801433L-0.598084 24.1986L0.598084 25.8014ZM1 55V25H-1V55H1ZM1 55V55H-1V55H1ZM1 333V55H-1V333H1ZM34.0981 357.199L0.598084 332.199L-0.598084 333.801L32.9019 358.801L34.0981 357.199ZM250 357H33.5V359H250V357ZM415.5 357H250V359H415.5V357ZM448.402 332.199L414.902 357.199L416.098 358.801L449.598 333.801L448.402 332.199ZM448 55V333H450V55H448ZM448 25V55H450V25H448ZM414.902 0.801433L448.402 25.8014L449.598 24.1986L416.098 -0.801433L414.902 0.801433ZM250 1H415.5V-1H250V1ZM33.5 1H250V-1H33.5V1Z" fill="#FF9C00" mask="url(#path-1-inside-1_538_1227)"/>
</svg>
