<svg width="1440" height="1147" viewBox="0 0 1440 1147" fill="none" xmlns="http://www.w3.org/2000/svg">
<mask id="path-1-inside-1_307_476" fill="white">
<path fill-rule="evenodd" clip-rule="evenodd" d="M33 692.456L720 261.912L1407 692.457L720 1123L33 692.456Z"/>
</mask>
<path d="M720 261.912L720.531 261.065L720 260.732L719.468 261.065L720 261.912ZM33 692.456L32.469 691.609L31.1169 692.456L32.469 693.303L33 692.456ZM1407 692.457L1407.53 693.304L1408.88 692.457L1407.53 691.609L1407 692.457ZM720 1123L719.469 1123.85L720 1124.18L720.531 1123.85L720 1123ZM719.468 261.065L32.469 691.609L33.531 693.303L720.531 262.759L719.468 261.065ZM719.468 262.759L1406.47 693.304L1407.53 691.609L720.531 261.065L719.468 262.759ZM1406.47 691.609L719.469 1122.15L720.531 1123.85L1407.53 693.304L1406.47 691.609ZM32.469 693.303L719.469 1123.85L720.531 1122.15L33.531 691.609L32.469 693.303Z" fill="#3A2081" mask="url(#path-1-inside-1_307_476)"/>
<path d="M799 311.94L1176.5 38.5547H1439.5" stroke="#3A2081"/>
</svg>
