<svg width="42" height="39" viewBox="0 0 42 39" fill="none" xmlns="http://www.w3.org/2000/svg">
<rect opacity="0.2" width="39" height="39" rx="19.5" fill="white"/>
<path d="M27.6413 15.8046C27.5446 15.4555 27.3552 15.1372 27.092 14.8816C26.8288 14.6259 26.5012 14.4419 26.1418 14.348C24.8183 14 19.5 14 19.5 14C19.5 14 14.1817 14 12.8582 14.348C12.4988 14.4419 12.1712 14.6259 11.908 14.8816C11.6448 15.1372 11.4554 15.4555 11.3587 15.8046C11.1115 17.1158 10.9916 18.4466 11.0005 19.7795C10.9916 21.1125 11.1115 22.4433 11.3587 23.7544C11.4554 24.1035 11.6448 24.4218 11.908 24.6775C12.1712 24.9331 12.4988 25.1171 12.8582 25.2111C14.1817 25.5591 19.5 25.5591 19.5 25.5591C19.5 25.5591 24.8183 25.5591 26.1418 25.2111C26.5012 25.1171 26.8288 24.9331 27.092 24.6775C27.3552 24.4218 27.5446 24.1035 27.6413 23.7544C27.8885 22.4433 28.0084 21.1125 27.9995 19.7795C28.0084 18.4466 27.8885 17.1158 27.6413 15.8046ZM17.8001 22.2565V17.3026L22.2138 19.7795L17.8001 22.2565Z" fill="white"/>
</svg>
