<svg width="39" height="39" viewBox="0 0 39 39" fill="none" xmlns="http://www.w3.org/2000/svg">
<rect opacity="0.2" width="39" height="39" rx="19.5" fill="white"/>
<path d="M19.5 16.8066C17.375 16.8066 15.6816 18.5332 15.6816 20.625C15.6816 22.75 17.375 24.4434 19.5 24.4434C21.5918 24.4434 23.3184 22.75 23.3184 20.625C23.3184 18.5332 21.5918 16.8066 19.5 16.8066ZM19.5 23.1152C18.1387 23.1152 17.0098 22.0195 17.0098 20.625C17.0098 19.2637 18.1055 18.168 19.5 18.168C20.8613 18.168 21.957 19.2637 21.957 20.625C21.957 22.0195 20.8613 23.1152 19.5 23.1152ZM24.3477 16.6738C24.3477 16.1758 23.9492 15.7773 23.4512 15.7773C22.9531 15.7773 22.5547 16.1758 22.5547 16.6738C22.5547 17.1719 22.9531 17.5703 23.4512 17.5703C23.9492 17.5703 24.3477 17.1719 24.3477 16.6738ZM26.8711 17.5703C26.8047 16.375 26.5391 15.3125 25.6758 14.4492C24.8125 13.5859 23.75 13.3203 22.5547 13.2539C21.3262 13.1875 17.6406 13.1875 16.4121 13.2539C15.2168 13.3203 14.1875 13.5859 13.291 14.4492C12.4277 15.3125 12.1621 16.375 12.0957 17.5703C12.0293 18.7988 12.0293 22.4844 12.0957 23.7129C12.1621 24.9082 12.4277 25.9375 13.291 26.834C14.1875 27.6973 15.2168 27.9629 16.4121 28.0293C17.6406 28.0957 21.3262 28.0957 22.5547 28.0293C23.75 27.9629 24.8125 27.6973 25.6758 26.834C26.5391 25.9375 26.8047 24.9082 26.8711 23.7129C26.9375 22.4844 26.9375 18.7988 26.8711 17.5703ZM25.2773 25.0078C25.0449 25.6719 24.5137 26.1699 23.8828 26.4355C22.8867 26.834 20.5625 26.7344 19.5 26.7344C18.4043 26.7344 16.0801 26.834 15.1172 26.4355C14.4531 26.1699 13.9551 25.6719 13.6895 25.0078C13.291 24.0449 13.3906 21.7207 13.3906 20.625C13.3906 19.5625 13.291 17.2383 13.6895 16.2422C13.9551 15.6113 14.4531 15.1133 15.1172 14.8477C16.0801 14.4492 18.4043 14.5488 19.5 14.5488C20.5625 14.5488 22.8867 14.4492 23.8828 14.8477C24.5137 15.0801 25.0117 15.6113 25.2773 16.2422C25.6758 17.2383 25.5762 19.5625 25.5762 20.625C25.5762 21.7207 25.6758 24.0449 25.2773 25.0078Z" fill="white"/>
</svg>
