<svg width="42" height="40" viewBox="0 0 42 40" fill="none" xmlns="http://www.w3.org/2000/svg">
<rect opacity="0.2" width="39" height="39" rx="19.5" fill="white"/>
<path d="M26.6766 17.1719C27.3406 16.6738 27.9383 16.0762 28.4031 15.3789C27.8055 15.6445 27.1082 15.8438 26.4109 15.9102C27.1414 15.4785 27.6727 14.8145 27.9383 13.9844C27.2742 14.3828 26.5105 14.6816 25.7469 14.8477C25.0828 14.1504 24.1863 13.752 23.1902 13.752C21.2645 13.752 19.7039 15.3125 19.7039 17.2383C19.7039 17.5039 19.7371 17.7695 19.8035 18.0352C16.9148 17.8691 14.325 16.4746 12.5984 14.3828C12.2996 14.8809 12.1336 15.4785 12.1336 16.1426C12.1336 17.3379 12.7312 18.4004 13.6941 19.0312C13.1297 18.998 12.5652 18.8652 12.1004 18.5996V18.6328C12.1004 20.3262 13.2957 21.7207 14.8895 22.0527C14.6238 22.1191 14.2918 22.1855 13.993 22.1855C13.7605 22.1855 13.5613 22.1523 13.3289 22.1191C13.7605 23.5137 15.0555 24.5098 16.5828 24.543C15.3875 25.4727 13.8934 26.0371 12.2664 26.0371C11.9676 26.0371 11.702 26.0039 11.4363 25.9707C12.9637 26.9668 14.7898 27.5312 16.782 27.5312C23.1902 27.5312 26.6766 22.252 26.6766 17.6367C26.6766 17.4707 26.6766 17.3379 26.6766 17.1719Z" fill="white"/>
</svg>
