<svg width="39" height="39" viewBox="0 0 39 39" fill="none" xmlns="http://www.w3.org/2000/svg">
<rect opacity="0.2" width="39" height="39" rx="19.5" fill="white"/>
<g clip-path="url(#clip0_194_350)">
<path d="M14.1041 11C12.3846 11 11 12.3846 11 14.1041V24.8959C11 26.6155 12.3846 28 14.1041 28H19.9532V21.3541H18.1958V18.9613H19.9532V16.9171C19.9532 15.311 20.9915 13.8363 23.3834 13.8363C24.3519 13.8363 25.068 13.9293 25.068 13.9293L25.0117 16.1638C25.0117 16.1638 24.2814 16.1569 23.4844 16.1569C22.6218 16.1569 22.4835 16.5543 22.4835 17.2141V18.9613H25.0803L24.9671 21.3541H22.4835V28H24.8959C26.6154 28 28 26.6155 28 24.8959V14.1041C28 12.3846 26.6154 11 24.8959 11H14.1041L14.1041 11Z" fill="white"/>
</g>
<defs>
<clipPath id="clip0_194_350">
<rect width="17" height="17" fill="white" transform="translate(11 11)"/>
</clipPath>
</defs>
</svg>
