<svg width="1440" height="151" viewBox="0 0 1440 151" fill="none" xmlns="http://www.w3.org/2000/svg">
<rect width="1440" height="151" fill="#180D33"/>
<path d="M-12.1 72.88C-11.572 73.816 -11.116 74.644 -10.732 75.364C-10.324 76.06 -9.976 76.684 -9.688 77.236C-9.376 77.788 -9.112 78.292 -8.896 78.748C-8.656 79.204 -8.428 79.648 -8.212 80.08C-8.02 79.648 -7.816 79.216 -7.6 78.784C-7.36 78.328 -7.096 77.824 -6.808 77.272C-6.496 76.696 -6.148 76.06 -5.764 75.364C-5.356 74.668 -4.888 73.852 -4.36 72.916L-0.507998 66.076C-0.0759976 65.308 0.464002 64.696 1.112 64.24C1.784 63.76 2.612 63.52 3.596 63.52C4.532 63.52 5.372 63.796 6.116 64.348C6.884 64.876 7.436 65.704 7.772 66.832L13.856 88H6.44L4.172 79.612C3.788 78.244 3.464 77.044 3.2 76.012C2.936 74.98 2.708 73.972 2.516 72.988C2.108 73.828 1.652 74.764 1.148 75.796C0.644002 76.804 -0.0159984 78.088 -0.831998 79.648L-4.072 85.696C-4.384 86.296 -4.708 86.776 -5.044 87.136C-5.356 87.472 -5.68 87.736 -6.016 87.928C-6.352 88.12 -6.712 88.24 -7.096 88.288C-7.48 88.36 -7.9 88.396 -8.356 88.396C-8.812 88.396 -9.232 88.36 -9.616 88.288C-10 88.24 -10.36 88.12 -10.696 87.928C-11.032 87.736 -11.368 87.472 -11.704 87.136C-12.016 86.776 -12.328 86.296 -12.64 85.696L-15.88 79.612C-16.312 78.796 -16.696 78.064 -17.032 77.416C-17.368 76.768 -17.68 76.192 -17.968 75.688C-18.232 75.16 -18.472 74.68 -18.688 74.248C-18.88 73.816 -19.072 73.396 -19.264 72.988C-19.456 73.948 -19.684 74.956 -19.948 76.012C-20.212 77.044 -20.524 78.244 -20.884 79.612L-23.152 88H-30.46L-24.232 66.832C-23.896 65.704 -23.344 64.876 -22.576 64.348C-21.808 63.796 -20.956 63.52 -20.02 63.52C-19.06 63.52 -18.256 63.748 -17.608 64.204C-16.936 64.66 -16.384 65.284 -15.952 66.076L-12.1 72.88ZM44.5564 81.808L39.7684 88H16.5844V63.916H44.4844L39.6604 70.18H24.0724V73.06H43.1524L38.8684 78.532H24.0724V81.808H44.5564ZM77.016 63.916L72.192 70.18H63.588V88H56.136V70.18H44.832L49.656 63.916H77.016ZM81.8623 88L86.3623 81.808H92.4103C93.1303 81.808 93.8743 81.808 94.6423 81.808C95.4343 81.808 96.1183 81.832 96.6943 81.88C96.3583 81.448 95.9623 80.908 95.5063 80.26C95.0743 79.588 94.6543 78.964 94.2463 78.388L89.9263 72.016L78.6223 88H69.8023L85.2463 66.22C85.7503 65.524 86.3863 64.9 87.1543 64.348C87.9223 63.796 88.8943 63.52 90.0703 63.52C91.1983 63.52 92.1343 63.784 92.8783 64.312C93.6463 64.816 94.2943 65.452 94.8223 66.22L109.87 88H81.8623ZM158.095 72.952C158.095 74.296 157.831 75.52 157.303 76.624C156.775 77.704 155.995 78.628 154.963 79.396C153.955 80.164 152.719 80.764 151.255 81.196C149.791 81.628 148.123 81.844 146.251 81.844H133.651V88H126.235V75.688H146.971C148.123 75.688 149.011 75.436 149.635 74.932C150.283 74.428 150.607 73.756 150.607 72.916C150.607 72.076 150.283 71.416 149.635 70.936C149.011 70.432 148.123 70.18 146.971 70.18H126.235L131.167 63.916H146.287C148.159 63.916 149.827 64.144 151.291 64.6C152.755 65.032 153.991 65.644 154.999 66.436C156.007 67.228 156.775 68.176 157.303 69.28C157.831 70.384 158.095 71.608 158.095 72.952ZM187.985 81.808L183.161 88H161.885V63.916H169.337V81.808H187.985ZM199.46 88L203.96 81.808H210.008C210.728 81.808 211.472 81.808 212.24 81.808C213.032 81.808 213.716 81.832 214.292 81.88C213.956 81.448 213.56 80.908 213.104 80.26C212.672 79.588 212.252 78.964 211.844 78.388L207.524 72.016L196.22 88H187.4L202.844 66.22C203.348 65.524 203.984 64.9 204.752 64.348C205.52 63.796 206.492 63.52 207.668 63.52C208.796 63.52 209.732 63.784 210.476 64.312C211.244 64.816 211.892 65.452 212.42 66.22L227.468 88H199.46ZM254.531 88.396C254.051 88.396 253.571 88.312 253.091 88.144C252.635 88 252.119 87.652 251.543 87.1L236.783 73.852V88H230.015V68.02C230.015 67.228 230.123 66.544 230.339 65.968C230.579 65.392 230.879 64.924 231.239 64.564C231.623 64.204 232.055 63.94 232.535 63.772C233.039 63.604 233.555 63.52 234.083 63.52C234.539 63.52 234.995 63.604 235.451 63.772C235.931 63.916 236.471 64.264 237.071 64.816L251.831 78.064V63.916H258.635V83.86C258.635 84.652 258.515 85.336 258.275 85.912C258.059 86.488 257.759 86.968 257.375 87.352C257.015 87.712 256.583 87.976 256.079 88.144C255.575 88.312 255.059 88.396 254.531 88.396ZM291.002 81.808L286.214 88H263.03V63.916H290.93L286.106 70.18H270.518V73.06H289.598L285.314 78.532H270.518V81.808H291.002ZM323.461 63.916L318.637 70.18H310.033V88H302.581V70.18H291.277L296.101 63.916H323.461Z" fill="white"/>
<path d="M526.9 72.88C527.428 73.816 527.884 74.644 528.268 75.364C528.676 76.06 529.024 76.684 529.312 77.236C529.624 77.788 529.888 78.292 530.104 78.748C530.344 79.204 530.572 79.648 530.788 80.08C530.98 79.648 531.184 79.216 531.4 78.784C531.64 78.328 531.904 77.824 532.192 77.272C532.504 76.696 532.852 76.06 533.236 75.364C533.644 74.668 534.112 73.852 534.64 72.916L538.492 66.076C538.924 65.308 539.464 64.696 540.112 64.24C540.784 63.76 541.612 63.52 542.596 63.52C543.532 63.52 544.372 63.796 545.116 64.348C545.884 64.876 546.436 65.704 546.772 66.832L552.856 88H545.44L543.172 79.612C542.788 78.244 542.464 77.044 542.2 76.012C541.936 74.98 541.708 73.972 541.516 72.988C541.108 73.828 540.652 74.764 540.148 75.796C539.644 76.804 538.984 78.088 538.168 79.648L534.928 85.696C534.616 86.296 534.292 86.776 533.956 87.136C533.644 87.472 533.32 87.736 532.984 87.928C532.648 88.12 532.288 88.24 531.904 88.288C531.52 88.36 531.1 88.396 530.644 88.396C530.188 88.396 529.768 88.36 529.384 88.288C529 88.24 528.64 88.12 528.304 87.928C527.968 87.736 527.632 87.472 527.296 87.136C526.984 86.776 526.672 86.296 526.36 85.696L523.12 79.612C522.688 78.796 522.304 78.064 521.968 77.416C521.632 76.768 521.32 76.192 521.032 75.688C520.768 75.16 520.528 74.68 520.312 74.248C520.12 73.816 519.928 73.396 519.736 72.988C519.544 73.948 519.316 74.956 519.052 76.012C518.788 77.044 518.476 78.244 518.116 79.612L515.848 88H508.54L514.768 66.832C515.104 65.704 515.656 64.876 516.424 64.348C517.192 63.796 518.044 63.52 518.98 63.52C519.94 63.52 520.744 63.748 521.392 64.204C522.064 64.66 522.616 65.284 523.048 66.076L526.9 72.88ZM583.556 81.808L578.768 88H555.584V63.916H583.484L578.66 70.18H563.072V73.06H582.152L577.868 78.532H563.072V81.808H583.556ZM616.016 63.916L611.192 70.18H602.588V88H595.136V70.18H583.832L588.656 63.916H616.016ZM620.862 88L625.362 81.808H631.41C632.13 81.808 632.874 81.808 633.642 81.808C634.434 81.808 635.118 81.832 635.694 81.88C635.358 81.448 634.962 80.908 634.506 80.26C634.074 79.588 633.654 78.964 633.246 78.388L628.926 72.016L617.622 88H608.802L624.246 66.22C624.75 65.524 625.386 64.9 626.154 64.348C626.922 63.796 627.894 63.52 629.07 63.52C630.198 63.52 631.134 63.784 631.878 64.312C632.646 64.816 633.294 65.452 633.822 66.22L648.87 88H620.862ZM697.095 72.952C697.095 74.296 696.831 75.52 696.303 76.624C695.775 77.704 694.995 78.628 693.963 79.396C692.955 80.164 691.719 80.764 690.255 81.196C688.791 81.628 687.123 81.844 685.251 81.844H672.651V88H665.235V75.688H685.971C687.123 75.688 688.011 75.436 688.635 74.932C689.283 74.428 689.607 73.756 689.607 72.916C689.607 72.076 689.283 71.416 688.635 70.936C688.011 70.432 687.123 70.18 685.971 70.18H665.235L670.167 63.916H685.287C687.159 63.916 688.827 64.144 690.291 64.6C691.755 65.032 692.991 65.644 693.999 66.436C695.007 67.228 695.775 68.176 696.303 69.28C696.831 70.384 697.095 71.608 697.095 72.952ZM726.985 81.808L722.161 88H700.885V63.916H708.337V81.808H726.985ZM738.46 88L742.96 81.808H749.008C749.728 81.808 750.472 81.808 751.24 81.808C752.032 81.808 752.716 81.832 753.292 81.88C752.956 81.448 752.56 80.908 752.104 80.26C751.672 79.588 751.252 78.964 750.844 78.388L746.524 72.016L735.22 88H726.4L741.844 66.22C742.348 65.524 742.984 64.9 743.752 64.348C744.52 63.796 745.492 63.52 746.668 63.52C747.796 63.52 748.732 63.784 749.476 64.312C750.244 64.816 750.892 65.452 751.42 66.22L766.468 88H738.46ZM793.531 88.396C793.051 88.396 792.571 88.312 792.091 88.144C791.635 88 791.119 87.652 790.543 87.1L775.783 73.852V88H769.015V68.02C769.015 67.228 769.123 66.544 769.339 65.968C769.579 65.392 769.879 64.924 770.239 64.564C770.623 64.204 771.055 63.94 771.535 63.772C772.039 63.604 772.555 63.52 773.083 63.52C773.539 63.52 773.995 63.604 774.451 63.772C774.931 63.916 775.471 64.264 776.071 64.816L790.831 78.064V63.916H797.635V83.86C797.635 84.652 797.515 85.336 797.275 85.912C797.059 86.488 796.759 86.968 796.375 87.352C796.015 87.712 795.583 87.976 795.079 88.144C794.575 88.312 794.059 88.396 793.531 88.396ZM830.002 81.808L825.214 88H802.03V63.916H829.93L825.106 70.18H809.518V73.06H828.598L824.314 78.532H809.518V81.808H830.002ZM862.461 63.916L857.637 70.18H849.033V88H841.581V70.18H830.277L835.101 63.916H862.461Z" fill="white"/>
<circle cx="415.5" cy="75.5" r="11.5" fill="#FF9C00"/>
<ellipse cx="415.5" cy="75.5" rx="20.5" ry="5.5" fill="#FF9C00"/>
<path d="M1065.9 72.88C1066.43 73.816 1066.88 74.644 1067.27 75.364C1067.68 76.06 1068.02 76.684 1068.31 77.236C1068.62 77.788 1068.89 78.292 1069.1 78.748C1069.34 79.204 1069.57 79.648 1069.79 80.08C1069.98 79.648 1070.18 79.216 1070.4 78.784C1070.64 78.328 1070.9 77.824 1071.19 77.272C1071.5 76.696 1071.85 76.06 1072.24 75.364C1072.64 74.668 1073.11 73.852 1073.64 72.916L1077.49 66.076C1077.92 65.308 1078.46 64.696 1079.11 64.24C1079.78 63.76 1080.61 63.52 1081.6 63.52C1082.53 63.52 1083.37 63.796 1084.12 64.348C1084.88 64.876 1085.44 65.704 1085.77 66.832L1091.86 88H1084.44L1082.17 79.612C1081.79 78.244 1081.46 77.044 1081.2 76.012C1080.94 74.98 1080.71 73.972 1080.52 72.988C1080.11 73.828 1079.65 74.764 1079.15 75.796C1078.64 76.804 1077.98 78.088 1077.17 79.648L1073.93 85.696C1073.62 86.296 1073.29 86.776 1072.96 87.136C1072.64 87.472 1072.32 87.736 1071.98 87.928C1071.65 88.12 1071.29 88.24 1070.9 88.288C1070.52 88.36 1070.1 88.396 1069.64 88.396C1069.19 88.396 1068.77 88.36 1068.38 88.288C1068 88.24 1067.64 88.12 1067.3 87.928C1066.97 87.736 1066.63 87.472 1066.3 87.136C1065.98 86.776 1065.67 86.296 1065.36 85.696L1062.12 79.612C1061.69 78.796 1061.3 78.064 1060.97 77.416C1060.63 76.768 1060.32 76.192 1060.03 75.688C1059.77 75.16 1059.53 74.68 1059.31 74.248C1059.12 73.816 1058.93 73.396 1058.74 72.988C1058.54 73.948 1058.32 74.956 1058.05 76.012C1057.79 77.044 1057.48 78.244 1057.12 79.612L1054.85 88H1047.54L1053.77 66.832C1054.1 65.704 1054.66 64.876 1055.42 64.348C1056.19 63.796 1057.04 63.52 1057.98 63.52C1058.94 63.52 1059.74 63.748 1060.39 64.204C1061.06 64.66 1061.62 65.284 1062.05 66.076L1065.9 72.88ZM1122.56 81.808L1117.77 88H1094.58V63.916H1122.48L1117.66 70.18H1102.07V73.06H1121.15L1116.87 78.532H1102.07V81.808H1122.56ZM1155.02 63.916L1150.19 70.18H1141.59V88H1134.14V70.18H1122.83L1127.66 63.916H1155.02ZM1159.86 88L1164.36 81.808H1170.41C1171.13 81.808 1171.87 81.808 1172.64 81.808C1173.43 81.808 1174.12 81.832 1174.69 81.88C1174.36 81.448 1173.96 80.908 1173.51 80.26C1173.07 79.588 1172.65 78.964 1172.25 78.388L1167.93 72.016L1156.62 88H1147.8L1163.25 66.22C1163.75 65.524 1164.39 64.9 1165.15 64.348C1165.92 63.796 1166.89 63.52 1168.07 63.52C1169.2 63.52 1170.13 63.784 1170.88 64.312C1171.65 64.816 1172.29 65.452 1172.82 66.22L1187.87 88H1159.86ZM1236.1 72.952C1236.1 74.296 1235.83 75.52 1235.3 76.624C1234.78 77.704 1234 78.628 1232.96 79.396C1231.96 80.164 1230.72 80.764 1229.26 81.196C1227.79 81.628 1226.12 81.844 1224.25 81.844H1211.65V88H1204.24V75.688H1224.97C1226.12 75.688 1227.01 75.436 1227.64 74.932C1228.28 74.428 1228.61 73.756 1228.61 72.916C1228.61 72.076 1228.28 71.416 1227.64 70.936C1227.01 70.432 1226.12 70.18 1224.97 70.18H1204.24L1209.17 63.916H1224.29C1226.16 63.916 1227.83 64.144 1229.29 64.6C1230.76 65.032 1231.99 65.644 1233 66.436C1234.01 67.228 1234.78 68.176 1235.3 69.28C1235.83 70.384 1236.1 71.608 1236.1 72.952ZM1265.99 81.808L1261.16 88H1239.89V63.916H1247.34V81.808H1265.99ZM1277.46 88L1281.96 81.808H1288.01C1288.73 81.808 1289.47 81.808 1290.24 81.808C1291.03 81.808 1291.72 81.832 1292.29 81.88C1291.96 81.448 1291.56 80.908 1291.1 80.26C1290.67 79.588 1290.25 78.964 1289.84 78.388L1285.52 72.016L1274.22 88H1265.4L1280.84 66.22C1281.35 65.524 1281.98 64.9 1282.75 64.348C1283.52 63.796 1284.49 63.52 1285.67 63.52C1286.8 63.52 1287.73 63.784 1288.48 64.312C1289.24 64.816 1289.89 65.452 1290.42 66.22L1305.47 88H1277.46ZM1332.53 88.396C1332.05 88.396 1331.57 88.312 1331.09 88.144C1330.64 88 1330.12 87.652 1329.54 87.1L1314.78 73.852V88H1308.02V68.02C1308.02 67.228 1308.12 66.544 1308.34 65.968C1308.58 65.392 1308.88 64.924 1309.24 64.564C1309.62 64.204 1310.06 63.94 1310.54 63.772C1311.04 63.604 1311.56 63.52 1312.08 63.52C1312.54 63.52 1313 63.604 1313.45 63.772C1313.93 63.916 1314.47 64.264 1315.07 64.816L1329.83 78.064V63.916H1336.64V83.86C1336.64 84.652 1336.52 85.336 1336.28 85.912C1336.06 86.488 1335.76 86.968 1335.38 87.352C1335.02 87.712 1334.58 87.976 1334.08 88.144C1333.58 88.312 1333.06 88.396 1332.53 88.396ZM1369 81.808L1364.21 88H1341.03V63.916H1368.93L1364.11 70.18H1348.52V73.06H1367.6L1363.31 78.532H1348.52V81.808H1369ZM1401.46 63.916L1396.64 70.18H1388.03V88H1380.58V70.18H1369.28L1374.1 63.916H1401.46Z" fill="white"/>
<circle cx="954.5" cy="75.5" r="11.5" fill="#FF9C00"/>
<ellipse cx="954.5" cy="75.5" rx="20.5" ry="5.5" fill="#FF9C00"/>
</svg>
