<svg width="640" height="348" viewBox="0 0 640 348" fill="none" xmlns="http://www.w3.org/2000/svg">
<path d="M639 1L468.5 192H3.5" stroke="white" stroke-width="2" stroke-miterlimit="10" stroke-linecap="round" stroke-linejoin="round"/>
<path d="M29 192H61V192C61 195.866 57.866 199 54 199H29V192Z" fill="white"/>
<path d="M30.2564 221.926C31.2914 221.926 32.0781 222.12 32.6166 222.507C33.1551 222.886 33.4243 223.462 33.4243 224.236C33.4243 224.665 33.357 225.052 33.2224 225.397C33.0878 225.742 32.8732 226.032 32.5787 226.268C32.2842 226.504 31.9056 226.684 31.4428 226.811C30.9885 226.937 30.4416 227 29.8021 227H21.9391L23.6177 224.829H30.004C30.3153 224.829 30.5425 224.783 30.6856 224.69C30.8286 224.589 30.9001 224.43 30.9001 224.211C30.9001 223.992 30.8286 223.836 30.6856 223.744C30.5425 223.651 30.3153 223.605 30.004 223.605H25.4099C24.863 223.605 24.3918 223.546 23.9964 223.428C23.6009 223.31 23.2728 223.146 23.0119 222.936C22.7511 222.726 22.5576 222.473 22.4314 222.179C22.3051 221.876 22.242 221.543 22.242 221.182C22.242 220.786 22.3094 220.429 22.444 220.109C22.587 219.781 22.8016 219.503 23.0877 219.276C23.3822 219.049 23.7566 218.872 24.2109 218.746C24.6737 218.62 25.2248 218.556 25.8643 218.556H33.1972L31.5186 220.753H25.6624C25.3595 220.753 25.1323 220.795 24.9808 220.879C24.8378 220.963 24.7663 221.114 24.7663 221.333C24.7663 221.552 24.8378 221.708 24.9808 221.8C25.1323 221.884 25.3595 221.926 25.6624 221.926H30.2564ZM44.3204 218.556L42.6292 220.753H39.6127V227H37.0002V220.753H33.0371L34.7284 218.556H44.3204ZM54.9165 224.829L53.2379 227H45.1099V218.556H54.8913L53.2 220.753H47.7351V221.762H54.4243L52.9224 223.681H47.7351V224.829H54.9165ZM64.9586 224.829L63.2673 227H55.8083V218.556H58.4208V224.829H64.9586ZM74.979 224.829L73.2878 227H65.8287V218.556H68.4413V224.829H74.979ZM79.421 227L80.9986 224.829H83.119C83.3714 224.829 83.6322 224.829 83.9015 224.829C84.1791 224.829 84.4189 224.838 84.6209 224.854C84.5031 224.703 84.3642 224.514 84.2044 224.286C84.0529 224.051 83.9057 223.832 83.7626 223.63L82.2481 221.396L78.2851 227H75.1929L80.6074 219.364C80.7841 219.12 81.007 218.901 81.2763 218.708C81.5455 218.514 81.8863 218.418 82.2986 218.418C82.6941 218.418 83.0222 218.51 83.283 218.695C83.5523 218.872 83.7795 219.095 83.9646 219.364L89.2402 227H79.421ZM102.149 227H98.6526L96.772 224.766H92.7585V227H90.146V222.684H97.4914C97.8953 222.684 98.2361 222.599 98.5138 222.431C98.7914 222.263 98.9303 222.031 98.9303 221.737C98.9303 221.409 98.804 221.165 98.5516 221.005C98.2992 220.837 97.9458 220.753 97.4914 220.753H90.146L91.8498 218.556H97.2769C97.7565 218.556 98.2529 218.603 98.7662 218.695C99.2794 218.779 99.7464 218.935 100.167 219.162C100.588 219.389 100.933 219.697 101.202 220.084C101.48 220.471 101.619 220.967 101.619 221.573C101.619 221.901 101.568 222.212 101.467 222.507C101.366 222.801 101.219 223.066 101.025 223.302C100.84 223.538 100.609 223.74 100.331 223.908C100.062 224.068 99.7548 224.181 99.4099 224.249C99.5529 224.358 99.7128 224.497 99.8895 224.665C100.066 224.833 100.302 225.065 100.596 225.359L102.149 227ZM111.491 227L113.069 224.829H115.189C115.442 224.829 115.703 224.829 115.972 224.829C116.25 224.829 116.489 224.838 116.691 224.854C116.574 224.703 116.435 224.514 116.275 224.286C116.123 224.051 115.976 223.832 115.833 223.63L114.319 221.396L110.356 227H107.263L112.678 219.364C112.854 219.12 113.077 218.901 113.347 218.708C113.616 218.514 113.957 218.418 114.369 218.418C114.764 218.418 115.093 218.51 115.353 218.695C115.623 218.872 115.85 219.095 116.035 219.364L121.311 227H111.491ZM130.067 221.926C131.102 221.926 131.888 222.12 132.427 222.507C132.965 222.886 133.235 223.462 133.235 224.236C133.235 224.665 133.167 225.052 133.033 225.397C132.898 225.742 132.683 226.032 132.389 226.268C132.095 226.504 131.716 226.684 131.253 226.811C130.799 226.937 130.252 227 129.612 227H121.749L123.428 224.829H129.814C130.126 224.829 130.353 224.783 130.496 224.69C130.639 224.589 130.71 224.43 130.71 224.211C130.71 223.992 130.639 223.836 130.496 223.744C130.353 223.651 130.126 223.605 129.814 223.605H125.22C124.673 223.605 124.202 223.546 123.807 223.428C123.411 223.31 123.083 223.146 122.822 222.936C122.561 222.726 122.368 222.473 122.242 222.179C122.115 221.876 122.052 221.543 122.052 221.182C122.052 220.786 122.12 220.429 122.254 220.109C122.397 219.781 122.612 219.503 122.898 219.276C123.192 219.049 123.567 218.872 124.021 218.746C124.484 218.62 125.035 218.556 125.675 218.556H133.007L131.329 220.753H125.473C125.17 220.753 124.943 220.795 124.791 220.879C124.648 220.963 124.577 221.114 124.577 221.333C124.577 221.552 124.648 221.708 124.791 221.8C124.943 221.884 125.17 221.926 125.473 221.926H130.067ZM144.131 218.556L142.439 220.753H139.423V227H136.81V220.753H132.847L134.539 218.556H144.131ZM156.047 227H152.551L150.671 224.766H146.657V227H144.044V222.684H151.39C151.794 222.684 152.135 222.599 152.412 222.431C152.69 222.263 152.829 222.031 152.829 221.737C152.829 221.409 152.703 221.165 152.45 221.005C152.198 220.837 151.844 220.753 151.39 220.753H144.044L145.748 218.556H151.175C151.655 218.556 152.151 218.603 152.665 218.695C153.178 218.779 153.645 218.935 154.066 219.162C154.486 219.389 154.831 219.697 155.101 220.084C155.378 220.471 155.517 220.967 155.517 221.573C155.517 221.901 155.467 222.212 155.366 222.507C155.265 222.801 155.117 223.066 154.924 223.302C154.739 223.538 154.507 223.74 154.23 223.908C153.96 224.068 153.653 224.181 153.308 224.249C153.451 224.358 153.611 224.497 153.788 224.665C153.965 224.833 154.2 225.065 154.495 225.359L156.047 227ZM162.585 218.418C164.638 218.418 166.178 218.767 167.205 219.465C168.239 220.164 168.757 221.266 168.757 222.772C168.757 224.286 168.244 225.393 167.217 226.091C166.191 226.79 164.647 227.139 162.585 227.139C160.515 227.139 158.967 226.79 157.941 226.091C156.923 225.393 156.413 224.286 156.413 222.772C156.413 221.266 156.927 220.164 157.953 219.465C158.98 218.767 160.524 218.418 162.585 218.418ZM162.585 224.943C163.241 224.943 163.797 224.918 164.251 224.867C164.706 224.808 165.072 224.699 165.349 224.539C165.635 224.379 165.841 224.16 165.968 223.883C166.094 223.597 166.157 223.226 166.157 222.772C166.157 222.318 166.094 221.952 165.968 221.674C165.841 221.388 165.635 221.169 165.349 221.018C165.072 220.858 164.706 220.753 164.251 220.702C163.797 220.643 163.241 220.614 162.585 220.614C161.929 220.614 161.374 220.643 160.919 220.702C160.465 220.753 160.095 220.858 159.809 221.018C159.531 221.169 159.329 221.388 159.203 221.674C159.077 221.952 159.013 222.318 159.013 222.772C159.013 223.226 159.077 223.597 159.203 223.883C159.329 224.16 159.531 224.379 159.809 224.539C160.095 224.699 160.465 224.808 160.919 224.867C161.374 224.918 161.929 224.943 162.585 224.943ZM178.633 227.139C178.465 227.139 178.297 227.109 178.128 227.05C177.969 227 177.788 226.878 177.586 226.684L172.411 222.04V227H170.038V219.995C170.038 219.718 170.076 219.478 170.152 219.276C170.236 219.074 170.341 218.91 170.467 218.784C170.602 218.657 170.753 218.565 170.922 218.506C171.098 218.447 171.279 218.418 171.464 218.418C171.624 218.418 171.784 218.447 171.944 218.506C172.112 218.556 172.302 218.678 172.512 218.872L177.687 223.517V218.556H180.072V225.549C180.072 225.826 180.03 226.066 179.946 226.268C179.87 226.47 179.765 226.638 179.63 226.773C179.504 226.899 179.353 226.992 179.176 227.05C178.999 227.109 178.818 227.139 178.633 227.139ZM187.519 218.418C189.572 218.418 191.112 218.767 192.139 219.465C193.174 220.164 193.691 221.266 193.691 222.772C193.691 224.286 193.178 225.393 192.151 226.091C191.125 226.79 189.581 227.139 187.519 227.139C185.449 227.139 183.901 226.79 182.875 226.091C181.857 225.393 181.348 224.286 181.348 222.772C181.348 221.266 181.861 220.164 182.887 219.465C183.914 218.767 185.458 218.418 187.519 218.418ZM187.519 224.943C188.176 224.943 188.731 224.918 189.185 224.867C189.64 224.808 190.006 224.699 190.283 224.539C190.569 224.379 190.776 224.16 190.902 223.883C191.028 223.597 191.091 223.226 191.091 222.772C191.091 222.318 191.028 221.952 190.902 221.674C190.776 221.388 190.569 221.169 190.283 221.018C190.006 220.858 189.64 220.753 189.185 220.702C188.731 220.643 188.176 220.614 187.519 220.614C186.863 220.614 186.308 220.643 185.853 220.702C185.399 220.753 185.029 220.858 184.743 221.018C184.465 221.169 184.263 221.388 184.137 221.674C184.011 221.952 183.948 222.318 183.948 222.772C183.948 223.226 184.011 223.597 184.137 223.883C184.263 224.16 184.465 224.379 184.743 224.539C185.029 224.699 185.399 224.808 185.853 224.867C186.308 224.918 186.863 224.943 187.519 224.943ZM200.471 221.699C200.656 222.027 200.816 222.318 200.951 222.57C201.094 222.814 201.216 223.033 201.317 223.226C201.426 223.42 201.519 223.597 201.595 223.756C201.679 223.916 201.759 224.072 201.834 224.223C201.902 224.072 201.973 223.92 202.049 223.769C202.133 223.609 202.226 223.432 202.327 223.239C202.436 223.037 202.558 222.814 202.693 222.57C202.836 222.326 203 222.04 203.185 221.712L204.535 219.314C204.687 219.044 204.876 218.83 205.103 218.67C205.339 218.502 205.629 218.418 205.974 218.418C206.302 218.418 206.597 218.514 206.858 218.708C207.127 218.893 207.32 219.183 207.438 219.579L209.571 227H206.971L206.176 224.059C206.042 223.58 205.928 223.159 205.835 222.797C205.743 222.435 205.663 222.082 205.596 221.737C205.453 222.031 205.293 222.36 205.116 222.721C204.939 223.075 204.708 223.525 204.422 224.072L203.286 226.192C203.177 226.403 203.063 226.571 202.945 226.697C202.836 226.815 202.722 226.907 202.604 226.975C202.487 227.042 202.36 227.084 202.226 227.101C202.091 227.126 201.944 227.139 201.784 227.139C201.624 227.139 201.477 227.126 201.342 227.101C201.208 227.084 201.081 227.042 200.964 226.975C200.846 226.907 200.728 226.815 200.61 226.697C200.501 226.571 200.391 226.403 200.282 226.192L199.146 224.059C198.995 223.773 198.86 223.517 198.742 223.289C198.624 223.062 198.515 222.86 198.414 222.684C198.322 222.498 198.237 222.33 198.162 222.179C198.094 222.027 198.027 221.88 197.96 221.737C197.892 222.074 197.813 222.427 197.72 222.797C197.627 223.159 197.518 223.58 197.392 224.059L196.597 227H194.035L196.218 219.579C196.336 219.183 196.529 218.893 196.799 218.708C197.068 218.514 197.367 218.418 197.695 218.418C198.031 218.418 198.313 218.498 198.54 218.657C198.776 218.817 198.969 219.036 199.121 219.314L200.471 221.699ZM213.178 227H210.566V218.556H213.178V227ZM225.545 224.829L223.867 227H219.626C218.894 227 218.217 226.891 217.594 226.672C216.971 226.453 216.433 226.154 215.978 225.776C215.532 225.389 215.179 224.934 214.918 224.413C214.666 223.883 214.54 223.31 214.54 222.696C214.54 222.082 214.666 221.522 214.918 221.018C215.179 220.504 215.532 220.067 215.978 219.705C216.433 219.335 216.971 219.053 217.594 218.859C218.217 218.657 218.894 218.556 219.626 218.556H225.545L223.867 220.753H219.626C219.272 220.753 218.944 220.803 218.641 220.904C218.339 221.005 218.078 221.148 217.859 221.333C217.64 221.51 217.468 221.724 217.341 221.977C217.215 222.229 217.152 222.507 217.152 222.81C217.152 223.113 217.211 223.39 217.329 223.643C217.455 223.887 217.628 224.097 217.846 224.274C218.073 224.451 218.339 224.589 218.641 224.69C218.944 224.783 219.272 224.829 219.626 224.829H225.545ZM230.024 227L231.601 224.829H233.722C233.974 224.829 234.235 224.829 234.504 224.829C234.782 224.829 235.022 224.838 235.224 224.854C235.106 224.703 234.967 224.514 234.807 224.286C234.656 224.051 234.509 223.832 234.365 223.63L232.851 221.396L228.888 227H225.796L231.21 219.364C231.387 219.12 231.61 218.901 231.879 218.708C232.148 218.514 232.489 218.418 232.901 218.418C233.297 218.418 233.625 218.51 233.886 218.695C234.155 218.872 234.382 219.095 234.567 219.364L239.843 227H230.024ZM249.924 224.829L248.233 227H240.774V218.556H243.387V224.829H249.924ZM266.367 224.829L264.688 227H260.447C259.715 227 259.038 226.891 258.415 226.672C257.793 226.453 257.254 226.154 256.8 225.776C256.354 225.389 256 224.934 255.74 224.413C255.487 223.883 255.361 223.31 255.361 222.696C255.361 222.082 255.487 221.522 255.74 221.018C256 220.504 256.354 220.067 256.8 219.705C257.254 219.335 257.793 219.053 258.415 218.859C259.038 218.657 259.715 218.556 260.447 218.556H266.367L264.688 220.753H260.447C260.094 220.753 259.766 220.803 259.463 220.904C259.16 221.005 258.899 221.148 258.68 221.333C258.462 221.51 258.289 221.724 258.163 221.977C258.037 222.229 257.974 222.507 257.974 222.81C257.974 223.113 258.032 223.39 258.15 223.643C258.276 223.887 258.449 224.097 258.668 224.274C258.895 224.451 259.16 224.589 259.463 224.69C259.766 224.783 260.094 224.829 260.447 224.829H266.367ZM273.18 218.418C275.233 218.418 276.773 218.767 277.799 219.465C278.834 220.164 279.352 221.266 279.352 222.772C279.352 224.286 278.839 225.393 277.812 226.091C276.786 226.79 275.242 227.139 273.18 227.139C271.11 227.139 269.562 226.79 268.536 226.091C267.517 225.393 267.008 224.286 267.008 222.772C267.008 221.266 267.522 220.164 268.548 219.465C269.575 218.767 271.119 218.418 273.18 218.418ZM273.18 224.943C273.836 224.943 274.392 224.918 274.846 224.867C275.3 224.808 275.666 224.699 275.944 224.539C276.23 224.379 276.436 224.16 276.563 223.883C276.689 223.597 276.752 223.226 276.752 222.772C276.752 222.318 276.689 221.952 276.563 221.674C276.436 221.388 276.23 221.169 275.944 221.018C275.666 220.858 275.3 220.753 274.846 220.702C274.392 220.643 273.836 220.614 273.18 220.614C272.524 220.614 271.968 220.643 271.514 220.702C271.06 220.753 270.69 220.858 270.403 221.018C270.126 221.169 269.924 221.388 269.798 221.674C269.671 221.952 269.608 222.318 269.608 222.772C269.608 223.226 269.671 223.597 269.798 223.883C269.924 224.16 270.126 224.379 270.403 224.539C270.69 224.699 271.06 224.808 271.514 224.867C271.968 224.918 272.524 224.943 273.18 224.943ZM286.578 218.418C288.631 218.418 290.171 218.767 291.197 219.465C292.232 220.164 292.749 221.266 292.749 222.772C292.749 224.286 292.236 225.393 291.21 226.091C290.183 226.79 288.639 227.139 286.578 227.139C284.508 227.139 282.96 226.79 281.933 226.091C280.915 225.393 280.406 224.286 280.406 222.772C280.406 221.266 280.919 220.164 281.946 219.465C282.972 218.767 284.516 218.418 286.578 218.418ZM286.578 224.943C287.234 224.943 287.789 224.918 288.244 224.867C288.698 224.808 289.064 224.699 289.342 224.539C289.628 224.379 289.834 224.16 289.96 223.883C290.086 223.597 290.149 223.226 290.149 222.772C290.149 222.318 290.086 221.952 289.96 221.674C289.834 221.388 289.628 221.169 289.342 221.018C289.064 220.858 288.698 220.753 288.244 220.702C287.789 220.643 287.234 220.614 286.578 220.614C285.921 220.614 285.366 220.643 284.912 220.702C284.457 220.753 284.087 220.858 283.801 221.018C283.523 221.169 283.321 221.388 283.195 221.674C283.069 221.952 283.006 222.318 283.006 222.772C283.006 223.226 283.069 223.597 283.195 223.883C283.321 224.16 283.523 224.379 283.801 224.539C284.087 224.699 284.457 224.808 284.912 224.867C285.366 224.918 285.921 224.943 286.578 224.943ZM306.046 227H302.55L300.669 224.766H296.656V227H294.043V222.684H301.389C301.793 222.684 302.134 222.599 302.411 222.431C302.689 222.263 302.828 222.031 302.828 221.737C302.828 221.409 302.701 221.165 302.449 221.005C302.197 220.837 301.843 220.753 301.389 220.753H294.043L295.747 218.556H301.174C301.654 218.556 302.15 218.603 302.664 218.695C303.177 218.779 303.644 218.935 304.065 219.162C304.485 219.389 304.83 219.697 305.099 220.084C305.377 220.471 305.516 220.967 305.516 221.573C305.516 221.901 305.465 222.212 305.365 222.507C305.264 222.801 305.116 223.066 304.923 223.302C304.738 223.538 304.506 223.74 304.229 223.908C303.959 224.068 303.652 224.181 303.307 224.249C303.45 224.358 303.61 224.497 303.787 224.665C303.964 224.833 304.199 225.065 304.494 225.359L306.046 227ZM317.726 222.696C317.726 223.31 317.596 223.883 317.335 224.413C317.082 224.934 316.729 225.389 316.275 225.776C315.829 226.154 315.294 226.453 314.672 226.672C314.049 226.891 313.372 227 312.64 227H306.986V221.737H309.611V224.829H312.64C313.002 224.829 313.334 224.783 313.637 224.69C313.948 224.589 314.213 224.451 314.432 224.274C314.651 224.097 314.823 223.887 314.949 223.643C315.076 223.39 315.139 223.113 315.139 222.81C315.139 222.515 315.076 222.242 314.949 221.989C314.823 221.737 314.647 221.522 314.419 221.346C314.192 221.161 313.927 221.018 313.624 220.917C313.321 220.807 312.993 220.753 312.64 220.753H306.986L308.652 218.556H312.64C313.38 218.556 314.062 218.657 314.684 218.859C315.307 219.061 315.841 219.347 316.287 219.718C316.742 220.079 317.095 220.517 317.347 221.03C317.6 221.535 317.726 222.09 317.726 222.696ZM321.702 227H319.09V218.556H321.702V227ZM331.886 227.139C331.718 227.139 331.549 227.109 331.381 227.05C331.221 227 331.04 226.878 330.838 226.684L325.664 222.04V227H323.291V219.995C323.291 219.718 323.329 219.478 323.405 219.276C323.489 219.074 323.594 218.91 323.72 218.784C323.855 218.657 324.006 218.565 324.174 218.506C324.351 218.447 324.532 218.418 324.717 218.418C324.877 218.418 325.037 218.447 325.197 218.506C325.365 218.556 325.554 218.678 325.765 218.872L330.939 223.517V218.556H333.325V225.549C333.325 225.826 333.283 226.066 333.199 226.268C333.123 226.47 333.018 226.638 332.883 226.773C332.757 226.899 332.605 226.992 332.429 227.05C332.252 227.109 332.071 227.139 331.886 227.139ZM338.437 227L340.015 224.829H342.135C342.388 224.829 342.648 224.829 342.918 224.829C343.195 224.829 343.435 224.838 343.637 224.854C343.519 224.703 343.38 224.514 343.221 224.286C343.069 224.051 342.922 223.832 342.779 223.63L341.264 221.396L337.301 227H334.209L339.624 219.364C339.8 219.12 340.023 218.901 340.292 218.708C340.562 218.514 340.902 218.418 341.315 218.418C341.71 218.418 342.038 218.51 342.299 218.695C342.568 218.872 342.796 219.095 342.981 219.364L348.256 227H338.437ZM359.676 218.556L357.984 220.753H354.968V227H352.355V220.753H348.392L350.083 218.556H359.676ZM370.272 224.829L368.593 227H360.465V218.556H370.246L368.555 220.753H363.09V221.762H369.779L368.277 223.681H363.09V224.829H370.272ZM378.988 221.926C380.023 221.926 380.81 222.12 381.349 222.507C381.887 222.886 382.156 223.462 382.156 224.236C382.156 224.665 382.089 225.052 381.954 225.397C381.82 225.742 381.605 226.032 381.311 226.268C381.016 226.504 380.638 226.684 380.175 226.811C379.72 226.937 379.174 227 378.534 227H370.671L372.35 224.829H378.736C379.047 224.829 379.275 224.783 379.418 224.69C379.561 224.589 379.632 224.43 379.632 224.211C379.632 223.992 379.561 223.836 379.418 223.744C379.275 223.651 379.047 223.605 378.736 223.605H374.142C373.595 223.605 373.124 223.546 372.728 223.428C372.333 223.31 372.005 223.146 371.744 222.936C371.483 222.726 371.29 222.473 371.163 222.179C371.037 221.876 370.974 221.543 370.974 221.182C370.974 220.786 371.041 220.429 371.176 220.109C371.319 219.781 371.534 219.503 371.82 219.276C372.114 219.049 372.489 218.872 372.943 218.746C373.406 218.62 373.957 218.556 374.596 218.556H381.929L380.251 220.753H374.394C374.091 220.753 373.864 220.795 373.713 220.879C373.57 220.963 373.498 221.114 373.498 221.333C373.498 221.552 373.57 221.708 373.713 221.8C373.864 221.884 374.091 221.926 374.394 221.926H378.988Z" fill="white"/>
<path d="M33.1719 250.071L31.4933 252.242H27.2526C26.5206 252.242 25.8433 252.133 25.2206 251.914C24.598 251.695 24.0595 251.397 23.6051 251.018C23.1592 250.631 22.8058 250.177 22.545 249.655C22.2925 249.125 22.1663 248.553 22.1663 247.938C22.1663 247.324 22.2925 246.765 22.545 246.26C22.8058 245.747 23.1592 245.309 23.6051 244.947C24.0595 244.577 24.598 244.295 25.2206 244.102C25.8433 243.9 26.5206 243.799 27.2526 243.799H33.1719L31.4933 245.995H27.2526C26.8992 245.995 26.5711 246.045 26.2682 246.146C25.9653 246.247 25.7044 246.39 25.4857 246.575C25.2669 246.752 25.0944 246.967 24.9682 247.219C24.842 247.471 24.7789 247.749 24.7789 248.052C24.7789 248.355 24.8378 248.633 24.9556 248.885C25.0818 249.129 25.2543 249.339 25.473 249.516C25.7002 249.693 25.9653 249.832 26.2682 249.933C26.5711 250.025 26.8992 250.071 27.2526 250.071H33.1719ZM37.6505 252.242L39.2282 250.071H41.3485C41.6009 250.071 41.8618 250.071 42.131 250.071C42.4087 250.071 42.6485 250.08 42.8504 250.097C42.7326 249.945 42.5938 249.756 42.4339 249.529C42.2825 249.293 42.1352 249.074 41.9922 248.872L40.4777 246.638L36.5146 252.242H33.4225L38.8369 244.606C39.0136 244.362 39.2366 244.144 39.5058 243.95C39.7751 243.757 40.1159 243.66 40.5282 243.66C40.9236 243.66 41.2518 243.752 41.5126 243.937C41.7818 244.114 42.009 244.337 42.1941 244.606L47.4698 252.242H37.6505ZM58.8889 243.799L57.1977 245.995H54.1812V252.242H51.5687V245.995H47.6056L49.2969 243.799H58.8889ZM63.2502 252.242L64.8278 250.071H66.9482C67.2006 250.071 67.4614 250.071 67.7307 250.071C68.0083 250.071 68.2481 250.08 68.4501 250.097C68.3323 249.945 68.1935 249.756 68.0336 249.529C67.8821 249.293 67.7349 249.074 67.5918 248.872L66.0773 246.638L62.1143 252.242H59.0221L64.4366 244.606C64.6133 244.362 64.8362 244.144 65.1055 243.95C65.3747 243.757 65.7155 243.66 66.1278 243.66C66.5233 243.66 66.8514 243.752 67.1122 243.937C67.3815 244.114 67.6087 244.337 67.7938 244.606L73.0694 252.242H63.2502ZM83.1507 250.071L81.4595 252.242H74.0004V243.799H76.613V250.071H83.1507ZM89.5948 243.66C91.6478 243.66 93.1876 244.009 94.2141 244.707C95.249 245.406 95.7665 246.508 95.7665 248.014C95.7665 249.529 95.2532 250.635 94.2267 251.333C93.2002 252.032 91.6562 252.381 89.5948 252.381C87.5249 252.381 85.9767 252.032 84.9502 251.333C83.9321 250.635 83.4231 249.529 83.4231 248.014C83.4231 246.508 83.9363 245.406 84.9628 244.707C85.9893 244.009 87.5333 243.66 89.5948 243.66ZM89.5948 250.185C90.2511 250.185 90.8064 250.16 91.2608 250.109C91.7151 250.05 92.0811 249.941 92.3588 249.781C92.6449 249.621 92.851 249.402 92.9772 249.125C93.1034 248.839 93.1665 248.468 93.1665 248.014C93.1665 247.56 93.1034 247.194 92.9772 246.916C92.851 246.63 92.6449 246.411 92.3588 246.26C92.0811 246.1 91.7151 245.995 91.2608 245.944C90.8064 245.885 90.2511 245.856 89.5948 245.856C88.9385 245.856 88.3831 245.885 87.9288 245.944C87.4744 245.995 87.1042 246.1 86.8181 246.26C86.5405 246.411 86.3385 246.63 86.2123 246.916C86.0861 247.194 86.023 247.56 86.023 248.014C86.023 248.468 86.0861 248.839 86.2123 249.125C86.3385 249.402 86.5405 249.621 86.8181 249.781C87.1042 249.941 87.4744 250.05 87.9288 250.109C88.3831 250.16 88.9385 250.185 89.5948 250.185ZM102.298 246.967H107.7V252.242H101.907C101.175 252.242 100.498 252.133 99.875 251.914C99.2523 251.695 98.7138 251.397 98.2595 251.018C97.8135 250.631 97.4601 250.177 97.1993 249.655C96.9469 249.125 96.8207 248.553 96.8207 247.938C96.8207 247.324 96.9469 246.765 97.1993 246.26C97.4601 245.747 97.8135 245.309 98.2595 244.947C98.7138 244.577 99.2523 244.295 99.875 244.102C100.498 243.9 101.175 243.799 101.907 243.799H107.952L106.261 245.995H101.907C101.554 245.995 101.225 246.045 100.923 246.146C100.62 246.247 100.355 246.39 100.127 246.575C99.9086 246.76 99.7361 246.979 99.6099 247.232C99.4837 247.476 99.4206 247.749 99.4206 248.052C99.4206 248.355 99.4795 248.633 99.5973 248.885C99.7235 249.129 99.896 249.339 100.115 249.516C100.342 249.693 100.607 249.832 100.91 249.933C101.213 250.025 101.545 250.071 101.907 250.071H105.1V248.847H100.733L102.298 246.967ZM122.59 252.381C122.422 252.381 122.254 252.352 122.085 252.293C121.925 252.242 121.744 252.12 121.543 251.927L116.368 247.282V252.242H113.995V245.237C113.995 244.96 114.033 244.72 114.109 244.518C114.193 244.316 114.298 244.152 114.424 244.026C114.559 243.9 114.71 243.807 114.879 243.748C115.055 243.689 115.236 243.66 115.421 243.66C115.581 243.66 115.741 243.689 115.901 243.748C116.069 243.799 116.259 243.921 116.469 244.114L121.644 248.759V243.799H124.029V250.791C124.029 251.068 123.987 251.308 123.903 251.51C123.827 251.712 123.722 251.88 123.587 252.015C123.461 252.141 123.309 252.234 123.133 252.293C122.956 252.352 122.775 252.381 122.59 252.381ZM136.537 248.557C136.537 251.106 134.783 252.381 131.274 252.381C130.256 252.381 129.381 252.301 128.649 252.141C127.917 251.981 127.311 251.742 126.832 251.422C126.36 251.102 126.011 250.707 125.784 250.235C125.565 249.756 125.456 249.196 125.456 248.557V243.799H128.056V248.557C128.056 248.868 128.098 249.129 128.182 249.339C128.266 249.55 128.422 249.722 128.649 249.857C128.885 249.983 129.213 250.076 129.633 250.134C130.054 250.185 130.601 250.21 131.274 250.21C131.779 250.21 132.2 250.181 132.536 250.122C132.873 250.063 133.142 249.966 133.344 249.832C133.546 249.697 133.689 249.524 133.773 249.314C133.866 249.104 133.912 248.851 133.912 248.557V243.799H136.537V248.557ZM143.381 246.941C143.566 247.269 143.726 247.56 143.86 247.812C144.003 248.056 144.125 248.275 144.226 248.468C144.336 248.662 144.428 248.839 144.504 248.999C144.588 249.158 144.668 249.314 144.744 249.466C144.811 249.314 144.883 249.163 144.958 249.011C145.042 248.851 145.135 248.675 145.236 248.481C145.345 248.279 145.467 248.056 145.602 247.812C145.745 247.568 145.909 247.282 146.094 246.954L147.445 244.556C147.596 244.287 147.785 244.072 148.013 243.912C148.248 243.744 148.538 243.66 148.883 243.66C149.212 243.66 149.506 243.757 149.767 243.95C150.036 244.135 150.23 244.426 150.347 244.821L152.48 252.242H149.88L149.085 249.301C148.951 248.822 148.837 248.401 148.745 248.039C148.652 247.678 148.572 247.324 148.505 246.979C148.362 247.274 148.202 247.602 148.025 247.964C147.848 248.317 147.617 248.767 147.331 249.314L146.195 251.434C146.086 251.645 145.972 251.813 145.854 251.939C145.745 252.057 145.631 252.15 145.514 252.217C145.396 252.284 145.27 252.326 145.135 252.343C145 252.368 144.853 252.381 144.693 252.381C144.533 252.381 144.386 252.368 144.251 252.343C144.117 252.326 143.991 252.284 143.873 252.217C143.755 252.15 143.637 252.057 143.519 251.939C143.41 251.813 143.301 251.645 143.191 251.434L142.055 249.301C141.904 249.015 141.769 248.759 141.652 248.532C141.534 248.304 141.424 248.102 141.323 247.926C141.231 247.741 141.147 247.572 141.071 247.421C141.004 247.269 140.936 247.122 140.869 246.979C140.802 247.316 140.722 247.669 140.629 248.039C140.537 248.401 140.427 248.822 140.301 249.301L139.506 252.242H136.944L139.127 244.821C139.245 244.426 139.439 244.135 139.708 243.95C139.977 243.757 140.276 243.66 140.604 243.66C140.941 243.66 141.222 243.74 141.45 243.9C141.685 244.06 141.879 244.278 142.03 244.556L143.381 246.941ZM162.966 247.901C163.336 248.01 163.647 248.224 163.9 248.544C164.161 248.864 164.291 249.276 164.291 249.781C164.291 250.134 164.236 250.463 164.127 250.766C164.018 251.06 163.833 251.317 163.572 251.535C163.311 251.754 162.957 251.927 162.512 252.053C162.074 252.179 161.523 252.242 160.858 252.242H153.437V247.105H160.909C161.102 247.105 161.27 247.068 161.413 246.992C161.565 246.908 161.641 246.756 161.641 246.537C161.641 246.327 161.565 246.184 161.413 246.108C161.262 246.033 161.094 245.995 160.909 245.995H153.437L155.204 243.799H160.795C161.3 243.799 161.754 243.849 162.158 243.95C162.57 244.043 162.92 244.19 163.206 244.392C163.5 244.585 163.723 244.829 163.875 245.124C164.034 245.41 164.114 245.747 164.114 246.134C164.114 246.386 164.081 246.609 164.013 246.802C163.946 246.996 163.858 247.169 163.748 247.32C163.647 247.463 163.525 247.585 163.382 247.686C163.248 247.779 163.109 247.85 162.966 247.901ZM156.062 248.91V250.071H160.871C161.157 250.071 161.363 250.021 161.489 249.92C161.615 249.819 161.679 249.672 161.679 249.478C161.679 249.293 161.615 249.154 161.489 249.062C161.363 248.961 161.157 248.91 160.871 248.91H156.062ZM175.409 250.071L173.73 252.242H165.602V243.799H175.383L173.692 245.995H168.227V247.004H174.916L173.414 248.923H168.227V250.071H175.409ZM188.278 252.242H184.782L182.901 250.008H178.888V252.242H176.275V247.926H183.621C184.025 247.926 184.365 247.842 184.643 247.673C184.921 247.505 185.059 247.274 185.059 246.979C185.059 246.651 184.933 246.407 184.681 246.247C184.428 246.079 184.075 245.995 183.621 245.995H176.275L177.979 243.799H183.406C183.886 243.799 184.382 243.845 184.895 243.937C185.409 244.022 185.876 244.177 186.296 244.404C186.717 244.632 187.062 244.939 187.331 245.326C187.609 245.713 187.748 246.209 187.748 246.815C187.748 247.143 187.697 247.455 187.596 247.749C187.495 248.044 187.348 248.309 187.155 248.544C186.969 248.78 186.738 248.982 186.46 249.15C186.191 249.31 185.884 249.423 185.539 249.491C185.682 249.6 185.842 249.739 186.019 249.907C186.195 250.076 186.431 250.307 186.725 250.601L188.278 252.242ZM194.112 251.169C194.112 250.774 194.247 250.471 194.516 250.261C194.793 250.042 195.134 249.933 195.538 249.933C195.934 249.933 196.266 250.042 196.535 250.261C196.813 250.471 196.952 250.774 196.952 251.169C196.952 251.556 196.813 251.855 196.535 252.065C196.266 252.276 195.934 252.381 195.538 252.381C195.134 252.381 194.793 252.276 194.516 252.065C194.247 251.855 194.112 251.556 194.112 251.169ZM194.112 247.08C194.112 246.693 194.247 246.394 194.516 246.184C194.793 245.965 195.134 245.856 195.538 245.856C195.934 245.856 196.266 245.965 196.535 246.184C196.813 246.394 196.952 246.693 196.952 247.08C196.952 247.476 196.813 247.779 196.535 247.989C196.266 248.199 195.934 248.304 195.538 248.304C195.134 248.304 194.793 248.199 194.516 247.989C194.247 247.779 194.112 247.476 194.112 247.08Z" fill="#FF9C00"/>
<path d="M34.4088 293.712H30.9127L29.0322 291.478H25.0187V293.712H22.4061V289.395H29.7516C30.1555 289.395 30.4962 289.311 30.7739 289.143C31.0516 288.974 31.1904 288.743 31.1904 288.449C31.1904 288.12 31.0642 287.876 30.8118 287.717C30.5594 287.548 30.206 287.464 29.7516 287.464H22.4061L24.11 285.268H29.537C30.0166 285.268 30.5131 285.314 31.0263 285.407C31.5396 285.491 32.0066 285.647 32.4273 285.874C32.848 286.101 33.193 286.408 33.4622 286.795C33.7399 287.182 33.8787 287.679 33.8787 288.284C33.8787 288.613 33.8282 288.924 33.7273 289.218C33.6263 289.513 33.479 289.778 33.2855 290.014C33.1004 290.249 32.869 290.451 32.5914 290.619C32.3221 290.779 32.015 290.893 31.67 290.96C31.813 291.07 31.9729 291.208 32.1496 291.377C32.3263 291.545 32.5619 291.776 32.8564 292.071L34.4088 293.712ZM38.92 293.712L40.4977 291.541H42.618C42.8705 291.541 43.1313 291.541 43.4005 291.541C43.6782 291.541 43.918 291.549 44.1199 291.566C44.0021 291.415 43.8633 291.225 43.7034 290.998C43.552 290.762 43.4047 290.544 43.2617 290.342L41.7472 288.108L37.7841 293.712H34.692L40.1064 286.076C40.2831 285.832 40.5061 285.613 40.7753 285.419C41.0446 285.226 41.3854 285.129 41.7977 285.129C42.1931 285.129 42.5213 285.222 42.7821 285.407C43.0514 285.584 43.2785 285.807 43.4636 286.076L48.7393 293.712H38.92ZM58.2274 293.85C58.0591 293.85 57.8908 293.821 57.7225 293.762C57.5627 293.712 57.3818 293.59 57.1798 293.396L52.0052 288.751V293.712H49.6324V286.707C49.6324 286.429 49.6703 286.189 49.746 285.987C49.8301 285.785 49.9353 285.621 50.0615 285.495C50.1962 285.369 50.3476 285.276 50.5159 285.218C50.6926 285.159 50.8735 285.129 51.0586 285.129C51.2185 285.129 51.3783 285.159 51.5382 285.218C51.7065 285.268 51.8958 285.39 52.1061 285.584L57.2808 290.228V285.268H59.6662V292.26C59.6662 292.538 59.6241 292.778 59.54 292.98C59.4642 293.181 59.3591 293.35 59.2244 293.484C59.0982 293.611 58.9468 293.703 58.7701 293.762C58.5934 293.821 58.4125 293.85 58.2274 293.85ZM66.4193 288.436H71.8211V293.712H66.028C65.296 293.712 64.6187 293.602 63.996 293.383C63.3734 293.165 62.8349 292.866 62.3805 292.487C61.9346 292.1 61.5812 291.646 61.3203 291.124C61.0679 290.594 60.9417 290.022 60.9417 289.408C60.9417 288.794 61.0679 288.234 61.3203 287.729C61.5812 287.216 61.9346 286.778 62.3805 286.417C62.8349 286.046 63.3734 285.764 63.996 285.571C64.6187 285.369 65.296 285.268 66.028 285.268H72.0735L70.3823 287.464H66.028C65.6746 287.464 65.3465 287.515 65.0436 287.616C64.7407 287.717 64.4756 287.86 64.2484 288.045C64.0297 288.23 63.8572 288.449 63.731 288.701C63.6048 288.945 63.5417 289.218 63.5417 289.521C63.5417 289.824 63.6006 290.102 63.7184 290.354C63.8446 290.598 64.0171 290.809 64.2358 290.985C64.463 291.162 64.728 291.301 65.0309 291.402C65.3339 291.494 65.6662 291.541 66.028 291.541H69.2212V290.316H64.8543L66.4193 288.436ZM83.1291 291.541L81.4505 293.712H73.3225V285.268H83.1039L81.4126 287.464H75.9477V288.474H82.6369L81.135 290.392H75.9477V291.541H83.1291ZM88.9155 292.639C88.9155 292.243 89.0501 291.94 89.3194 291.73C89.597 291.511 89.9378 291.402 90.3417 291.402C90.7371 291.402 91.0695 291.511 91.3388 291.73C91.6164 291.94 91.7553 292.243 91.7553 292.639C91.7553 293.026 91.6164 293.325 91.3388 293.535C91.0695 293.745 90.7371 293.85 90.3417 293.85C89.9378 293.85 89.597 293.745 89.3194 293.535C89.0501 293.325 88.9155 293.026 88.9155 292.639ZM88.9155 288.55C88.9155 288.162 89.0501 287.864 89.3194 287.653C89.597 287.435 89.9378 287.325 90.3417 287.325C90.7371 287.325 91.0695 287.435 91.3388 287.653C91.6164 287.864 91.7553 288.162 91.7553 288.55C91.7553 288.945 91.6164 289.248 91.3388 289.458C91.0695 289.669 90.7371 289.774 90.3417 289.774C89.9378 289.774 89.597 289.669 89.3194 289.458C89.0501 289.248 88.9155 288.945 88.9155 288.55Z" fill="#FF9C00"/>
<path d="M31.304 318.954H23.3022C22.9741 318.954 22.688 318.865 22.444 318.689C22.2084 318.504 22.0906 318.239 22.0906 317.894C22.0906 317.7 22.1411 317.515 22.242 317.338C22.343 317.153 22.4818 316.989 22.6585 316.846L25.7381 314.423C26.0915 314.145 26.3944 313.909 26.6468 313.716C26.8992 313.514 27.118 313.346 27.3031 313.211C27.4882 313.068 27.6397 312.955 27.7575 312.87C27.8837 312.786 27.9846 312.715 28.0604 312.656C27.9426 312.664 27.8037 312.673 27.6439 312.681C27.4924 312.689 27.2989 312.698 27.0633 312.706C26.8361 312.706 26.5669 312.706 26.2556 312.706C25.9442 312.706 25.5782 312.706 25.1575 312.706H21.7751L23.441 310.51H31.2283C31.5564 310.51 31.8383 310.603 32.0739 310.788C32.3179 310.965 32.4399 311.225 32.4399 311.57C32.4399 311.764 32.3894 311.953 32.2884 312.138C32.1875 312.315 32.0486 312.471 31.8719 312.605L28.7545 315.079C28.4096 315.357 28.1109 315.592 27.8584 315.786C27.606 315.979 27.3872 316.148 27.2021 316.291C27.0254 316.425 26.8782 316.535 26.7604 316.619C26.6426 316.703 26.5416 316.774 26.4575 316.833C26.5585 316.825 26.7267 316.821 26.9623 316.821C27.2063 316.812 27.484 316.808 27.7953 316.808C28.1067 316.8 28.439 316.796 28.7924 316.796C29.1458 316.787 29.4866 316.783 29.8147 316.783H32.8816L31.304 318.954ZM39.6896 310.371C41.7427 310.371 43.2824 310.721 44.309 311.419C45.3439 312.117 45.8614 313.22 45.8614 314.726C45.8614 316.24 45.3481 317.347 44.3216 318.045C43.2951 318.743 41.7511 319.093 39.6896 319.093C37.6198 319.093 36.0716 318.743 35.0451 318.045C34.027 317.347 33.5179 316.24 33.5179 314.726C33.5179 313.22 34.0312 312.117 35.0577 311.419C36.0842 310.721 37.6282 310.371 39.6896 310.371ZM39.6896 316.896C40.3459 316.896 40.9013 316.871 41.3556 316.821C41.81 316.762 42.176 316.652 42.4537 316.493C42.7397 316.333 42.9459 316.114 43.0721 315.836C43.1983 315.55 43.2614 315.18 43.2614 314.726C43.2614 314.271 43.1983 313.905 43.0721 313.628C42.9459 313.342 42.7397 313.123 42.4537 312.971C42.176 312.811 41.81 312.706 41.3556 312.656C40.9013 312.597 40.3459 312.567 39.6896 312.567C39.0333 312.567 38.478 312.597 38.0237 312.656C37.5693 312.706 37.1991 312.811 36.913 312.971C36.6353 313.123 36.4334 313.342 36.3072 313.628C36.181 313.905 36.1179 314.271 36.1179 314.726C36.1179 315.18 36.181 315.55 36.3072 315.836C36.4334 316.114 36.6353 316.333 36.913 316.493C37.1991 316.652 37.5693 316.762 38.0237 316.821C38.478 316.871 39.0333 316.896 39.6896 316.896ZM57.9211 314.65C57.9211 315.264 57.7907 315.836 57.5299 316.366C57.2774 316.888 56.9241 317.342 56.4697 317.729C56.0237 318.108 55.4895 318.407 54.8668 318.626C54.2442 318.844 53.5668 318.954 52.8348 318.954H47.1806V313.691H49.8058V316.783H52.8348C53.1966 316.783 53.529 316.737 53.8319 316.644C54.1432 316.543 54.4082 316.404 54.627 316.228C54.8458 316.051 55.0183 315.841 55.1445 315.597C55.2707 315.344 55.3338 315.066 55.3338 314.764C55.3338 314.469 55.2707 314.196 55.1445 313.943C55.0183 313.691 54.8416 313.476 54.6144 313.299C54.3872 313.114 54.1222 312.971 53.8193 312.87C53.5164 312.761 53.1882 312.706 52.8348 312.706H47.1806L48.8465 310.51H52.8348C53.5753 310.51 54.2568 310.611 54.8794 310.813C55.5021 311.015 56.0364 311.301 56.4823 311.671C56.9367 312.033 57.2901 312.471 57.5425 312.984C57.7949 313.489 57.9211 314.044 57.9211 314.65ZM61.8975 318.954H59.2849V310.51H61.8975V318.954ZM67.0957 318.954L68.6733 316.783H70.7937C71.0461 316.783 71.3069 316.783 71.5762 316.783C71.8538 316.783 72.0936 316.791 72.2956 316.808C72.1778 316.657 72.0389 316.467 71.8791 316.24C71.7276 316.005 71.5804 315.786 71.4373 315.584L69.9228 313.35L65.9598 318.954H62.8676L68.2821 311.318C68.4588 311.074 68.6817 310.855 68.951 310.662C69.2202 310.468 69.561 310.371 69.9733 310.371C70.3688 310.371 70.6969 310.464 70.9577 310.649C71.227 310.826 71.4542 311.049 71.6393 311.318L76.9149 318.954H67.0957ZM88.5865 316.783L86.9079 318.954H82.6672C81.9351 318.954 81.2578 318.844 80.6352 318.626C80.0125 318.407 79.474 318.108 79.0197 317.729C78.5737 317.342 78.2203 316.888 77.9595 316.366C77.7071 315.836 77.5809 315.264 77.5809 314.65C77.5809 314.036 77.7071 313.476 77.9595 312.971C78.2203 312.458 78.5737 312.021 79.0197 311.659C79.474 311.289 80.0125 311.007 80.6352 310.813C81.2578 310.611 81.9351 310.51 82.6672 310.51H88.5865L86.9079 312.706H82.6672C82.3138 312.706 81.9856 312.757 81.6827 312.858C81.3798 312.959 81.119 313.102 80.9002 313.287C80.6814 313.464 80.509 313.678 80.3827 313.931C80.2565 314.183 80.1934 314.461 80.1934 314.764C80.1934 315.066 80.2523 315.344 80.3701 315.597C80.4963 315.841 80.6688 316.051 80.8876 316.228C81.1148 316.404 81.3798 316.543 81.6827 316.644C81.9856 316.737 82.3138 316.783 82.6672 316.783H88.5865ZM102.15 313.88C103.185 313.88 103.972 314.074 104.51 314.461C105.049 314.839 105.318 315.416 105.318 316.19C105.318 316.619 105.251 317.006 105.116 317.351C104.981 317.696 104.767 317.986 104.472 318.222C104.178 318.457 103.799 318.638 103.336 318.764C102.882 318.891 102.335 318.954 101.696 318.954H93.8326L95.5112 316.783H101.897C102.209 316.783 102.436 316.737 102.579 316.644C102.722 316.543 102.794 316.383 102.794 316.164C102.794 315.946 102.722 315.79 102.579 315.697C102.436 315.605 102.209 315.559 101.897 315.559H97.3034C96.7565 315.559 96.2853 315.5 95.8898 315.382C95.4944 315.264 95.1662 315.1 94.9054 314.89C94.6446 314.679 94.451 314.427 94.3248 314.132C94.1986 313.83 94.1355 313.497 94.1355 313.135C94.1355 312.74 94.2028 312.382 94.3375 312.063C94.4805 311.734 94.6951 311.457 94.9811 311.23C95.2756 311.002 95.65 310.826 96.1044 310.7C96.5672 310.573 97.1183 310.51 97.7578 310.51H105.091L103.412 312.706H97.5558C97.2529 312.706 97.0257 312.748 96.8743 312.832C96.7313 312.917 96.6597 313.068 96.6597 313.287C96.6597 313.506 96.7313 313.661 96.8743 313.754C97.0257 313.838 97.2529 313.88 97.5558 313.88H102.15ZM109.128 318.954H106.515V310.51H109.128V318.954ZM115.967 313.678H121.369V318.954H115.576C114.844 318.954 114.166 318.844 113.544 318.626C112.921 318.407 112.383 318.108 111.928 317.729C111.482 317.342 111.129 316.888 110.868 316.366C110.616 315.836 110.489 315.264 110.489 314.65C110.489 314.036 110.616 313.476 110.868 312.971C111.129 312.458 111.482 312.021 111.928 311.659C112.383 311.289 112.921 311.007 113.544 310.813C114.166 310.611 114.844 310.51 115.576 310.51H121.621L119.93 312.706H115.576C115.222 312.706 114.894 312.757 114.591 312.858C114.288 312.959 114.023 313.102 113.796 313.287C113.577 313.472 113.405 313.691 113.279 313.943C113.152 314.187 113.089 314.461 113.089 314.764C113.089 315.066 113.148 315.344 113.266 315.597C113.392 315.841 113.565 316.051 113.784 316.228C114.011 316.404 114.276 316.543 114.579 316.644C114.882 316.737 115.214 316.783 115.576 316.783H118.769V315.559H114.402L115.967 313.678ZM131.427 319.093C131.259 319.093 131.091 319.063 130.922 319.004C130.763 318.954 130.582 318.832 130.38 318.638L125.205 313.994V318.954H122.832V311.949C122.832 311.671 122.87 311.432 122.946 311.23C123.03 311.028 123.135 310.864 123.261 310.737C123.396 310.611 123.548 310.519 123.716 310.46C123.893 310.401 124.073 310.371 124.259 310.371C124.418 310.371 124.578 310.401 124.738 310.46C124.906 310.51 125.096 310.632 125.306 310.826L130.481 315.47V310.51H132.866V317.502C132.866 317.78 132.824 318.02 132.74 318.222C132.664 318.424 132.559 318.592 132.424 318.727C132.298 318.853 132.147 318.945 131.97 319.004C131.793 319.063 131.612 319.093 131.427 319.093ZM139.301 317.881C139.301 317.485 139.436 317.183 139.705 316.972C139.983 316.753 140.324 316.644 140.728 316.644C141.123 316.644 141.455 316.753 141.725 316.972C142.002 317.183 142.141 317.485 142.141 317.881C142.141 318.268 142.002 318.567 141.725 318.777C141.455 318.987 141.123 319.093 140.728 319.093C140.324 319.093 139.983 318.987 139.705 318.777C139.436 318.567 139.301 318.268 139.301 317.881ZM139.301 313.792C139.301 313.405 139.436 313.106 139.705 312.896C139.983 312.677 140.324 312.567 140.728 312.567C141.123 312.567 141.455 312.677 141.725 312.896C142.002 313.106 142.141 313.405 142.141 313.792C142.141 314.187 142.002 314.49 141.725 314.7C141.455 314.911 141.123 315.016 140.728 315.016C140.324 315.016 139.983 314.911 139.705 314.7C139.436 314.49 139.301 314.187 139.301 313.792Z" fill="#FF9C00"/>
<path d="M105.853 285.268H108.945V293.712H106.333V287.464H104.275L105.853 285.268ZM115.676 285.129C117.468 285.129 118.814 285.478 119.715 286.177C120.615 286.875 121.065 287.977 121.065 289.483C121.065 290.998 120.615 292.104 119.715 292.803C118.823 293.501 117.477 293.85 115.676 293.85C113.875 293.85 112.525 293.501 111.625 292.803C110.733 292.104 110.287 290.998 110.287 289.483C110.287 287.977 110.737 286.875 111.637 286.177C112.538 285.478 113.884 285.129 115.676 285.129ZM115.676 291.654C116.189 291.654 116.627 291.629 116.989 291.579C117.35 291.52 117.641 291.41 117.859 291.25C118.078 291.091 118.238 290.872 118.339 290.594C118.44 290.308 118.49 289.938 118.49 289.483C118.49 289.029 118.44 288.663 118.339 288.385C118.238 288.099 118.078 287.881 117.859 287.729C117.641 287.569 117.35 287.464 116.989 287.414C116.627 287.355 116.189 287.325 115.676 287.325C115.154 287.325 114.713 287.355 114.351 287.414C113.997 287.464 113.711 287.569 113.493 287.729C113.274 287.881 113.114 288.099 113.013 288.385C112.912 288.663 112.861 289.029 112.861 289.483C112.861 289.938 112.912 290.308 113.013 290.594C113.114 290.872 113.274 291.091 113.493 291.25C113.711 291.41 113.997 291.52 114.351 291.579C114.713 291.629 115.154 291.654 115.676 291.654ZM121.663 292.639C121.663 292.243 121.798 291.94 122.067 291.73C122.345 291.511 122.681 291.402 123.077 291.402C123.48 291.402 123.817 291.511 124.086 291.73C124.364 291.94 124.503 292.243 124.503 292.639C124.503 293.026 124.364 293.325 124.086 293.535C123.817 293.745 123.48 293.85 123.077 293.85C122.681 293.85 122.345 293.745 122.067 293.535C121.798 293.325 121.663 293.026 121.663 292.639ZM135.554 285.268L133.863 287.464H128.587V288.638H132.689C133.715 288.638 134.498 288.831 135.036 289.218C135.575 289.597 135.844 290.173 135.844 290.948C135.844 291.814 135.562 292.492 134.998 292.98C134.435 293.468 133.513 293.712 132.234 293.712H125.558L127.236 291.541H132.436C132.739 291.541 132.962 291.494 133.105 291.402C133.257 291.301 133.332 291.141 133.332 290.922C133.332 290.704 133.257 290.548 133.105 290.455C132.962 290.363 132.739 290.316 132.436 290.316H126V285.268H135.554Z" fill="white"/>
<path d="M215.475 243.799L213.783 245.995H210.767V252.242H208.154V245.995H204.191L205.883 243.799H215.475ZM228.355 243.799L223.345 249.453V252.242H220.719V249.44L215.57 243.799H218.927L220.947 246.146C221.014 246.222 221.102 246.323 221.212 246.449C221.321 246.567 221.435 246.693 221.552 246.828C221.67 246.962 221.78 247.089 221.881 247.206C221.982 247.324 222.053 247.413 222.095 247.471C222.179 247.354 222.301 247.194 222.461 246.992C222.621 246.79 222.852 246.504 223.155 246.134L225.074 243.799H228.355ZM238.862 250.071L237.183 252.242H232.942C232.21 252.242 231.533 252.133 230.91 251.914C230.288 251.695 229.749 251.397 229.295 251.018C228.849 250.631 228.496 250.177 228.235 249.655C227.982 249.125 227.856 248.553 227.856 247.938C227.856 247.324 227.982 246.765 228.235 246.26C228.496 245.747 228.849 245.309 229.295 244.947C229.749 244.577 230.288 244.295 230.91 244.102C231.533 243.9 232.21 243.799 232.942 243.799H238.862L237.183 245.995H232.942C232.589 245.995 232.261 246.045 231.958 246.146C231.655 246.247 231.394 246.39 231.175 246.575C230.957 246.752 230.784 246.967 230.658 247.219C230.532 247.471 230.469 247.749 230.469 248.052C230.469 248.355 230.528 248.633 230.645 248.885C230.772 249.129 230.944 249.339 231.163 249.516C231.39 249.693 231.655 249.832 231.958 249.933C232.261 250.025 232.589 250.071 232.942 250.071H238.862ZM254.331 243.799L252.64 245.995H247.364V247.169H251.466C252.492 247.169 253.275 247.362 253.813 247.749C254.352 248.128 254.621 248.704 254.621 249.478C254.621 250.345 254.339 251.022 253.776 251.51C253.212 251.998 252.291 252.242 251.012 252.242H244.335L246.014 250.071H251.214C251.516 250.071 251.739 250.025 251.882 249.933C252.034 249.832 252.11 249.672 252.11 249.453C252.11 249.234 252.034 249.078 251.882 248.986C251.739 248.893 251.516 248.847 251.214 248.847H244.777V243.799H254.331ZM265.683 243.799L263.991 245.995H258.716V247.169H262.818C263.844 247.169 264.627 247.362 265.165 247.749C265.704 248.128 265.973 248.704 265.973 249.478C265.973 250.345 265.691 251.022 265.127 251.51C264.563 251.998 263.642 252.242 262.363 252.242H255.687L257.365 250.071H262.565C262.868 250.071 263.091 250.025 263.234 249.933C263.385 249.832 263.461 249.672 263.461 249.453C263.461 249.234 263.385 249.078 263.234 248.986C263.091 248.893 262.868 248.847 262.565 248.847H256.128V243.799H265.683ZM273.273 250.071C273.845 250.071 274.316 249.937 274.687 249.667C275.065 249.39 275.347 249.062 275.532 248.683C275.381 248.708 275.208 248.734 275.015 248.759C274.83 248.776 274.552 248.797 274.182 248.822C273.82 248.839 273.324 248.851 272.692 248.86C272.061 248.868 271.228 248.872 270.193 248.872C269.234 248.872 268.469 248.675 267.896 248.279C267.324 247.884 267.038 247.303 267.038 246.537C267.038 245.957 267.185 245.481 267.48 245.111C267.774 244.741 268.166 244.451 268.654 244.24C269.142 244.022 269.701 243.87 270.332 243.786C270.972 243.702 271.632 243.66 272.314 243.66C274.266 243.66 275.738 244.005 276.731 244.695C277.732 245.376 278.233 246.424 278.233 247.837C278.233 248.519 278.103 249.133 277.842 249.68C277.589 250.227 277.236 250.69 276.782 251.068C276.336 251.447 275.801 251.737 275.179 251.939C274.556 252.141 273.879 252.242 273.147 252.242H267.821L269.512 250.071H273.273ZM270.395 247.194C271.043 247.194 271.599 247.194 272.061 247.194C272.533 247.185 272.936 247.181 273.273 247.181C273.618 247.173 273.904 247.169 274.131 247.169C274.358 247.16 274.556 247.152 274.724 247.143C274.893 247.135 275.036 247.126 275.154 247.118C275.28 247.101 275.406 247.084 275.532 247.068C275.465 246.798 275.343 246.584 275.166 246.424C274.998 246.264 274.771 246.142 274.485 246.058C274.207 245.974 273.87 245.919 273.475 245.894C273.088 245.869 272.65 245.856 272.162 245.856C271.615 245.856 271.17 245.873 270.825 245.906C270.48 245.94 270.21 245.991 270.017 246.058C269.823 246.117 269.689 246.192 269.613 246.285C269.537 246.378 269.499 246.487 269.499 246.613C269.499 247 269.798 247.194 270.395 247.194ZM280.539 250.071H286.32C286.606 250.071 286.812 250.021 286.938 249.92C287.064 249.819 287.127 249.672 287.127 249.478C287.127 249.293 287.064 249.154 286.938 249.062C286.812 248.961 286.606 248.91 286.32 248.91H281.258L282.609 247.105H286.357C286.551 247.105 286.719 247.068 286.862 246.992C287.014 246.908 287.089 246.756 287.089 246.537C287.089 246.327 287.014 246.184 286.862 246.108C286.711 246.033 286.542 245.995 286.357 245.995H279.29L280.968 243.799H286.244C286.749 243.799 287.203 243.849 287.607 243.95C288.019 244.043 288.368 244.19 288.654 244.392C288.949 244.585 289.172 244.829 289.323 245.124C289.483 245.41 289.563 245.747 289.563 246.134C289.563 246.386 289.529 246.609 289.462 246.802C289.395 246.996 289.307 247.169 289.197 247.32C289.096 247.463 288.974 247.585 288.831 247.686C288.696 247.779 288.558 247.85 288.415 247.901C288.785 248.01 289.096 248.224 289.349 248.544C289.609 248.864 289.74 249.276 289.74 249.781C289.74 250.134 289.685 250.463 289.576 250.766C289.466 251.06 289.281 251.317 289.02 251.535C288.76 251.754 288.406 251.927 287.96 252.053C287.523 252.179 286.972 252.242 286.307 252.242H278.873L280.539 250.071ZM295.938 247.156L294.664 248.784H290.448L291.723 247.156H295.938ZM302.878 250.071C303.451 250.071 303.922 249.937 304.292 249.667C304.671 249.39 304.952 249.062 305.138 248.683C304.986 248.708 304.814 248.734 304.62 248.759C304.435 248.776 304.157 248.797 303.787 248.822C303.425 248.839 302.929 248.851 302.298 248.86C301.667 248.868 300.834 248.872 299.799 248.872C298.84 248.872 298.074 248.675 297.502 248.279C296.93 247.884 296.644 247.303 296.644 246.537C296.644 245.957 296.791 245.481 297.085 245.111C297.38 244.741 297.771 244.451 298.259 244.24C298.747 244.022 299.307 243.87 299.938 243.786C300.577 243.702 301.238 243.66 301.919 243.66C303.871 243.66 305.344 244.005 306.337 244.695C307.338 245.376 307.838 246.424 307.838 247.837C307.838 248.519 307.708 249.133 307.447 249.68C307.195 250.227 306.841 250.69 306.387 251.068C305.941 251.447 305.407 251.737 304.784 251.939C304.162 252.141 303.484 252.242 302.752 252.242H297.426L299.117 250.071H302.878ZM300.001 247.194C300.649 247.194 301.204 247.194 301.667 247.194C302.138 247.185 302.542 247.181 302.878 247.181C303.223 247.173 303.509 247.169 303.737 247.169C303.964 247.16 304.162 247.152 304.33 247.143C304.498 247.135 304.641 247.126 304.759 247.118C304.885 247.101 305.011 247.084 305.138 247.068C305.07 246.798 304.948 246.584 304.772 246.424C304.603 246.264 304.376 246.142 304.09 246.058C303.812 245.974 303.476 245.919 303.08 245.894C302.693 245.869 302.256 245.856 301.768 245.856C301.221 245.856 300.775 245.873 300.43 245.906C300.085 245.94 299.816 245.991 299.622 246.058C299.429 246.117 299.294 246.192 299.218 246.285C299.143 246.378 299.105 246.487 299.105 246.613C299.105 247 299.403 247.194 300.001 247.194ZM313.855 245.995C313.333 245.995 312.875 246.1 312.479 246.31C312.084 246.521 311.789 246.807 311.596 247.169H316.935C317.894 247.169 318.659 247.366 319.232 247.762C319.804 248.157 320.09 248.738 320.09 249.503C320.09 250.084 319.943 250.564 319.648 250.942C319.354 251.312 318.962 251.607 318.474 251.826C317.986 252.036 317.423 252.179 316.783 252.255C316.152 252.339 315.496 252.381 314.814 252.381C312.871 252.381 311.398 252.028 310.397 251.321C309.396 250.606 308.895 249.478 308.895 247.938C308.895 247.324 309.021 246.765 309.274 246.26C309.534 245.747 309.888 245.309 310.334 244.947C310.788 244.577 311.327 244.295 311.949 244.102C312.572 243.9 313.249 243.799 313.981 243.799H319.421L317.742 245.995H313.855ZM311.596 248.847C311.672 249.125 311.798 249.352 311.974 249.529C312.151 249.705 312.378 249.844 312.656 249.945C312.934 250.038 313.262 250.101 313.64 250.134C314.028 250.168 314.469 250.185 314.966 250.185C315.504 250.185 315.946 250.168 316.291 250.134C316.644 250.101 316.918 250.055 317.111 249.996C317.305 249.928 317.439 249.848 317.515 249.756C317.591 249.655 317.629 249.545 317.629 249.428C317.629 249.041 317.33 248.847 316.733 248.847H311.596ZM331.142 243.799L329.451 245.995H324.175V247.169H328.277C329.304 247.169 330.086 247.362 330.625 247.749C331.163 248.128 331.432 248.704 331.432 249.478C331.432 250.345 331.151 251.022 330.587 251.51C330.023 251.998 329.102 252.242 327.823 252.242H321.146L322.825 250.071H328.025C328.328 250.071 328.551 250.025 328.694 249.933C328.845 249.832 328.921 249.672 328.921 249.453C328.921 249.234 328.845 249.078 328.694 248.986C328.551 248.893 328.328 248.847 328.025 248.847H321.588V243.799H331.142ZM337.647 247.156L336.373 248.784H332.157L333.432 247.156H337.647ZM339.551 243.799H342.644V252.242H340.031V245.995H337.974L339.551 243.799ZM361.059 252.242H357.563L355.682 250.008H351.669V252.242H349.056V247.926H356.402C356.806 247.926 357.147 247.842 357.424 247.673C357.702 247.505 357.841 247.274 357.841 246.979C357.841 246.651 357.714 246.407 357.462 246.247C357.21 246.079 356.856 245.995 356.402 245.995H349.056L350.76 243.799H356.187C356.667 243.799 357.163 243.845 357.677 243.937C358.19 244.022 358.657 244.177 359.078 244.404C359.498 244.632 359.843 244.939 360.112 245.326C360.39 245.713 360.529 246.209 360.529 246.815C360.529 247.143 360.478 247.455 360.378 247.749C360.277 248.044 360.129 248.309 359.936 248.544C359.751 248.78 359.519 248.982 359.242 249.15C358.972 249.31 358.665 249.423 358.32 249.491C358.463 249.6 358.623 249.739 358.8 249.907C358.977 250.076 359.212 250.307 359.507 250.601L361.059 252.242ZM371.805 250.071L370.127 252.242H361.999V243.799H371.78L370.089 245.995H364.624V247.004H371.313L369.811 248.923H364.624V250.071H371.805ZM383.437 247.938C383.437 248.553 383.307 249.125 383.046 249.655C382.794 250.177 382.44 250.631 381.986 251.018C381.54 251.397 381.006 251.695 380.383 251.914C379.76 252.133 379.083 252.242 378.351 252.242H372.697V246.979H375.322V250.071H378.351C378.713 250.071 379.045 250.025 379.348 249.933C379.66 249.832 379.925 249.693 380.143 249.516C380.362 249.339 380.535 249.129 380.661 248.885C380.787 248.633 380.85 248.355 380.85 248.052C380.85 247.757 380.787 247.484 380.661 247.232C380.535 246.979 380.358 246.765 380.131 246.588C379.904 246.403 379.638 246.26 379.336 246.159C379.033 246.049 378.705 245.995 378.351 245.995H372.697L374.363 243.799H378.351C379.092 243.799 379.773 243.9 380.396 244.102C381.018 244.304 381.553 244.59 381.999 244.96C382.453 245.322 382.806 245.759 383.059 246.272C383.311 246.777 383.437 247.333 383.437 247.938ZM214.137 265.071L212.446 267.242H204.987V258.799H207.599V265.071H214.137ZM220.581 258.66C222.634 258.66 224.174 259.009 225.2 259.707C226.235 260.406 226.753 261.508 226.753 263.014C226.753 264.529 226.239 265.635 225.213 266.333C224.186 267.032 222.642 267.381 220.581 267.381C218.511 267.381 216.963 267.032 215.936 266.333C214.918 265.635 214.409 264.529 214.409 263.014C214.409 261.508 214.922 260.406 215.949 259.707C216.975 259.009 218.519 258.66 220.581 258.66ZM220.581 265.185C221.237 265.185 221.793 265.16 222.247 265.109C222.701 265.05 223.067 264.941 223.345 264.781C223.631 264.621 223.837 264.402 223.963 264.125C224.09 263.839 224.153 263.468 224.153 263.014C224.153 262.56 224.09 262.194 223.963 261.916C223.837 261.63 223.631 261.411 223.345 261.26C223.067 261.1 222.701 260.995 222.247 260.944C221.793 260.885 221.237 260.856 220.581 260.856C219.925 260.856 219.369 260.885 218.915 260.944C218.461 260.995 218.09 261.1 217.804 261.26C217.527 261.411 217.325 261.63 217.198 261.916C217.072 262.194 217.009 262.56 217.009 263.014C217.009 263.468 217.072 263.839 217.198 264.125C217.325 264.402 217.527 264.621 217.804 264.781C218.09 264.941 218.461 265.05 218.915 265.109C219.369 265.16 219.925 265.185 220.581 265.185ZM236.629 267.381C236.461 267.381 236.292 267.352 236.124 267.293C235.964 267.242 235.783 267.12 235.581 266.927L230.407 262.282V267.242H228.034V260.237C228.034 259.96 228.072 259.72 228.148 259.518C228.232 259.316 228.337 259.152 228.463 259.026C228.598 258.9 228.749 258.807 228.917 258.748C229.094 258.689 229.275 258.66 229.46 258.66C229.62 258.66 229.78 258.689 229.94 258.748C230.108 258.799 230.297 258.921 230.508 259.114L235.682 263.759V258.799H238.068V265.791C238.068 266.068 238.026 266.308 237.942 266.51C237.866 266.712 237.761 266.88 237.626 267.015C237.5 267.141 237.348 267.234 237.172 267.293C236.995 267.352 236.814 267.381 236.629 267.381ZM244.821 261.967H250.223V267.242H244.43C243.698 267.242 243.02 267.133 242.398 266.914C241.775 266.695 241.236 266.397 240.782 266.018C240.336 265.631 239.983 265.177 239.722 264.655C239.469 264.125 239.343 263.553 239.343 262.938C239.343 262.324 239.469 261.765 239.722 261.26C239.983 260.747 240.336 260.309 240.782 259.947C241.236 259.577 241.775 259.295 242.398 259.102C243.02 258.9 243.698 258.799 244.43 258.799H250.475L248.784 260.995H244.43C244.076 260.995 243.748 261.045 243.445 261.146C243.142 261.247 242.877 261.39 242.65 261.575C242.431 261.76 242.259 261.979 242.133 262.232C242.006 262.476 241.943 262.749 241.943 263.052C241.943 263.355 242.002 263.633 242.12 263.885C242.246 264.129 242.419 264.339 242.637 264.516C242.865 264.693 243.13 264.832 243.432 264.933C243.735 265.025 244.068 265.071 244.43 265.071H247.623V263.847H243.256L244.821 261.967ZM254.375 267.242H251.762V258.799H254.375V267.242ZM266.489 258.799L264.798 260.995H261.781V267.242H259.169V260.995H255.206L256.897 258.799H266.489ZM278.246 263.557C278.246 266.106 276.492 267.381 272.983 267.381C271.965 267.381 271.09 267.301 270.358 267.141C269.626 266.981 269.02 266.742 268.541 266.422C268.07 266.102 267.72 265.707 267.493 265.235C267.274 264.756 267.165 264.196 267.165 263.557V258.799H269.765V263.557C269.765 263.868 269.807 264.129 269.891 264.339C269.975 264.55 270.131 264.722 270.358 264.857C270.594 264.983 270.922 265.076 271.343 265.134C271.763 265.185 272.31 265.21 272.983 265.21C273.488 265.21 273.909 265.181 274.245 265.122C274.582 265.063 274.851 264.966 275.053 264.832C275.255 264.697 275.398 264.524 275.482 264.314C275.575 264.104 275.621 263.851 275.621 263.557V258.799H278.246V263.557ZM290.468 262.938C290.468 263.553 290.337 264.125 290.076 264.655C289.824 265.177 289.471 265.631 289.016 266.018C288.57 266.397 288.036 266.695 287.413 266.914C286.791 267.133 286.113 267.242 285.381 267.242H279.727V261.979H282.352V265.071H285.381C285.743 265.071 286.076 265.025 286.378 264.933C286.69 264.832 286.955 264.693 287.174 264.516C287.392 264.339 287.565 264.129 287.691 263.885C287.817 263.633 287.88 263.355 287.88 263.052C287.88 262.757 287.817 262.484 287.691 262.232C287.565 261.979 287.388 261.765 287.161 261.588C286.934 261.403 286.669 261.26 286.366 261.159C286.063 261.049 285.735 260.995 285.381 260.995H279.727L281.393 258.799H285.381C286.122 258.799 286.803 258.9 287.426 259.102C288.049 259.304 288.583 259.59 289.029 259.96C289.483 260.322 289.837 260.759 290.089 261.272C290.342 261.777 290.468 262.333 290.468 262.938ZM301.6 265.071L299.922 267.242H291.794V258.799H301.575L299.884 260.995H294.419V262.004H301.108L299.606 263.923H294.419V265.071H301.6ZM302.555 266.169C302.555 265.774 302.69 265.471 302.959 265.261C303.237 265.042 303.577 264.933 303.981 264.933C304.377 264.933 304.709 265.042 304.978 265.261C305.256 265.471 305.395 265.774 305.395 266.169C305.395 266.556 305.256 266.855 304.978 267.065C304.709 267.276 304.377 267.381 303.981 267.381C303.577 267.381 303.237 267.276 302.959 267.065C302.69 266.855 302.555 266.556 302.555 266.169ZM302.555 262.08C302.555 261.693 302.69 261.394 302.959 261.184C303.237 260.965 303.577 260.856 303.981 260.856C304.377 260.856 304.709 260.965 304.978 261.184C305.256 261.394 305.395 261.693 305.395 262.08C305.395 262.476 305.256 262.779 304.978 262.989C304.709 263.199 304.377 263.304 303.981 263.304C303.577 263.304 303.237 263.199 302.959 262.989C302.69 262.779 302.555 262.476 302.555 262.08ZM312.904 258.799H315.996V267.242H313.384V260.995H311.326L312.904 258.799ZM327.334 258.799L325.642 260.995H320.367V262.169H324.469C325.495 262.169 326.278 262.362 326.816 262.749C327.355 263.128 327.624 263.704 327.624 264.478C327.624 265.345 327.342 266.022 326.778 266.51C326.215 266.998 325.293 267.242 324.014 267.242H317.338L319.016 265.071H324.216C324.519 265.071 324.742 265.025 324.885 264.933C325.037 264.832 325.112 264.672 325.112 264.453C325.112 264.234 325.037 264.078 324.885 263.986C324.742 263.893 324.519 263.847 324.216 263.847H317.779V258.799H327.334ZM339.203 267.242H336.603V263.986H331.58V267.242H328.954V258.799H331.58V261.79H336.603V258.799H339.203V267.242ZM346.577 258.799H349.669V267.242H347.056V260.995H344.999L346.577 258.799ZM355.971 260.995C355.449 260.995 354.99 261.1 354.595 261.31C354.199 261.521 353.905 261.807 353.711 262.169H359.05C360.009 262.169 360.775 262.366 361.347 262.762C361.919 263.157 362.205 263.738 362.205 264.503C362.205 265.084 362.058 265.564 361.764 265.942C361.469 266.312 361.078 266.607 360.59 266.826C360.102 267.036 359.538 267.179 358.899 267.255C358.268 267.339 357.611 267.381 356.93 267.381C354.986 267.381 353.514 267.028 352.512 266.321C351.511 265.606 351.01 264.478 351.01 262.938C351.01 262.324 351.137 261.765 351.389 261.26C351.65 260.747 352.003 260.309 352.449 259.947C352.904 259.577 353.442 259.295 354.065 259.102C354.687 258.9 355.365 258.799 356.097 258.799H361.536L359.858 260.995H355.971ZM353.711 263.847C353.787 264.125 353.913 264.352 354.09 264.529C354.267 264.705 354.494 264.844 354.772 264.945C355.049 265.038 355.377 265.101 355.756 265.134C356.143 265.168 356.585 265.185 357.081 265.185C357.62 265.185 358.061 265.168 358.406 265.134C358.76 265.101 359.033 265.055 359.227 264.996C359.42 264.928 359.555 264.848 359.631 264.756C359.706 264.655 359.744 264.545 359.744 264.428C359.744 264.041 359.446 263.847 358.848 263.847H353.711ZM369.358 261.941C369.543 262.269 369.703 262.56 369.837 262.812C369.98 263.056 370.102 263.275 370.203 263.468C370.313 263.662 370.405 263.839 370.481 263.999C370.565 264.158 370.645 264.314 370.721 264.466C370.788 264.314 370.86 264.163 370.935 264.011C371.02 263.851 371.112 263.675 371.213 263.481C371.323 263.279 371.445 263.056 371.579 262.812C371.722 262.568 371.886 262.282 372.071 261.954L373.422 259.556C373.573 259.287 373.763 259.072 373.99 258.912C374.225 258.744 374.516 258.66 374.861 258.66C375.189 258.66 375.483 258.757 375.744 258.95C376.013 259.135 376.207 259.426 376.325 259.821L378.458 267.242H375.858L375.063 264.301C374.928 263.822 374.814 263.401 374.722 263.039C374.629 262.678 374.549 262.324 374.482 261.979C374.339 262.274 374.179 262.602 374.002 262.964C373.826 263.317 373.594 263.767 373.308 264.314L372.172 266.434C372.063 266.645 371.949 266.813 371.832 266.939C371.722 267.057 371.609 267.15 371.491 267.217C371.373 267.284 371.247 267.326 371.112 267.343C370.978 267.368 370.83 267.381 370.67 267.381C370.511 267.381 370.363 267.368 370.229 267.343C370.094 267.326 369.968 267.284 369.85 267.217C369.732 267.15 369.614 267.057 369.497 266.939C369.387 266.813 369.278 266.645 369.168 266.434L368.033 264.301C367.881 264.015 367.747 263.759 367.629 263.532C367.511 263.304 367.402 263.102 367.301 262.926C367.208 262.741 367.124 262.572 367.048 262.421C366.981 262.269 366.914 262.122 366.846 261.979C366.779 262.316 366.699 262.669 366.606 263.039C366.514 263.401 366.404 263.822 366.278 264.301L365.483 267.242H362.921L365.105 259.821C365.222 259.426 365.416 259.135 365.685 258.95C365.954 258.757 366.253 258.66 366.581 258.66C366.918 258.66 367.2 258.74 367.427 258.9C367.662 259.06 367.856 259.278 368.007 259.556L369.358 261.941ZM385.079 266.232C384.885 266.232 384.708 266.203 384.549 266.144C384.397 266.077 384.267 265.993 384.157 265.892C384.048 265.782 383.964 265.66 383.905 265.526C383.846 265.391 383.817 265.248 383.817 265.097C383.817 264.92 383.859 264.743 383.943 264.567C384.027 264.39 384.166 264.222 384.359 264.062L390.455 259.114C390.666 258.946 390.876 258.828 391.086 258.761C391.305 258.693 391.49 258.66 391.642 258.66C391.827 258.66 392.008 258.689 392.184 258.748C392.361 258.807 392.513 258.9 392.639 259.026C392.773 259.152 392.879 259.316 392.954 259.518C393.038 259.72 393.08 259.96 393.08 260.237V264.163H395.491L393.964 266.232H393.08V267.242H390.581V266.232H385.079ZM390.581 262.901C390.581 262.648 390.586 262.438 390.594 262.269C390.603 262.101 390.615 261.946 390.632 261.802C390.43 262.004 390.123 262.274 389.711 262.61L388.777 263.355C388.541 263.548 388.331 263.717 388.146 263.86C387.969 263.994 387.801 264.112 387.641 264.213C387.817 264.196 388.024 264.184 388.259 264.175C388.495 264.167 388.768 264.163 389.08 264.163H390.581V262.901ZM397.194 266.232C397.001 266.232 396.824 266.203 396.664 266.144C396.513 266.077 396.382 265.993 396.273 265.892C396.164 265.782 396.08 265.66 396.021 265.526C395.962 265.391 395.932 265.248 395.932 265.097C395.932 264.92 395.974 264.743 396.059 264.567C396.143 264.39 396.282 264.222 396.475 264.062L402.571 259.114C402.781 258.946 402.992 258.828 403.202 258.761C403.421 258.693 403.606 258.66 403.757 258.66C403.943 258.66 404.123 258.689 404.3 258.748C404.477 258.807 404.628 258.9 404.754 259.026C404.889 259.152 404.994 259.316 405.07 259.518C405.154 259.72 405.196 259.96 405.196 260.237V264.163H407.607L406.08 266.232H405.196V267.242H402.697V266.232H397.194ZM402.697 262.901C402.697 262.648 402.701 262.438 402.71 262.269C402.718 262.101 402.731 261.946 402.748 261.802C402.546 262.004 402.239 262.274 401.826 262.61L400.892 263.355C400.657 263.548 400.446 263.717 400.261 263.86C400.085 263.994 399.916 264.112 399.757 264.213C399.933 264.196 400.139 264.184 400.375 264.175C400.611 264.167 400.884 264.163 401.195 264.163H402.697V262.901ZM416.302 262.169C417.337 262.169 418.124 262.362 418.662 262.749C419.201 263.128 419.47 263.704 419.47 264.478C419.47 264.907 419.403 265.294 419.268 265.639C419.134 265.984 418.919 266.275 418.625 266.51C418.33 266.746 417.951 266.927 417.489 267.053C417.034 267.179 416.487 267.242 415.848 267.242H407.985L409.664 265.071H416.05C416.361 265.071 416.588 265.025 416.731 264.933C416.874 264.832 416.946 264.672 416.946 264.453C416.946 264.234 416.874 264.078 416.731 263.986C416.588 263.893 416.361 263.847 416.05 263.847H411.456C410.909 263.847 410.438 263.788 410.042 263.67C409.647 263.553 409.319 263.389 409.058 263.178C408.797 262.968 408.603 262.715 408.477 262.421C408.351 262.118 408.288 261.786 408.288 261.424C408.288 261.028 408.355 260.671 408.49 260.351C408.633 260.023 408.847 259.745 409.134 259.518C409.428 259.291 409.802 259.114 410.257 258.988C410.72 258.862 411.271 258.799 411.91 258.799H419.243L417.564 260.995H411.708C411.405 260.995 411.178 261.037 411.027 261.121C410.884 261.205 410.812 261.357 410.812 261.575C410.812 261.794 410.884 261.95 411.027 262.042C411.178 262.126 411.405 262.169 411.708 262.169H416.302Z" fill="white"/>
<path d="M163.202 316.783L161.511 318.954H154.051V310.51H156.664V316.783H163.202ZM166.722 318.954H164.11V310.51H166.722V318.954ZM177.878 314.612C178.248 314.721 178.559 314.936 178.812 315.256C179.073 315.575 179.203 315.988 179.203 316.493C179.203 316.846 179.148 317.174 179.039 317.477C178.93 317.772 178.744 318.028 178.484 318.247C178.223 318.466 177.869 318.638 177.423 318.764C176.986 318.891 176.435 318.954 175.77 318.954H168.349V313.817H175.821C176.014 313.817 176.182 313.779 176.325 313.703C176.477 313.619 176.553 313.468 176.553 313.249C176.553 313.039 176.477 312.896 176.325 312.82C176.174 312.744 176.006 312.706 175.821 312.706H168.349L170.116 310.51H175.707C176.212 310.51 176.666 310.561 177.07 310.662C177.482 310.754 177.831 310.901 178.118 311.103C178.412 311.297 178.635 311.541 178.786 311.835C178.946 312.122 179.026 312.458 179.026 312.845C179.026 313.098 178.993 313.321 178.925 313.514C178.858 313.708 178.77 313.88 178.66 314.032C178.559 314.175 178.437 314.297 178.294 314.398C178.16 314.49 178.021 314.562 177.878 314.612ZM170.974 315.622V316.783H175.783C176.069 316.783 176.275 316.732 176.401 316.631C176.527 316.53 176.59 316.383 176.59 316.19C176.59 316.005 176.527 315.866 176.401 315.773C176.275 315.672 176.069 315.622 175.783 315.622H170.974ZM192.491 318.954H188.995L187.115 316.72H183.101V318.954H180.489V314.637H187.834C188.238 314.637 188.579 314.553 188.856 314.385C189.134 314.217 189.273 313.985 189.273 313.691C189.273 313.363 189.147 313.119 188.894 312.959C188.642 312.79 188.288 312.706 187.834 312.706H180.489L182.193 310.51H187.62C188.099 310.51 188.596 310.556 189.109 310.649C189.622 310.733 190.089 310.889 190.51 311.116C190.931 311.343 191.275 311.65 191.545 312.037C191.822 312.424 191.961 312.921 191.961 313.527C191.961 313.855 191.911 314.166 191.81 314.461C191.709 314.755 191.562 315.02 191.368 315.256C191.183 315.491 190.952 315.693 190.674 315.862C190.405 316.021 190.098 316.135 189.753 316.202C189.896 316.312 190.055 316.451 190.232 316.619C190.409 316.787 190.644 317.018 190.939 317.313L192.491 318.954ZM197.003 318.954L198.58 316.783H200.701C200.953 316.783 201.214 316.783 201.483 316.783C201.761 316.783 202.001 316.791 202.202 316.808C202.085 316.657 201.946 316.467 201.786 316.24C201.635 316.005 201.487 315.786 201.344 315.584L199.83 313.35L195.867 318.954H192.775L198.189 311.318C198.366 311.074 198.589 310.855 198.858 310.662C199.127 310.468 199.468 310.371 199.88 310.371C200.276 310.371 200.604 310.464 200.865 310.649C201.134 310.826 201.361 311.049 201.546 311.318L206.822 318.954H197.003Z" fill="white"/>
<path d="M159.387 339.11L158.112 340.738H153.896L155.171 339.11H159.387ZM161.291 335.752H164.383V344.196H161.77V337.948H159.713L161.291 335.752ZM166.822 343.186C166.629 343.186 166.452 343.157 166.292 343.098C166.141 343.031 166.01 342.946 165.901 342.845C165.792 342.736 165.707 342.614 165.649 342.479C165.59 342.345 165.56 342.202 165.56 342.05C165.56 341.874 165.602 341.697 165.686 341.52C165.771 341.344 165.909 341.175 166.103 341.015L172.199 336.068C172.409 335.9 172.62 335.782 172.83 335.715C173.049 335.647 173.234 335.614 173.385 335.614C173.57 335.614 173.751 335.643 173.928 335.702C174.105 335.761 174.256 335.853 174.382 335.98C174.517 336.106 174.622 336.27 174.698 336.472C174.782 336.674 174.824 336.914 174.824 337.191V341.116H177.235L175.708 343.186H174.824V344.196H172.325V343.186H166.822ZM172.325 339.854C172.325 339.602 172.329 339.391 172.338 339.223C172.346 339.055 172.359 338.899 172.376 338.756C172.174 338.958 171.867 339.227 171.454 339.564L170.52 340.309C170.285 340.502 170.074 340.67 169.889 340.813C169.713 340.948 169.544 341.066 169.384 341.167C169.561 341.15 169.767 341.137 170.003 341.129C170.238 341.121 170.512 341.116 170.823 341.116H172.325V339.854ZM179.834 336.636C179.228 336.636 178.925 336.939 178.925 337.545C178.925 338.15 179.228 338.453 179.834 338.453C180.448 338.453 180.756 338.159 180.756 337.57C180.756 336.947 180.448 336.636 179.834 336.636ZM179.834 335.614C181.122 335.614 181.765 336.257 181.765 337.545C181.765 338.832 181.122 339.476 179.834 339.476C178.547 339.476 177.903 338.832 177.903 337.545C177.903 336.257 178.547 335.614 179.834 335.614ZM197.647 335.752L195.956 337.948H190.68V339.122H194.782C195.808 339.122 196.591 339.316 197.129 339.703C197.668 340.081 197.937 340.658 197.937 341.432C197.937 342.299 197.655 342.976 197.092 343.464C196.528 343.952 195.607 344.196 194.328 344.196H187.651L189.33 342.025H194.53C194.832 342.025 195.055 341.979 195.198 341.886C195.35 341.785 195.426 341.625 195.426 341.407C195.426 341.188 195.35 341.032 195.198 340.94C195.055 340.847 194.832 340.801 194.53 340.801H188.093V335.752H197.647ZM201.022 335.752L200.252 339.135H199.457L198.687 335.752H201.022ZM208.703 335.752H213.65C214.29 335.752 214.837 335.816 215.291 335.942C215.754 336.068 216.128 336.245 216.414 336.472C216.709 336.699 216.923 336.977 217.058 337.305C217.201 337.625 217.272 337.982 217.272 338.378C217.272 338.739 217.209 339.072 217.083 339.375C216.957 339.669 216.763 339.922 216.503 340.132C216.242 340.342 215.909 340.506 215.505 340.624C215.11 340.742 214.643 340.801 214.105 340.801H210.091C209.788 340.801 209.561 340.847 209.409 340.94C209.266 341.032 209.195 341.188 209.195 341.407V342.025H217.336L215.657 344.196H206.671V341.432C206.671 340.658 206.94 340.081 207.478 339.703C208.017 339.316 208.804 339.122 209.839 339.122H213.852C214.155 339.122 214.378 339.08 214.521 338.996C214.672 338.903 214.748 338.748 214.748 338.529C214.748 338.31 214.672 338.159 214.521 338.075C214.378 337.991 214.155 337.948 213.852 337.948H207.024L208.703 335.752ZM222.581 344.196H219.286L223.426 339.539C223.645 339.295 223.83 339.084 223.981 338.908C224.141 338.731 224.28 338.58 224.398 338.453C224.524 338.327 224.629 338.222 224.713 338.138C224.806 338.045 224.894 337.961 224.979 337.885C224.861 337.894 224.73 337.902 224.587 337.911C224.453 337.919 224.293 337.927 224.108 337.936C223.923 337.936 223.704 337.94 223.451 337.948C223.207 337.948 222.921 337.948 222.593 337.948H218.012L219.678 335.752H226.973C227.452 335.752 227.81 335.866 228.045 336.093C228.289 336.312 228.411 336.573 228.411 336.876C228.411 337.027 228.378 337.183 228.31 337.343C228.252 337.503 228.146 337.671 227.995 337.848L222.581 344.196ZM231.071 335.752L230.301 339.135H229.506L228.736 335.752H231.071ZM233.936 335.752L233.166 339.135H232.371L231.601 335.752H233.936Z" fill="white"/>
<path d="M33.1719 339.892C33.1719 340.506 33.0415 341.079 32.7807 341.609C32.5282 342.13 32.1749 342.585 31.7205 342.972C31.2745 343.35 30.7403 343.649 30.1176 343.868C29.495 344.087 28.8176 344.196 28.0856 344.196H22.4314V338.933H25.0566V342.025H28.0856C28.4474 342.025 28.7798 341.979 29.0827 341.886C29.394 341.785 29.659 341.646 29.8778 341.47C30.0966 341.293 30.2691 341.083 30.3953 340.839C30.5215 340.586 30.5846 340.309 30.5846 340.006C30.5846 339.711 30.5215 339.438 30.3953 339.185C30.2691 338.933 30.0924 338.718 29.8652 338.542C29.638 338.357 29.373 338.214 29.0701 338.113C28.7672 338.003 28.439 337.948 28.0856 337.948H22.4314L24.0973 335.752H28.0856C28.8261 335.752 29.5076 335.853 30.1302 336.055C30.7529 336.257 31.2872 336.543 31.7331 336.914C32.1875 337.275 32.5409 337.713 32.7933 338.226C33.0457 338.731 33.1719 339.286 33.1719 339.892ZM44.3044 342.025L42.6258 344.196H34.4978V335.752H44.2792L42.588 337.948H37.123V338.958H43.8122L42.3103 340.877H37.123V342.025H44.3044ZM55.9367 342.025L54.2581 344.196H50.0175C49.2854 344.196 48.6081 344.087 47.9855 343.868C47.3628 343.649 46.8243 343.35 46.37 342.972C45.924 342.585 45.5706 342.13 45.3098 341.609C45.0574 341.079 44.9311 340.506 44.9311 339.892C44.9311 339.278 45.0574 338.718 45.3098 338.214C45.5706 337.7 45.924 337.263 46.37 336.901C46.8243 336.531 47.3628 336.249 47.9855 336.055C48.6081 335.853 49.2854 335.752 50.0175 335.752H55.9367L54.2581 337.948H50.0175C49.6641 337.948 49.3359 337.999 49.033 338.1C48.7301 338.201 48.4693 338.344 48.2505 338.529C48.0317 338.706 47.8592 338.92 47.733 339.173C47.6068 339.425 47.5437 339.703 47.5437 340.006C47.5437 340.309 47.6026 340.586 47.7204 340.839C47.8466 341.083 48.0191 341.293 48.2379 341.47C48.4651 341.646 48.7301 341.785 49.033 341.886C49.3359 341.979 49.6641 342.025 50.0175 342.025H55.9367ZM65.9939 342.025L64.3027 344.196H56.8436V335.752H59.4562V342.025H65.9939ZM69.5145 344.196H66.9019V335.752H69.5145V344.196ZM79.6981 344.335C79.5298 344.335 79.3615 344.305 79.1932 344.246C79.0333 344.196 78.8524 344.074 78.6505 343.88L73.4758 339.236V344.196H71.1031V337.191C71.1031 336.914 71.1409 336.674 71.2167 336.472C71.3008 336.27 71.406 336.106 71.5322 335.98C71.6668 335.853 71.8183 335.761 71.9866 335.702C72.1632 335.643 72.3442 335.614 72.5293 335.614C72.6891 335.614 72.849 335.643 73.0089 335.702C73.1771 335.752 73.3665 335.874 73.5768 336.068L78.7515 340.712V335.752H81.1369V342.744C81.1369 343.022 81.0948 343.262 81.0106 343.464C80.9349 343.666 80.8297 343.834 80.6951 343.969C80.5689 344.095 80.4175 344.188 80.2408 344.246C80.0641 344.305 79.8832 344.335 79.6981 344.335ZM86.2492 344.196L87.8268 342.025H89.9472C90.1996 342.025 90.4604 342.025 90.7297 342.025C91.0074 342.025 91.2472 342.034 91.4491 342.05C91.3313 341.899 91.1925 341.71 91.0326 341.482C90.8811 341.247 90.7339 341.028 90.5909 340.826L89.0763 338.592L85.1133 344.196H82.0211L87.4356 336.56C87.6123 336.316 87.8352 336.097 88.1045 335.904C88.3737 335.71 88.7145 335.614 89.1268 335.614C89.5223 335.614 89.8504 335.706 90.1113 335.891C90.3805 336.068 90.6077 336.291 90.7928 336.56L96.0684 344.196H86.2492ZM107.488 335.752L105.796 337.948H102.78V344.196H100.167V337.948H96.2043L97.8955 335.752H107.488ZM110.928 344.196H108.315V335.752H110.928V344.196ZM118.461 335.614C120.514 335.614 122.053 335.963 123.08 336.661C124.115 337.359 124.632 338.462 124.632 339.968C124.632 341.482 124.119 342.589 123.093 343.287C122.066 343.986 120.522 344.335 118.461 344.335C116.391 344.335 114.843 343.986 113.816 343.287C112.798 342.589 112.289 341.482 112.289 339.968C112.289 338.462 112.802 337.359 113.829 336.661C114.855 335.963 116.399 335.614 118.461 335.614ZM118.461 342.139C119.117 342.139 119.672 342.113 120.127 342.063C120.581 342.004 120.947 341.895 121.225 341.735C121.511 341.575 121.717 341.356 121.843 341.079C121.969 340.792 122.032 340.422 122.032 339.968C122.032 339.513 121.969 339.147 121.843 338.87C121.717 338.584 121.511 338.365 121.225 338.214C120.947 338.054 120.581 337.948 120.127 337.898C119.672 337.839 119.117 337.81 118.461 337.81C117.804 337.81 117.249 337.839 116.795 337.898C116.34 337.948 115.97 338.054 115.684 338.214C115.406 338.365 115.204 338.584 115.078 338.87C114.952 339.147 114.889 339.513 114.889 339.968C114.889 340.422 114.952 340.792 115.078 341.079C115.204 341.356 115.406 341.575 115.684 341.735C115.97 341.895 116.34 342.004 116.795 342.063C117.249 342.113 117.804 342.139 118.461 342.139ZM134.509 344.335C134.34 344.335 134.172 344.305 134.004 344.246C133.844 344.196 133.663 344.074 133.461 343.88L128.286 339.236V344.196H125.914V337.191C125.914 336.914 125.952 336.674 126.027 336.472C126.111 336.27 126.217 336.106 126.343 335.98C126.477 335.853 126.629 335.761 126.797 335.702C126.974 335.643 127.155 335.614 127.34 335.614C127.5 335.614 127.66 335.643 127.819 335.702C127.988 335.752 128.177 335.874 128.387 336.068L133.562 340.712V335.752H135.947V342.744C135.947 343.022 135.905 343.262 135.821 343.464C135.746 343.666 135.64 343.834 135.506 343.969C135.38 344.095 135.228 344.188 135.051 344.246C134.875 344.305 134.694 344.335 134.509 344.335ZM142.383 343.123C142.383 342.728 142.517 342.425 142.787 342.214C143.064 341.996 143.405 341.886 143.809 341.886C144.204 341.886 144.537 341.996 144.806 342.214C145.084 342.425 145.222 342.728 145.222 343.123C145.222 343.51 145.084 343.809 144.806 344.019C144.537 344.23 144.204 344.335 143.809 344.335C143.405 344.335 143.064 344.23 142.787 344.019C142.517 343.809 142.383 343.51 142.383 343.123ZM142.383 339.034C142.383 338.647 142.517 338.348 142.787 338.138C143.064 337.919 143.405 337.81 143.809 337.81C144.204 337.81 144.537 337.919 144.806 338.138C145.084 338.348 145.222 338.647 145.222 339.034C145.222 339.429 145.084 339.732 144.806 339.943C144.537 340.153 144.204 340.258 143.809 340.258C143.405 340.258 143.064 340.153 142.787 339.943C142.517 339.732 142.383 339.429 142.383 339.034Z" fill="#FF9C00"/>
<circle cx="2.70452" cy="289.825" r="2.70452" fill="white"/>
<circle cx="2.70452" cy="223.114" r="2.70452" fill="white"/>
<circle cx="2.70452" cy="248.356" r="2.70452" fill="white"/>
<circle cx="2.70452" cy="315.067" r="2.70452" fill="white"/>
<circle cx="2.70452" cy="340.31" r="2.70452" fill="white"/>
</svg>
