<svg width="516" height="512" viewBox="0 0 516 512" fill="none" xmlns="http://www.w3.org/2000/svg">
<path d="M364.647 372.12C364.852 372.484 365.03 372.806 365.179 373.086C365.338 373.357 365.473 373.599 365.585 373.814C365.706 374.029 365.809 374.225 365.893 374.402C365.986 374.579 366.075 374.752 366.159 374.92C366.234 374.752 366.313 374.584 366.397 374.416C366.49 374.239 366.593 374.043 366.705 373.828C366.826 373.604 366.962 373.357 367.111 373.086C367.27 372.815 367.452 372.498 367.657 372.134L369.155 369.474C369.323 369.175 369.533 368.937 369.785 368.76C370.046 368.573 370.368 368.48 370.751 368.48C371.115 368.48 371.442 368.587 371.731 368.802C372.03 369.007 372.244 369.329 372.375 369.768L374.741 378H371.857L370.975 374.738C370.826 374.206 370.7 373.739 370.597 373.338C370.494 372.937 370.406 372.545 370.331 372.162C370.172 372.489 369.995 372.853 369.799 373.254C369.603 373.646 369.346 374.145 369.029 374.752L367.769 377.104C367.648 377.337 367.522 377.524 367.391 377.664C367.27 377.795 367.144 377.897 367.013 377.972C366.882 378.047 366.742 378.093 366.593 378.112C366.444 378.14 366.28 378.154 366.103 378.154C365.926 378.154 365.762 378.14 365.613 378.112C365.464 378.093 365.324 378.047 365.193 377.972C365.062 377.897 364.932 377.795 364.801 377.664C364.68 377.524 364.558 377.337 364.437 377.104L363.177 374.738C363.009 374.421 362.86 374.136 362.729 373.884C362.598 373.632 362.477 373.408 362.365 373.212C362.262 373.007 362.169 372.82 362.085 372.652C362.01 372.484 361.936 372.321 361.861 372.162C361.786 372.535 361.698 372.927 361.595 373.338C361.492 373.739 361.371 374.206 361.231 374.738L360.349 378H357.507L359.929 369.768C360.06 369.329 360.274 369.007 360.573 368.802C360.872 368.587 361.203 368.48 361.567 368.48C361.94 368.48 362.253 368.569 362.505 368.746C362.766 368.923 362.981 369.166 363.149 369.474L364.647 372.12ZM381.22 372.358L379.806 374.164H375.13L376.544 372.358H381.22ZM392.741 368.634L390.865 371.07H387.519V378H384.621V371.07H380.225L382.101 368.634H392.741ZM398.842 368.48C401.12 368.48 402.828 368.867 403.966 369.642C405.114 370.417 405.688 371.639 405.688 373.31C405.688 374.99 405.119 376.217 403.98 376.992C402.842 377.767 401.129 378.154 398.842 378.154C396.546 378.154 394.829 377.767 393.69 376.992C392.561 376.217 391.996 374.99 391.996 373.31C391.996 371.639 392.566 370.417 393.704 369.642C394.843 368.867 396.556 368.48 398.842 368.48ZM398.842 375.718C399.57 375.718 400.186 375.69 400.69 375.634C401.194 375.569 401.6 375.447 401.908 375.27C402.226 375.093 402.454 374.85 402.594 374.542C402.734 374.225 402.804 373.814 402.804 373.31C402.804 372.806 402.734 372.4 402.594 372.092C402.454 371.775 402.226 371.532 401.908 371.364C401.6 371.187 401.194 371.07 400.69 371.014C400.186 370.949 399.57 370.916 398.842 370.916C398.114 370.916 397.498 370.949 396.994 371.014C396.49 371.07 396.08 371.187 395.762 371.364C395.454 371.532 395.23 371.775 395.09 372.092C394.95 372.4 394.88 372.806 394.88 373.31C394.88 373.814 394.95 374.225 395.09 374.542C395.23 374.85 395.454 375.093 395.762 375.27C396.08 375.447 396.49 375.569 396.994 375.634C397.498 375.69 398.114 375.718 398.842 375.718ZM418.968 378H414.586L411.758 375.536C411.272 375.116 410.899 374.789 410.638 374.556C410.386 374.323 410.18 374.127 410.022 373.968C410.031 374.183 410.04 374.407 410.05 374.64C410.059 374.864 410.064 375.088 410.064 375.312V378H407.152V368.634H410.064V370.804C410.064 371.093 410.059 371.378 410.05 371.658C410.04 371.938 410.026 372.199 410.008 372.442C410.194 372.274 410.418 372.069 410.68 371.826C410.95 371.574 411.3 371.271 411.73 370.916L414.432 368.634H418.632L415.048 371.322C414.74 371.555 414.464 371.761 414.222 371.938C413.988 372.115 413.778 372.269 413.592 372.4C413.405 372.531 413.232 372.647 413.074 372.75C412.924 372.853 412.775 372.951 412.626 373.044C412.896 373.231 413.223 373.464 413.606 373.744C413.988 374.024 414.483 374.411 415.09 374.906L418.968 378ZM430.799 375.592L428.937 378H419.921V368.634H430.771L428.895 371.07H422.833V372.19H430.253L428.587 374.318H422.833V375.592H430.799ZM441.28 378.154C441.094 378.154 440.907 378.121 440.72 378.056C440.543 378 440.342 377.865 440.118 377.65L434.378 372.498V378H431.746V370.23C431.746 369.922 431.788 369.656 431.872 369.432C431.966 369.208 432.082 369.026 432.222 368.886C432.372 368.746 432.54 368.643 432.726 368.578C432.922 368.513 433.123 368.48 433.328 368.48C433.506 368.48 433.683 368.513 433.86 368.578C434.047 368.634 434.257 368.769 434.49 368.984L440.23 374.136V368.634H442.876V376.39C442.876 376.698 442.83 376.964 442.736 377.188C442.652 377.412 442.536 377.599 442.386 377.748C442.246 377.888 442.078 377.991 441.882 378.056C441.686 378.121 441.486 378.154 441.28 378.154Z" fill="white"/>
<path d="M377.35 129.12C377.555 129.484 377.733 129.806 377.882 130.086C378.041 130.357 378.176 130.599 378.288 130.814C378.409 131.029 378.512 131.225 378.596 131.402C378.689 131.579 378.778 131.752 378.862 131.92C378.937 131.752 379.016 131.584 379.1 131.416C379.193 131.239 379.296 131.043 379.408 130.828C379.529 130.604 379.665 130.357 379.814 130.086C379.973 129.815 380.155 129.498 380.36 129.134L381.858 126.474C382.026 126.175 382.236 125.937 382.488 125.76C382.749 125.573 383.071 125.48 383.454 125.48C383.818 125.48 384.145 125.587 384.434 125.802C384.733 126.007 384.947 126.329 385.078 126.768L387.444 135H384.56L383.678 131.738C383.529 131.206 383.403 130.739 383.3 130.338C383.197 129.937 383.109 129.545 383.034 129.162C382.875 129.489 382.698 129.853 382.502 130.254C382.306 130.646 382.049 131.145 381.732 131.752L380.472 134.104C380.351 134.337 380.225 134.524 380.094 134.664C379.973 134.795 379.847 134.897 379.716 134.972C379.585 135.047 379.445 135.093 379.296 135.112C379.147 135.14 378.983 135.154 378.806 135.154C378.629 135.154 378.465 135.14 378.316 135.112C378.167 135.093 378.027 135.047 377.896 134.972C377.765 134.897 377.635 134.795 377.504 134.664C377.383 134.524 377.261 134.337 377.14 134.104L375.88 131.738C375.712 131.421 375.563 131.136 375.432 130.884C375.301 130.632 375.18 130.408 375.068 130.212C374.965 130.007 374.872 129.82 374.788 129.652C374.713 129.484 374.639 129.321 374.564 129.162C374.489 129.535 374.401 129.927 374.298 130.338C374.195 130.739 374.074 131.206 373.934 131.738L373.052 135H370.21L372.632 126.768C372.763 126.329 372.977 126.007 373.276 125.802C373.575 125.587 373.906 125.48 374.27 125.48C374.643 125.48 374.956 125.569 375.208 125.746C375.469 125.923 375.684 126.166 375.852 126.474L377.35 129.12ZM391.445 135H388.547V125.634H391.445V135ZM402.741 135.154C402.555 135.154 402.368 135.121 402.181 135.056C402.004 135 401.803 134.865 401.579 134.65L395.839 129.498V135H393.207V127.23C393.207 126.922 393.249 126.656 393.333 126.432C393.427 126.208 393.543 126.026 393.683 125.886C393.833 125.746 394.001 125.643 394.187 125.578C394.383 125.513 394.584 125.48 394.789 125.48C394.967 125.48 395.144 125.513 395.321 125.578C395.508 125.634 395.718 125.769 395.951 125.984L401.691 131.136V125.634H404.337V133.39C404.337 133.698 404.291 133.964 404.197 134.188C404.113 134.412 403.997 134.599 403.847 134.748C403.707 134.888 403.539 134.991 403.343 135.056C403.147 135.121 402.947 135.154 402.741 135.154ZM408.986 135H406.088V125.634H408.986V135ZM420.282 135.154C420.096 135.154 419.909 135.121 419.722 135.056C419.545 135 419.344 134.865 419.12 134.65L413.38 129.498V135H410.748V127.23C410.748 126.922 410.79 126.656 410.874 126.432C410.968 126.208 411.084 126.026 411.224 125.886C411.374 125.746 411.542 125.643 411.728 125.578C411.924 125.513 412.125 125.48 412.33 125.48C412.508 125.48 412.685 125.513 412.862 125.578C413.049 125.634 413.259 125.769 413.492 125.984L419.232 131.136V125.634H421.878V133.39C421.878 133.698 421.832 133.964 421.738 134.188C421.654 134.412 421.538 134.599 421.388 134.748C421.248 134.888 421.08 134.991 420.884 135.056C420.688 135.121 420.488 135.154 420.282 135.154ZM429.369 129.148H435.361V135H428.935C428.123 135 427.372 134.879 426.681 134.636C425.99 134.393 425.393 134.062 424.889 133.642C424.394 133.213 424.002 132.709 423.713 132.13C423.433 131.542 423.293 130.907 423.293 130.226C423.293 129.545 423.433 128.924 423.713 128.364C424.002 127.795 424.394 127.309 424.889 126.908C425.393 126.497 425.99 126.185 426.681 125.97C427.372 125.746 428.123 125.634 428.935 125.634H435.641L433.765 128.07H428.935C428.543 128.07 428.179 128.126 427.843 128.238C427.507 128.35 427.213 128.509 426.961 128.714C426.718 128.919 426.527 129.162 426.387 129.442C426.247 129.713 426.177 130.016 426.177 130.352C426.177 130.688 426.242 130.996 426.373 131.276C426.513 131.547 426.704 131.78 426.947 131.976C427.199 132.172 427.493 132.326 427.829 132.438C428.165 132.541 428.534 132.592 428.935 132.592H432.477V131.234H427.633L429.369 129.148ZM451.066 129.372C452.214 129.372 453.087 129.587 453.684 130.016C454.281 130.436 454.58 131.075 454.58 131.934C454.58 132.41 454.505 132.839 454.356 133.222C454.207 133.605 453.969 133.927 453.642 134.188C453.315 134.449 452.895 134.65 452.382 134.79C451.878 134.93 451.271 135 450.562 135H441.84L443.702 132.592H450.786C451.131 132.592 451.383 132.541 451.542 132.438C451.701 132.326 451.78 132.149 451.78 131.906C451.78 131.663 451.701 131.491 451.542 131.388C451.383 131.285 451.131 131.234 450.786 131.234H445.69C445.083 131.234 444.561 131.169 444.122 131.038C443.683 130.907 443.319 130.725 443.03 130.492C442.741 130.259 442.526 129.979 442.386 129.652C442.246 129.316 442.176 128.947 442.176 128.546C442.176 128.107 442.251 127.711 442.4 127.356C442.559 126.992 442.797 126.684 443.114 126.432C443.441 126.18 443.856 125.984 444.36 125.844C444.873 125.704 445.485 125.634 446.194 125.634H454.328L452.466 128.07H445.97C445.634 128.07 445.382 128.117 445.214 128.21C445.055 128.303 444.976 128.471 444.976 128.714C444.976 128.957 445.055 129.129 445.214 129.232C445.382 129.325 445.634 129.372 445.97 129.372H451.066ZM473.588 129.148C473.588 129.671 473.485 130.147 473.28 130.576C473.074 130.996 472.771 131.355 472.37 131.654C471.978 131.953 471.497 132.186 470.928 132.354C470.358 132.522 469.71 132.606 468.982 132.606H464.082V135H461.198V130.212H469.262C469.71 130.212 470.055 130.114 470.298 129.918C470.55 129.722 470.676 129.461 470.676 129.134C470.676 128.807 470.55 128.551 470.298 128.364C470.055 128.168 469.71 128.07 469.262 128.07H461.198L463.116 125.634H468.996C469.724 125.634 470.372 125.723 470.942 125.9C471.511 126.068 471.992 126.306 472.384 126.614C472.776 126.922 473.074 127.291 473.28 127.72C473.485 128.149 473.588 128.625 473.588 129.148ZM481.614 125.48C483.891 125.48 485.599 125.867 486.738 126.642C487.886 127.417 488.46 128.639 488.46 130.31C488.46 131.99 487.89 133.217 486.752 133.992C485.613 134.767 483.9 135.154 481.614 135.154C479.318 135.154 477.6 134.767 476.462 133.992C475.332 133.217 474.768 131.99 474.768 130.31C474.768 128.639 475.337 127.417 476.476 126.642C477.614 125.867 479.327 125.48 481.614 125.48ZM481.614 132.718C482.342 132.718 482.958 132.69 483.462 132.634C483.966 132.569 484.372 132.447 484.68 132.27C484.997 132.093 485.226 131.85 485.366 131.542C485.506 131.225 485.576 130.814 485.576 130.31C485.576 129.806 485.506 129.4 485.366 129.092C485.226 128.775 484.997 128.532 484.68 128.364C484.372 128.187 483.966 128.07 483.462 128.014C482.958 127.949 482.342 127.916 481.614 127.916C480.886 127.916 480.27 127.949 479.766 128.014C479.262 128.07 478.851 128.187 478.534 128.364C478.226 128.532 478.002 128.775 477.862 129.092C477.722 129.4 477.652 129.806 477.652 130.31C477.652 130.814 477.722 131.225 477.862 131.542C478.002 131.85 478.226 132.093 478.534 132.27C478.851 132.447 479.262 132.569 479.766 132.634C480.27 132.69 480.886 132.718 481.614 132.718ZM496.475 125.48C498.752 125.48 500.46 125.867 501.599 126.642C502.747 127.417 503.321 128.639 503.321 130.31C503.321 131.99 502.752 133.217 501.613 133.992C500.474 134.767 498.762 135.154 496.475 135.154C494.179 135.154 492.462 134.767 491.323 133.992C490.194 133.217 489.629 131.99 489.629 130.31C489.629 128.639 490.198 127.417 491.337 126.642C492.476 125.867 494.188 125.48 496.475 125.48ZM496.475 132.718C497.203 132.718 497.819 132.69 498.323 132.634C498.827 132.569 499.233 132.447 499.541 132.27C499.858 132.093 500.087 131.85 500.227 131.542C500.367 131.225 500.437 130.814 500.437 130.31C500.437 129.806 500.367 129.4 500.227 129.092C500.087 128.775 499.858 128.532 499.541 128.364C499.233 128.187 498.827 128.07 498.323 128.014C497.819 127.949 497.203 127.916 496.475 127.916C495.747 127.916 495.131 127.949 494.627 128.014C494.123 128.07 493.712 128.187 493.395 128.364C493.087 128.532 492.863 128.775 492.723 129.092C492.583 129.4 492.513 129.806 492.513 130.31C492.513 130.814 492.583 131.225 492.723 131.542C492.863 131.85 493.087 132.093 493.395 132.27C493.712 132.447 494.123 132.569 494.627 132.634C495.131 132.69 495.747 132.718 496.475 132.718ZM514.934 132.592L513.058 135H504.784V125.634H507.682V132.592H514.934Z" fill="white"/>
<path d="M7.74551 92.12C7.95084 92.484 8.12818 92.806 8.27751 93.086C8.43617 93.3567 8.57151 93.5993 8.68351 93.814C8.80484 94.0287 8.90751 94.2247 8.99151 94.402C9.08484 94.5793 9.17351 94.752 9.25751 94.92C9.33217 94.752 9.41151 94.584 9.49551 94.416C9.58884 94.2387 9.69151 94.0427 9.80351 93.828C9.92484 93.604 10.0602 93.3567 10.2095 93.086C10.3682 92.8153 10.5502 92.498 10.7555 92.134L12.2535 89.474C12.4215 89.1753 12.6315 88.9373 12.8835 88.76C13.1448 88.5733 13.4668 88.48 13.8495 88.48C14.2135 88.48 14.5402 88.5873 14.8295 88.802C15.1282 89.0073 15.3428 89.3293 15.4735 89.768L17.8395 98H14.9555L14.0735 94.738C13.9242 94.206 13.7982 93.7393 13.6955 93.338C13.5928 92.9367 13.5042 92.5447 13.4295 92.162C13.2708 92.4887 13.0935 92.8527 12.8975 93.254C12.7015 93.646 12.4448 94.1453 12.1275 94.752L10.8675 97.104C10.7462 97.3373 10.6202 97.524 10.4895 97.664C10.3682 97.7947 10.2422 97.8973 10.1115 97.972C9.98084 98.0467 9.84084 98.0933 9.69151 98.112C9.54217 98.14 9.37884 98.154 9.20151 98.154C9.02417 98.154 8.86084 98.14 8.71151 98.112C8.56217 98.0933 8.42217 98.0467 8.29151 97.972C8.16084 97.8973 8.03017 97.7947 7.89951 97.664C7.77817 97.524 7.65684 97.3373 7.53551 97.104L6.27551 94.738C6.10751 94.4207 5.95817 94.136 5.82751 93.884C5.69684 93.632 5.57551 93.408 5.46351 93.212C5.36084 93.0067 5.26751 92.82 5.18351 92.652C5.10884 92.484 5.03417 92.3207 4.95951 92.162C4.88484 92.5353 4.79617 92.9273 4.69351 93.338C4.59084 93.7393 4.46951 94.206 4.32951 94.738L3.44751 98H0.605508L3.02751 89.768C3.15817 89.3293 3.37284 89.0073 3.67151 88.802C3.97017 88.5873 4.30151 88.48 4.66551 88.48C5.03884 88.48 5.35151 88.5687 5.60351 88.746C5.86484 88.9233 6.07951 89.166 6.24751 89.474L7.74551 92.12ZM29.7786 95.592L27.9166 98H18.9006V88.634H29.7506L27.8746 91.07H21.8126V92.19H29.2326L27.5666 94.318H21.8126V95.592H29.7786ZM42.4017 88.634L40.5257 91.07H37.1797V98H34.2817V91.07H29.8857L31.7617 88.634H42.4017ZM47.2395 98L48.9895 95.592H51.3415C51.6215 95.592 51.9108 95.592 52.2095 95.592C52.5175 95.592 52.7835 95.6013 53.0075 95.62C52.8768 95.452 52.7228 95.242 52.5455 94.99C52.3775 94.7287 52.2142 94.486 52.0555 94.262L50.3755 91.784L45.9795 98H42.5495L48.5555 89.53C48.7515 89.2593 48.9988 89.0167 49.2975 88.802C49.5962 88.5873 49.9742 88.48 50.4315 88.48C50.8702 88.48 51.2342 88.5827 51.5235 88.788C51.8222 88.984 52.0742 89.2313 52.2795 89.53L58.1315 98H47.2395ZM71.0782 95.592L69.2162 98H64.5122C63.7002 98 62.9489 97.8787 62.2582 97.636C61.5676 97.3933 60.9702 97.062 60.4662 96.642C59.9716 96.2127 59.5796 95.7087 59.2902 95.13C59.0102 94.542 58.8702 93.9073 58.8702 93.226C58.8702 92.5447 59.0102 91.924 59.2902 91.364C59.5796 90.7947 59.9716 90.3093 60.4662 89.908C60.9702 89.4973 61.5676 89.1847 62.2582 88.97C62.9489 88.746 63.7002 88.634 64.5122 88.634H71.0782L69.2162 91.07H64.5122C64.1202 91.07 63.7562 91.126 63.4202 91.238C63.0842 91.35 62.7949 91.5087 62.5522 91.714C62.3096 91.91 62.1182 92.148 61.9782 92.428C61.8382 92.708 61.7682 93.016 61.7682 93.352C61.7682 93.688 61.8336 93.996 61.9642 94.276C62.1042 94.5467 62.2956 94.78 62.5382 94.976C62.7902 95.172 63.0842 95.326 63.4202 95.438C63.7562 95.5407 64.1202 95.592 64.5122 95.592H71.0782ZM78.6361 88.48C80.9135 88.48 82.6215 88.8673 83.7601 89.642C84.9081 90.4167 85.4821 91.6393 85.4821 93.31C85.4821 94.99 84.9128 96.2173 83.7741 96.992C82.6355 97.7667 80.9228 98.154 78.6361 98.154C76.3401 98.154 74.6228 97.7667 73.4841 96.992C72.3548 96.2173 71.7901 94.99 71.7901 93.31C71.7901 91.6393 72.3595 90.4167 73.4981 89.642C74.6368 88.8673 76.3495 88.48 78.6361 88.48ZM78.6361 95.718C79.3641 95.718 79.9801 95.69 80.4841 95.634C80.9881 95.5687 81.3941 95.4473 81.7021 95.27C82.0195 95.0927 82.2481 94.85 82.3881 94.542C82.5281 94.2247 82.5981 93.814 82.5981 93.31C82.5981 92.806 82.5281 92.4 82.3881 92.092C82.2481 91.7747 82.0195 91.532 81.7021 91.364C81.3941 91.1867 80.9881 91.07 80.4841 91.014C79.9801 90.9487 79.3641 90.916 78.6361 90.916C77.9081 90.916 77.2921 90.9487 76.7881 91.014C76.2841 91.07 75.8735 91.1867 75.5561 91.364C75.2481 91.532 75.0241 91.7747 74.8841 92.092C74.7441 92.4 74.6741 92.806 74.6741 93.31C74.6741 93.814 74.7441 94.2247 74.8841 94.542C75.0241 94.85 75.2481 95.0927 75.5561 95.27C75.8735 95.4473 76.2841 95.5687 76.7881 95.634C77.2921 95.69 77.9081 95.718 78.6361 95.718ZM89.8855 98H86.9875V88.634H89.8855V98ZM101.182 98.154C100.995 98.154 100.808 98.1213 100.622 98.056C100.444 98 100.244 97.8647 100.02 97.65L94.2796 92.498V98H91.6476V90.23C91.6476 89.922 91.6896 89.656 91.7736 89.432C91.867 89.208 91.9836 89.026 92.1236 88.886C92.273 88.746 92.441 88.6433 92.6276 88.578C92.8236 88.5127 93.0243 88.48 93.2296 88.48C93.407 88.48 93.5843 88.5127 93.7616 88.578C93.9483 88.634 94.1583 88.7693 94.3916 88.984L100.132 94.136V88.634H102.778V96.39C102.778 96.698 102.731 96.964 102.638 97.188C102.554 97.412 102.437 97.5987 102.288 97.748C102.148 97.888 101.98 97.9907 101.784 98.056C101.588 98.1213 101.387 98.154 101.182 98.154Z" fill="white"/>
<path d="M285.478 37.12C285.683 37.484 285.861 37.806 286.01 38.086C286.169 38.3567 286.304 38.5993 286.416 38.814C286.537 39.0287 286.64 39.2247 286.724 39.402C286.817 39.5793 286.906 39.752 286.99 39.92C287.065 39.752 287.144 39.584 287.228 39.416C287.321 39.2387 287.424 39.0427 287.536 38.828C287.657 38.604 287.793 38.3567 287.942 38.086C288.101 37.8153 288.283 37.498 288.488 37.134L289.986 34.474C290.154 34.1753 290.364 33.9373 290.616 33.76C290.877 33.5733 291.199 33.48 291.582 33.48C291.946 33.48 292.273 33.5873 292.562 33.802C292.861 34.0073 293.075 34.3293 293.206 34.768L295.572 43H292.688L291.806 39.738C291.657 39.206 291.531 38.7393 291.428 38.338C291.325 37.9367 291.237 37.5447 291.162 37.162C291.003 37.4887 290.826 37.8527 290.63 38.254C290.434 38.646 290.177 39.1453 289.86 39.752L288.6 42.104C288.479 42.3373 288.353 42.524 288.222 42.664C288.101 42.7947 287.975 42.8973 287.844 42.972C287.713 43.0467 287.573 43.0933 287.424 43.112C287.275 43.14 287.111 43.154 286.934 43.154C286.757 43.154 286.593 43.14 286.444 43.112C286.295 43.0933 286.155 43.0467 286.024 42.972C285.893 42.8973 285.763 42.7947 285.632 42.664C285.511 42.524 285.389 42.3373 285.268 42.104L284.008 39.738C283.84 39.4207 283.691 39.136 283.56 38.884C283.429 38.632 283.308 38.408 283.196 38.212C283.093 38.0067 283 37.82 282.916 37.652C282.841 37.484 282.767 37.3207 282.692 37.162C282.617 37.5353 282.529 37.9273 282.426 38.338C282.323 38.7393 282.202 39.206 282.062 39.738L281.18 43H278.338L280.76 34.768C280.891 34.3293 281.105 34.0073 281.404 33.802C281.703 33.5873 282.034 33.48 282.398 33.48C282.771 33.48 283.084 33.5687 283.336 33.746C283.597 33.9233 283.812 34.166 283.98 34.474L285.478 37.12ZM308.995 37.148C308.995 37.6707 308.892 38.1467 308.687 38.576C308.482 38.996 308.178 39.3553 307.777 39.654C307.385 39.9527 306.904 40.186 306.335 40.354C305.766 40.522 305.117 40.606 304.389 40.606H299.489V43H296.605V38.212H304.669C305.117 38.212 305.462 38.114 305.705 37.918C305.957 37.722 306.083 37.4607 306.083 37.134C306.083 36.8073 305.957 36.5507 305.705 36.364C305.462 36.168 305.117 36.07 304.669 36.07H296.605L298.523 33.634H304.403C305.131 33.634 305.78 33.7227 306.349 33.9C306.918 34.068 307.399 34.306 307.791 34.614C308.183 34.922 308.482 35.2907 308.687 35.72C308.892 36.1493 308.995 36.6253 308.995 37.148ZM315.887 37.358L314.473 39.164H309.797L311.211 37.358H315.887ZM326.455 43.154C326.268 43.154 326.082 43.1213 325.895 43.056C325.718 43 325.517 42.8647 325.293 42.65L319.553 37.498V43H316.921V35.23C316.921 34.922 316.963 34.656 317.047 34.432C317.14 34.208 317.257 34.026 317.397 33.886C317.546 33.746 317.714 33.6433 317.901 33.578C318.097 33.5127 318.298 33.48 318.503 33.48C318.68 33.48 318.858 33.5127 319.035 33.578C319.222 33.634 319.432 33.7693 319.665 33.984L325.405 39.136V33.634H328.051V41.39C328.051 41.698 328.004 41.964 327.911 42.188C327.827 42.412 327.71 42.5987 327.561 42.748C327.421 42.888 327.253 42.9907 327.057 43.056C326.861 43.1213 326.66 43.154 326.455 43.154ZM340.26 33.634L338.384 36.07H332.672V37.288H339.728L337.964 39.57H332.672V43H329.76V33.634H340.26ZM352.878 33.634L351.002 36.07H347.656V43H344.758V36.07H340.362L342.238 33.634H352.878Z" fill="white"/>
<rect x="225.5" y="43.2071" width="288.914" height="288.914" transform="rotate(45 225.5 43.2071)" stroke="white" stroke-opacity="0.3"/>
<circle cx="89" cy="315" r="3" fill="#D9D9D9" fill-opacity="0.5"/>
<circle cx="414" cy="231" r="3" fill="#D9D9D9" fill-opacity="0.5"/>
<path d="M225 43L225 108" stroke="white" stroke-opacity="0.3"/>
<rect opacity="0.5" x="225.5" y="108" width="197.283" height="197.283" transform="rotate(45 225.5 108)" fill="url(#paint0_linear_224_420)"/>
<path fill-rule="evenodd" clip-rule="evenodd" d="M225.511 386.011L225.511 108.989L87 247.5L225.511 386.011ZM226.5 108L226.5 108L226.5 108L226.5 108Z" fill="#26164D"/>
<rect x="225.5" y="129.914" width="166.291" height="166.291" transform="rotate(45 225.5 129.914)" fill="white" fill-opacity="0.09" stroke="#FF9C00" stroke-width="2"/>
<rect x="225.5" width="60.1041" height="60.1041" transform="rotate(45 225.5 0)" fill="#180D33"/>
<path fill-rule="evenodd" clip-rule="evenodd" d="M267.699 42.8014H183.301L225.5 85L267.699 42.8014ZM183 42.5V42.5L183 42.5L183 42.5Z" fill="#26164D"/>
<rect x="225.5" y="8.27148" width="48.406" height="48.406" transform="rotate(45 225.5 8.27148)" fill="white" fill-opacity="0.09"/>
<rect x="225.5" y="8.97859" width="47.406" height="47.406" transform="rotate(45 225.5 8.97859)" stroke="#FF9C00" stroke-opacity="0.5"/>
<g filter="url(#filter0_d_224_420)">
<path d="M218.66 42.6895C218.66 42.6895 214.376 47.525 212.172 49.7285C211.988 49.9122 211.927 50.2182 212.111 50.4631L213.335 52.1769C213.457 52.3605 213.764 52.483 214.008 52.3605L218.66 50.4631V42.6895Z" stroke="#FF9C00" stroke-miterlimit="10" stroke-linejoin="round"/>
<path d="M223.006 45.811V54.0743" stroke="#FF9C00" stroke-miterlimit="10" stroke-linecap="round" stroke-linejoin="round"/>
<path d="M229.25 33.6917C228.821 32.2227 228.454 30.6925 228.025 29.3459C227.291 26.8975 226.556 25 225.638 25C224.72 25 223.924 26.8363 223.251 29.3459C222.823 30.6925 222.455 32.2227 222.027 33.6917C220.68 38.5273 218.599 42.6895 218.599 42.6895V50.4631H225.638H232.677V42.6895C232.677 42.6895 230.596 38.5273 229.25 33.6917Z" stroke="#FF9C00" stroke-miterlimit="10" stroke-linejoin="round"/>
<path d="M232.677 42.6895C232.677 42.6895 236.962 47.525 239.165 49.7285C239.349 49.9122 239.41 50.2182 239.227 50.4631L238.002 52.1769C237.88 52.3605 237.574 52.483 237.329 52.3605L232.677 50.4631V42.6895Z" stroke="#FF9C00" stroke-miterlimit="10" stroke-linejoin="round"/>
<path d="M228.331 45.811V54.0743" stroke="#FF9C00" stroke-miterlimit="10" stroke-linecap="round" stroke-linejoin="round"/>
</g>
<path d="M227.658 41.2207V41.8328L224.965 43.1182L227.658 43.6078V44.2199L224.046 43.6078V42.9957L226.74 41.6491L224.046 41.1595V40.5474L227.658 41.2207Z" fill="#FF9C00"/>
<path d="M223.985 37.6704L224.475 37.7316V39.2619L225.577 39.4455V38.2213L226.066 38.2825V39.5067L227.658 39.8127V40.4248L224.047 39.8127V37.6704H223.985Z" fill="#FF9C00"/>
<path d="M223.985 34.7935L224.475 34.8547V35.834L227.658 36.3849V36.997L224.475 36.4461V37.4255L223.985 37.3643V34.7935Z" fill="#FF9C00"/>
<rect x="317.5" y="92" width="60.1041" height="60.1041" transform="rotate(45 317.5 92)" fill="#180D33"/>
<path fill-rule="evenodd" clip-rule="evenodd" d="M359.699 134.801H275.301L317.5 177L359.699 134.801ZM275 134.5V134.5L275 134.5L275 134.5Z" fill="#26164D"/>
<rect x="317.5" y="100.271" width="48.406" height="48.406" transform="rotate(45 317.5 100.271)" fill="white" fill-opacity="0.09"/>
<rect x="317.5" y="100.979" width="47.406" height="47.406" transform="rotate(45 317.5 100.979)" stroke="#FF9C00" stroke-opacity="0.5"/>
<g filter="url(#filter1_d_224_420)">
<path d="M320.979 137.971L325.687 133.263C325.843 133.425 326.046 133.644 326.276 133.915C326.825 134.563 327.525 135.506 328.135 136.686C329.329 138.997 330.166 142.195 328.848 145.882C325.173 147.189 321.98 146.348 319.674 145.149C318.497 144.537 317.557 143.833 316.913 143.282C316.641 143.049 316.422 142.844 316.263 142.687L320.979 137.971Z" stroke="#FF9C00" stroke-miterlimit="10"/>
<g filter="url(#filter2_d_224_420)">
<path d="M325.5 137C326.6 138.423 327.772 139.916 327.462 143.642" stroke="#FF9C00" stroke-linecap="round"/>
</g>
<path d="M308.848 123.651L310.737 121.762C311.362 121.137 311.328 120.164 310.737 119.573C310.112 118.948 309.139 118.983 308.549 119.573L306.306 121.816L304.803 123.319L302.56 125.562C301.935 126.187 301.969 127.16 302.56 127.75C303.157 128.348 304.151 128.348 304.748 127.75L306.638 125.861L319.51 138.733C319.705 138.928 320.022 138.928 320.217 138.733L321.719 137.23C321.915 137.035 321.915 136.718 321.719 136.523L308.848 123.651Z" stroke="#FF9C00" stroke-miterlimit="10" stroke-linecap="round" stroke-linejoin="round"/>
</g>
<rect x="128.5" y="92" width="60.1041" height="60.1041" transform="rotate(45 128.5 92)" fill="#180D33"/>
<path fill-rule="evenodd" clip-rule="evenodd" d="M170.699 134.801H86.3014L128.5 177L170.699 134.801ZM86 134.5V134.5L86 134.5L86 134.5Z" fill="#26164D"/>
<rect x="128.5" y="100.271" width="48.406" height="48.406" transform="rotate(45 128.5 100.271)" fill="white" fill-opacity="0.09"/>
<rect x="128.5" y="100.979" width="47.406" height="47.406" transform="rotate(45 128.5 100.979)" stroke="#FF9C00" stroke-opacity="0.5"/>
<g filter="url(#filter3_d_224_420)">
<path d="M132.583 148.045C132.047 148.212 131.53 148.341 130.994 148.452C131.031 148.359 131.05 148.267 131.031 148.156L130.477 143.132L130.458 142.91C130.421 142.615 130.144 142.412 129.867 142.467C128.353 142.744 123.919 143.187 120.631 140.01C120.447 139.825 120.151 139.807 119.929 139.955L119.671 140.14L116.217 142.559C116.198 142.559 116.198 142.578 116.18 142.578C115.515 141.562 114.979 140.454 114.591 139.253C112.393 132.215 116.512 124.623 123.846 122.037L124.141 125.048L124.16 125.27C124.196 125.565 124.455 125.787 124.751 125.731C126.321 125.51 131.05 125.177 134.762 128.299C134.984 128.484 135.317 128.465 135.501 128.225L135.834 127.819L138.346 124.679C138.364 124.642 138.401 124.605 138.42 124.568C140.249 126.138 141.652 128.188 142.41 130.608C144.663 137.849 140.267 145.644 132.583 148.045Z" stroke="#FF9C00" stroke-miterlimit="10"/>
<path d="M130.57 143.113C130.533 143.132 130.496 143.132 130.477 143.15L130.459 142.929C130.422 142.633 130.145 142.43 129.868 142.485C128.353 142.762 123.92 143.206 120.632 140.029C120.447 139.844 120.152 139.825 119.93 139.973L119.671 140.158C118.914 139.253 118.304 138.2 117.935 136.999C116.42 132.178 119.173 126.969 124.142 125.048L124.16 125.27C124.197 125.565 124.456 125.787 124.751 125.731C126.321 125.51 131.05 125.177 134.763 128.299C134.985 128.484 135.317 128.465 135.502 128.225L135.834 127.819C136.573 128.705 137.146 129.74 137.497 130.903C139.085 135.946 135.982 141.414 130.57 143.113Z" stroke="#FF9C00" stroke-miterlimit="10"/>
<path d="M138.42 124.568C138.401 124.605 138.383 124.642 138.346 124.679L135.834 127.819L135.501 128.225C135.317 128.447 134.984 128.484 134.762 128.299C131.068 125.177 126.339 125.51 124.751 125.731C124.455 125.768 124.197 125.565 124.16 125.27L124.141 125.048L123.846 122.037L123.79 121.538C123.753 121.169 123.975 120.818 124.344 120.707C131.419 118.49 136.499 121.982 138.217 123.441C138.568 123.718 138.641 124.198 138.42 124.568Z" stroke="#FF9C00" stroke-miterlimit="10"/>
<path d="M131.031 148.156C131.049 148.267 131.031 148.359 130.994 148.452C130.92 148.618 130.772 148.766 130.569 148.803C122.626 150.373 117.491 145.108 116.087 143.427C115.884 143.169 115.921 142.799 116.161 142.596C116.179 142.596 116.179 142.578 116.198 142.578L119.652 140.158L119.911 139.973C120.132 139.825 120.409 139.844 120.613 140.028C123.901 143.206 128.334 142.762 129.848 142.485C130.144 142.43 130.403 142.633 130.44 142.929L130.458 143.15L131.031 148.156Z" stroke="#FF9C00" stroke-miterlimit="10"/>
<g filter="url(#filter4_d_224_420)">
<path d="M129.091 128.633C129.063 128.451 128.839 128.395 128.727 128.521C128.138 129.165 126.864 130.538 126.248 130.748C125.449 131.014 123.489 131.084 122.676 131.112C122.522 131.112 122.438 131.28 122.508 131.42C122.83 131.938 123.461 132.989 123.531 133.619C123.601 134.277 122.788 136.098 122.424 136.91C122.34 137.078 122.48 137.274 122.676 137.246C123.405 137.162 124.875 136.994 125.533 137.008C126.64 137.022 128.096 138.507 128.727 139.179C128.839 139.305 129.063 139.249 129.091 139.081C129.217 138.437 129.497 137.232 130.029 136.42C130.631 135.496 131.934 134.725 132.774 134.291C133.082 134.137 133.068 133.703 132.774 133.549C131.948 133.129 130.673 132.415 130.141 131.686C129.539 130.916 129.217 129.389 129.091 128.633Z" fill="#FF9C00"/>
</g>
</g>
<rect x="304.5" y="329" width="60.1041" height="60.1041" transform="rotate(45 304.5 329)" fill="#180D33"/>
<path fill-rule="evenodd" clip-rule="evenodd" d="M346.699 371.801H262.301L304.5 414L346.699 371.801ZM262 371.5V371.5L262 371.5L262 371.5Z" fill="#26164D"/>
<rect x="304.5" y="337.271" width="48.406" height="48.406" transform="rotate(45 304.5 337.271)" fill="white" fill-opacity="0.09"/>
<rect x="304.5" y="337.979" width="47.406" height="47.406" transform="rotate(45 304.5 337.979)" stroke="#FF9C00" stroke-opacity="0.5"/>
<g filter="url(#filter5_d_224_420)">
<path d="M293.026 379.658C293.02 379.64 293.015 379.622 293.011 379.604L290.415 367.373C290.243 366.831 290.319 366.265 290.549 365.784C290.557 365.769 290.565 365.753 290.575 365.738L294.137 359.953C294.453 359.403 294.888 358.969 295.419 358.655L295.419 358.655L295.424 358.652C295.942 358.353 296.516 358.196 297.122 358.176V358.176L297.128 358.176L310.715 357.887L310.715 357.887H310.726C311.307 357.887 311.874 358.101 312.295 358.5C312.295 358.5 312.296 358.5 312.296 358.501L317.112 363.027C317.664 363.539 318.017 364.277 318.02 365.067L318.479 375.712C318.5 376.06 318.436 376.448 318.244 376.786C318.238 376.796 318.232 376.806 318.226 376.815C318.22 376.824 318.212 376.838 318.193 376.871L318.19 376.876C318.175 376.902 318.15 376.945 318.123 376.986C318.119 376.992 318.115 376.998 318.11 377.005L314.197 382.32C313.938 382.722 313.512 382.963 313.054 383.012C313.054 383.012 313.053 383.012 313.053 383.012L301.974 384.219L301.972 384.219C301.539 384.264 301.115 384.154 300.762 383.941L293.849 380.685C293.831 380.676 293.814 380.667 293.797 380.656C293.416 380.418 293.161 380.063 293.026 379.658Z" stroke="#FF9C00" stroke-miterlimit="10" stroke-linecap="round" stroke-linejoin="round"/>
<path d="M295.809 377.39C295.804 377.374 295.799 377.358 295.795 377.341L292.707 364.654C292.533 364.114 292.604 363.54 292.847 363.076L292.855 363.062L295.238 358.839C295.282 358.761 295.347 358.696 295.424 358.652C295.942 358.353 296.517 358.196 297.122 358.176V358.176L297.128 358.176L310.715 357.887L310.715 357.887H310.726C311.307 357.887 311.874 358.101 312.295 358.5C312.295 358.5 312.296 358.5 312.296 358.501L317.112 363.027C317.664 363.539 318.015 364.276 318.037 365.044L318.496 375.695C318.517 376.043 318.454 376.431 318.261 376.769C318.253 376.783 318.244 376.797 318.235 376.81L316.501 379.257C316.243 379.64 315.818 379.882 315.359 379.93L315.356 379.93L303.337 381.122C303.337 381.122 303.336 381.122 303.336 381.122C302.905 381.167 302.484 381.057 302.132 380.847L296.639 378.395C296.618 378.385 296.598 378.375 296.578 378.362C296.199 378.125 295.945 377.773 295.809 377.39Z" stroke="#FF9C00" stroke-miterlimit="10" stroke-linecap="round" stroke-linejoin="round"/>
<path d="M309.933 359.539L309.933 359.539H309.943C310.398 359.539 310.845 359.697 311.184 360.011L314.736 363.24C315.193 363.635 315.463 364.207 315.466 364.794L315.806 372.407C315.829 372.774 315.73 373.127 315.506 373.428L313.296 376.522L313.296 376.522L313.293 376.526C313.09 376.806 312.764 377.038 312.354 377.07L303.498 377.954C303.138 378.002 302.803 377.902 302.537 377.754L298.509 376.077C298.483 376.066 298.457 376.053 298.433 376.037C298.154 375.86 297.921 375.579 297.815 375.235C297.812 375.226 297.809 375.216 297.807 375.207L295.501 365.815C295.359 365.389 295.415 364.927 295.63 364.544L295.632 364.542L297.589 361.104C297.589 361.104 297.589 361.103 297.589 361.103C298.055 360.279 298.952 359.764 299.903 359.743L299.904 359.743L309.933 359.539Z" stroke="#FF9C00" stroke-miterlimit="10" stroke-linecap="round" stroke-linejoin="round"/>
</g>
<g filter="url(#filter6_d_224_420)">
<path d="M307.045 367.003C306.974 367.242 306.902 367.46 306.829 367.657C306.776 367.852 306.722 368.005 306.667 368.158C306.634 368.309 306.578 368.441 306.563 368.548C306.528 368.678 306.492 368.787 306.477 368.895C306.407 368.793 306.314 368.67 306.222 368.569C306.131 368.468 306.037 368.325 305.922 368.204C305.807 368.061 305.69 367.898 305.531 367.737C305.391 367.554 305.209 367.373 305.024 367.128L303.595 365.424C303.434 365.242 303.254 365.082 303.054 364.966C302.855 364.851 302.617 364.801 302.362 364.817C302.128 364.832 301.919 364.909 301.758 365.068C301.597 365.227 301.504 365.447 301.479 365.747L301.286 370.262C301.256 370.819 301.734 371.302 302.287 371.268C302.777 371.237 303.157 370.83 303.191 370.337L303.238 369.01C303.259 368.646 303.262 368.347 303.266 368.069C303.27 367.792 303.276 367.535 303.26 367.28C303.422 367.483 303.587 367.729 303.794 367.973C303.98 368.217 304.235 368.543 304.557 368.929L305.781 370.432C305.897 370.574 306.011 370.695 306.123 370.774C306.234 370.852 306.324 370.932 306.433 370.968C306.542 371.004 306.63 371.041 306.738 371.056C306.845 371.071 306.952 371.064 307.08 371.056C307.207 371.048 307.314 371.042 307.397 371.015C307.481 370.989 307.586 370.961 307.646 370.893C307.729 370.845 307.787 370.756 307.846 370.667C307.904 370.578 307.96 370.447 308.015 370.294L308.451 368.687C308.523 368.47 308.575 368.274 308.607 368.101C308.66 367.927 308.694 367.776 308.729 367.646C308.763 367.515 308.798 367.385 308.834 367.276C308.87 367.167 308.885 367.06 308.921 366.951C309.022 367.201 309.144 367.449 309.288 367.718C309.412 367.988 309.58 368.297 309.75 368.628L310.597 370.262C310.743 370.552 311.075 370.745 311.416 370.724C312.033 370.685 312.418 370 312.107 369.464L309.823 365.294C309.656 365.006 309.473 364.804 309.23 364.669C308.986 364.535 308.748 364.486 308.514 364.5C308.259 364.516 308.072 364.592 307.929 364.707C307.788 364.844 307.691 364.999 307.619 365.217L307.045 367.003Z" fill="#FF9C00"/>
</g>
<path d="M144.252 245L146.002 242.592H148.354C148.634 242.592 148.924 242.592 149.222 242.592C149.53 242.592 149.796 242.601 150.02 242.62C149.89 242.452 149.736 242.242 149.558 241.99C149.39 241.729 149.227 241.486 149.068 241.262L147.388 238.784L142.992 245H139.562L145.568 236.53C145.764 236.259 146.012 236.017 146.31 235.802C146.609 235.587 146.987 235.48 147.444 235.48C147.883 235.48 148.247 235.583 148.536 235.788C148.835 235.984 149.087 236.231 149.292 236.53L155.144 245H144.252ZM155.883 243.81C155.883 243.371 156.032 243.035 156.331 242.802C156.639 242.559 157.012 242.438 157.451 242.438C157.899 242.438 158.272 242.559 158.571 242.802C158.879 243.035 159.033 243.371 159.033 243.81C159.033 244.239 158.879 244.571 158.571 244.804C158.272 245.037 157.899 245.154 157.451 245.154C157.012 245.154 156.639 245.037 156.331 244.804C156.032 244.571 155.883 244.239 155.883 243.81ZM172.325 239.12C172.53 239.484 172.707 239.806 172.857 240.086C173.015 240.357 173.151 240.599 173.263 240.814C173.384 241.029 173.487 241.225 173.571 241.402C173.664 241.579 173.753 241.752 173.837 241.92C173.911 241.752 173.991 241.584 174.075 241.416C174.168 241.239 174.271 241.043 174.383 240.828C174.504 240.604 174.639 240.357 174.789 240.086C174.947 239.815 175.129 239.498 175.335 239.134L176.833 236.474C177.001 236.175 177.211 235.937 177.463 235.76C177.724 235.573 178.046 235.48 178.429 235.48C178.793 235.48 179.119 235.587 179.409 235.802C179.707 236.007 179.922 236.329 180.053 236.768L182.419 245H179.535L178.653 241.738C178.503 241.206 178.377 240.739 178.275 240.338C178.172 239.937 178.083 239.545 178.009 239.162C177.85 239.489 177.673 239.853 177.477 240.254C177.281 240.646 177.024 241.145 176.707 241.752L175.447 244.104C175.325 244.337 175.199 244.524 175.069 244.664C174.947 244.795 174.821 244.897 174.691 244.972C174.56 245.047 174.42 245.093 174.271 245.112C174.121 245.14 173.958 245.154 173.781 245.154C173.603 245.154 173.44 245.14 173.291 245.112C173.141 245.093 173.001 245.047 172.871 244.972C172.74 244.897 172.609 244.795 172.479 244.664C172.357 244.524 172.236 244.337 172.115 244.104L170.855 241.738C170.687 241.421 170.537 241.136 170.407 240.884C170.276 240.632 170.155 240.408 170.043 240.212C169.94 240.007 169.847 239.82 169.763 239.652C169.688 239.484 169.613 239.321 169.539 239.162C169.464 239.535 169.375 239.927 169.273 240.338C169.17 240.739 169.049 241.206 168.909 241.738L168.027 245H165.185L167.607 236.768C167.737 236.329 167.952 236.007 168.251 235.802C168.549 235.587 168.881 235.48 169.245 235.48C169.618 235.48 169.931 235.569 170.183 235.746C170.444 235.923 170.659 236.166 170.827 236.474L172.325 239.12ZM194.358 242.592L192.496 245H183.48V235.634H194.33L192.454 238.07H186.392V239.19H193.812L192.146 241.318H186.392V242.592H194.358ZM206.981 235.634L205.105 238.07H201.759V245H198.861V238.07H194.465L196.341 235.634H206.981ZM211.819 245L213.569 242.592H215.921C216.201 242.592 216.49 242.592 216.789 242.592C217.097 242.592 217.363 242.601 217.587 242.62C217.456 242.452 217.302 242.242 217.125 241.99C216.957 241.729 216.793 241.486 216.635 241.262L214.955 238.784L210.559 245H207.129L213.135 236.53C213.331 236.259 213.578 236.017 213.877 235.802C214.175 235.587 214.553 235.48 215.011 235.48C215.449 235.48 215.813 235.583 216.103 235.788C216.401 235.984 216.653 236.231 216.859 236.53L222.711 245H211.819ZM241.465 239.148C241.465 239.671 241.362 240.147 241.157 240.576C240.951 240.996 240.648 241.355 240.247 241.654C239.855 241.953 239.374 242.186 238.805 242.354C238.235 242.522 237.587 242.606 236.859 242.606H231.959V245H229.075V240.212H237.139C237.587 240.212 237.932 240.114 238.175 239.918C238.427 239.722 238.553 239.461 238.553 239.134C238.553 238.807 238.427 238.551 238.175 238.364C237.932 238.168 237.587 238.07 237.139 238.07H229.075L230.993 235.634H236.873C237.601 235.634 238.249 235.723 238.819 235.9C239.388 236.068 239.869 236.306 240.261 236.614C240.653 236.922 240.951 237.291 241.157 237.72C241.362 238.149 241.465 238.625 241.465 239.148ZM253.089 242.592L251.213 245H242.939V235.634H245.837V242.592H253.089ZM258.016 245L259.766 242.592H262.118C262.398 242.592 262.687 242.592 262.986 242.592C263.294 242.592 263.56 242.601 263.784 242.62C263.653 242.452 263.499 242.242 263.322 241.99C263.154 241.729 262.991 241.486 262.832 241.262L261.152 238.784L256.756 245H253.326L259.332 236.53C259.528 236.259 259.775 236.017 260.074 235.802C260.373 235.587 260.751 235.48 261.208 235.48C261.647 235.48 262.011 235.583 262.3 235.788C262.599 235.984 262.851 236.231 263.056 236.53L268.908 245H258.016ZM279.433 245.154C279.246 245.154 279.059 245.121 278.873 245.056C278.695 245 278.495 244.865 278.271 244.65L272.531 239.498V245H269.899V237.23C269.899 236.922 269.941 236.656 270.025 236.432C270.118 236.208 270.235 236.026 270.375 235.886C270.524 235.746 270.692 235.643 270.879 235.578C271.075 235.513 271.275 235.48 271.481 235.48C271.658 235.48 271.835 235.513 272.013 235.578C272.199 235.634 272.409 235.769 272.643 235.984L278.383 241.136V235.634H281.029V243.39C281.029 243.698 280.982 243.964 280.889 244.188C280.805 244.412 280.688 244.599 280.539 244.748C280.399 244.888 280.231 244.991 280.035 245.056C279.839 245.121 279.638 245.154 279.433 245.154ZM293.615 242.592L291.753 245H282.737V235.634H293.587L291.711 238.07H285.649V239.19H293.069L291.403 241.318H285.649V242.592H293.615ZM306.239 235.634L304.363 238.07H301.017V245H298.119V238.07H293.723L295.599 235.634H306.239ZM206.69 256.148C206.69 256.671 206.588 257.147 206.382 257.576C206.177 257.996 205.874 258.355 205.472 258.654C205.08 258.953 204.6 259.186 204.03 259.354C203.461 259.522 202.812 259.606 202.084 259.606H197.184V262H194.3V257.212H202.364C202.812 257.212 203.158 257.114 203.4 256.918C203.652 256.722 203.778 256.461 203.778 256.134C203.778 255.807 203.652 255.551 203.4 255.364C203.158 255.168 202.812 255.07 202.364 255.07H194.3L196.218 252.634H202.098C202.826 252.634 203.475 252.723 204.044 252.9C204.614 253.068 205.094 253.306 205.486 253.614C205.878 253.922 206.177 254.291 206.382 254.72C206.588 255.149 206.69 255.625 206.69 256.148ZM220.33 257.912C220.33 260.74 218.384 262.154 214.492 262.154C213.363 262.154 212.392 262.065 211.58 261.888C210.768 261.711 210.096 261.445 209.564 261.09C209.042 260.735 208.654 260.297 208.402 259.774C208.16 259.242 208.038 258.621 208.038 257.912V252.634H210.922V257.912C210.922 258.257 210.969 258.547 211.062 258.78C211.156 259.013 211.328 259.205 211.58 259.354C211.842 259.494 212.206 259.597 212.672 259.662C213.139 259.718 213.746 259.746 214.492 259.746C215.052 259.746 215.519 259.713 215.892 259.648C216.266 259.583 216.564 259.475 216.788 259.326C217.012 259.177 217.171 258.985 217.264 258.752C217.367 258.519 217.418 258.239 217.418 257.912V252.634H220.33V257.912ZM232.123 259.592L230.247 262H221.973V252.634H224.871V259.592H232.123ZM241.768 256.372C242.916 256.372 243.789 256.587 244.386 257.016C244.983 257.436 245.282 258.075 245.282 258.934C245.282 259.41 245.207 259.839 245.058 260.222C244.909 260.605 244.671 260.927 244.344 261.188C244.017 261.449 243.597 261.65 243.084 261.79C242.58 261.93 241.973 262 241.264 262H232.542L234.404 259.592H241.488C241.833 259.592 242.085 259.541 242.244 259.438C242.403 259.326 242.482 259.149 242.482 258.906C242.482 258.663 242.403 258.491 242.244 258.388C242.085 258.285 241.833 258.234 241.488 258.234H236.392C235.785 258.234 235.263 258.169 234.824 258.038C234.385 257.907 234.021 257.725 233.732 257.492C233.443 257.259 233.228 256.979 233.088 256.652C232.948 256.316 232.878 255.947 232.878 255.546C232.878 255.107 232.953 254.711 233.102 254.356C233.261 253.992 233.499 253.684 233.816 253.432C234.143 253.18 234.558 252.984 235.062 252.844C235.575 252.704 236.187 252.634 236.896 252.634H245.03L243.168 255.07H236.672C236.336 255.07 236.084 255.117 235.916 255.21C235.757 255.303 235.678 255.471 235.678 255.714C235.678 255.957 235.757 256.129 235.916 256.232C236.084 256.325 236.336 256.372 236.672 256.372H241.768ZM257.447 259.592L255.585 262H246.569V252.634H257.419L255.543 255.07H249.481V256.19H256.901L255.235 258.318H249.481V259.592H257.447Z" fill="white"/>
<path d="M4.25 500.274H19.25" stroke="#FF9C00" stroke-width="1.5" stroke-linecap="round" stroke-linejoin="round"/>
<path d="M10.2998 506.299L4.2498 500.275L10.2998 494.25" stroke="#FF9C00" stroke-width="1.5" stroke-linecap="round" stroke-linejoin="round"/>
<path d="M495.75 499.726H480.75" stroke="#FF9C00" stroke-width="1.5" stroke-linecap="round" stroke-linejoin="round"/>
<path d="M489.7 493.701L495.75 499.725L489.7 505.75" stroke="#FF9C00" stroke-width="1.5" stroke-linecap="round" stroke-linejoin="round"/>
<circle cx="222.5" cy="499.5" r="5.5" fill="#D9D9D9" fill-opacity="0.5"/>
<circle cx="222.5" cy="499.5" r="2.5" fill="white"/>
<circle cx="280.5" cy="499.5" r="2" stroke="white"/>
<defs>
<filter id="filter0_d_224_420" x="207.827" y="20.8274" width="35.684" height="37.4194" filterUnits="userSpaceOnUse" color-interpolation-filters="sRGB">
<feFlood flood-opacity="0" result="BackgroundImageFix"/>
<feColorMatrix in="SourceAlpha" type="matrix" values="0 0 0 0 0 0 0 0 0 0 0 0 0 0 0 0 0 0 127 0" result="hardAlpha"/>
<feOffset/>
<feGaussianBlur stdDeviation="1.83628"/>
<feComposite in2="hardAlpha" operator="out"/>
<feColorMatrix type="matrix" values="0 0 0 0 1 0 0 0 0 0.611765 0 0 0 0 0 0 0 0 1 0"/>
<feBlend mode="normal" in2="BackgroundImageFix" result="effect1_dropShadow_224_420"/>
<feBlend mode="normal" in="SourceGraphic" in2="effect1_dropShadow_224_420" result="shape"/>
</filter>
<filter id="filter1_d_224_420" x="295.604" y="112.617" width="40.4136" height="40.4248" filterUnits="userSpaceOnUse" color-interpolation-filters="sRGB">
<feFlood flood-opacity="0" result="BackgroundImageFix"/>
<feColorMatrix in="SourceAlpha" type="matrix" values="0 0 0 0 0 0 0 0 0 0 0 0 0 0 0 0 0 0 127 0" result="hardAlpha"/>
<feOffset/>
<feGaussianBlur stdDeviation="3"/>
<feComposite in2="hardAlpha" operator="out"/>
<feColorMatrix type="matrix" values="0 0 0 0 1 0 0 0 0 0.611765 0 0 0 0 0 0 0 0 1 0"/>
<feBlend mode="normal" in2="BackgroundImageFix" result="effect1_dropShadow_224_420"/>
<feBlend mode="normal" in="SourceGraphic" in2="effect1_dropShadow_224_420" result="shape"/>
</filter>
<filter id="filter2_d_224_420" x="319" y="130.5" width="15.0127" height="19.6426" filterUnits="userSpaceOnUse" color-interpolation-filters="sRGB">
<feFlood flood-opacity="0" result="BackgroundImageFix"/>
<feColorMatrix in="SourceAlpha" type="matrix" values="0 0 0 0 0 0 0 0 0 0 0 0 0 0 0 0 0 0 127 0" result="hardAlpha"/>
<feOffset/>
<feGaussianBlur stdDeviation="3"/>
<feComposite in2="hardAlpha" operator="out"/>
<feColorMatrix type="matrix" values="0 0 0 0 1 0 0 0 0 0.611765 0 0 0 0 0 0 0 0 1 0"/>
<feBlend mode="normal" in2="BackgroundImageFix" result="effect1_dropShadow_224_420"/>
<feBlend mode="normal" in="SourceGraphic" in2="effect1_dropShadow_224_420" result="shape"/>
</filter>
<filter id="filter3_d_224_420" x="110.238" y="116.228" width="36.5235" height="36.6251" filterUnits="userSpaceOnUse" color-interpolation-filters="sRGB">
<feFlood flood-opacity="0" result="BackgroundImageFix"/>
<feColorMatrix in="SourceAlpha" type="matrix" values="0 0 0 0 0 0 0 0 0 0 0 0 0 0 0 0 0 0 127 0" result="hardAlpha"/>
<feOffset/>
<feGaussianBlur stdDeviation="1.63039"/>
<feComposite in2="hardAlpha" operator="out"/>
<feColorMatrix type="matrix" values="0 0 0 0 1 0 0 0 0 0.611765 0 0 0 0 0 0 0 0 1 0"/>
<feBlend mode="normal" in2="BackgroundImageFix" result="effect1_dropShadow_224_420"/>
<feBlend mode="normal" in="SourceGraphic" in2="effect1_dropShadow_224_420" result="shape"/>
</filter>
<filter id="filter4_d_224_420" x="119.927" y="125.981" width="15.5452" height="15.7391" filterUnits="userSpaceOnUse" color-interpolation-filters="sRGB">
<feFlood flood-opacity="0" result="BackgroundImageFix"/>
<feColorMatrix in="SourceAlpha" type="matrix" values="0 0 0 0 0 0 0 0 0 0 0 0 0 0 0 0 0 0 127 0" result="hardAlpha"/>
<feOffset/>
<feGaussianBlur stdDeviation="1.23616"/>
<feComposite in2="hardAlpha" operator="out"/>
<feColorMatrix type="matrix" values="0 0 0 0 1 0 0 0 0 0.611765 0 0 0 0 0 0 0 0 1 0"/>
<feBlend mode="normal" in2="BackgroundImageFix" result="effect1_dropShadow_224_420"/>
<feBlend mode="normal" in="SourceGraphic" in2="effect1_dropShadow_224_420" result="shape"/>
</filter>
<filter id="filter5_d_224_420" x="283.821" y="351.387" width="41.1787" height="39.3423" filterUnits="userSpaceOnUse" color-interpolation-filters="sRGB">
<feFlood flood-opacity="0" result="BackgroundImageFix"/>
<feColorMatrix in="SourceAlpha" type="matrix" values="0 0 0 0 0 0 0 0 0 0 0 0 0 0 0 0 0 0 127 0" result="hardAlpha"/>
<feOffset/>
<feGaussianBlur stdDeviation="3"/>
<feComposite in2="hardAlpha" operator="out"/>
<feColorMatrix type="matrix" values="0 0 0 0 1 0 0 0 0 0.611765 0 0 0 0 0 0 0 0 1 0"/>
<feBlend mode="normal" in2="BackgroundImageFix" result="effect1_dropShadow_224_420"/>
<feBlend mode="normal" in="SourceGraphic" in2="effect1_dropShadow_224_420" result="shape"/>
</filter>
<filter id="filter6_d_224_420" x="295.285" y="358.498" width="22.9326" height="18.772" filterUnits="userSpaceOnUse" color-interpolation-filters="sRGB">
<feFlood flood-opacity="0" result="BackgroundImageFix"/>
<feColorMatrix in="SourceAlpha" type="matrix" values="0 0 0 0 0 0 0 0 0 0 0 0 0 0 0 0 0 0 127 0" result="hardAlpha"/>
<feOffset/>
<feGaussianBlur stdDeviation="3"/>
<feComposite in2="hardAlpha" operator="out"/>
<feColorMatrix type="matrix" values="0 0 0 0 1 0 0 0 0 0.611765 0 0 0 0 0 0 0 0 1 0"/>
<feBlend mode="normal" in2="BackgroundImageFix" result="effect1_dropShadow_224_420"/>
<feBlend mode="normal" in="SourceGraphic" in2="effect1_dropShadow_224_420" result="shape"/>
</filter>
<linearGradient id="paint0_linear_224_420" x1="228.749" y1="132.75" x2="488.755" y2="211.865" gradientUnits="userSpaceOnUse">
<stop stop-color="#3A2081"/>
<stop offset="0.588542" stop-color="#543E92"/>
<stop offset="1" stop-color="#A58FDC"/>
</linearGradient>
</defs>
</svg>
