<svg width="248" height="77" viewBox="0 0 248 77" fill="none" xmlns="http://www.w3.org/2000/svg">
<path d="M247.5 76V48L193.5 22H112" stroke="#FF9C00" stroke-linecap="round"/>
<path d="M127.5 22H136.5C136.5 23.1046 135.605 24 134.5 24H127.5V22Z" fill="#FF9C00"/>
<path d="M7.35 7.12C7.55533 7.484 7.73267 7.806 7.882 8.086C8.04067 8.35667 8.176 8.59933 8.288 8.814C8.40933 9.02867 8.512 9.22467 8.596 9.402C8.68933 9.57933 8.778 9.752 8.862 9.92C8.93667 9.752 9.016 9.584 9.1 9.416C9.19333 9.23867 9.296 9.04267 9.408 8.828C9.52933 8.604 9.66467 8.35667 9.814 8.086C9.97267 7.81533 10.1547 7.498 10.36 7.134L11.858 4.474C12.026 4.17533 12.236 3.93733 12.488 3.76C12.7493 3.57333 13.0713 3.48 13.454 3.48C13.818 3.48 14.1447 3.58733 14.434 3.802C14.7327 4.00733 14.9473 4.32933 15.078 4.768L17.444 13H14.56L13.678 9.738C13.5287 9.206 13.4027 8.73933 13.3 8.338C13.1973 7.93667 13.1087 7.54467 13.034 7.162C12.8753 7.48867 12.698 7.85267 12.502 8.254C12.306 8.646 12.0493 9.14533 11.732 9.752L10.472 12.104C10.3507 12.3373 10.2247 12.524 10.094 12.664C9.97267 12.7947 9.84667 12.8973 9.716 12.972C9.58533 13.0467 9.44533 13.0933 9.296 13.112C9.14667 13.14 8.98333 13.154 8.806 13.154C8.62867 13.154 8.46533 13.14 8.316 13.112C8.16667 13.0933 8.02667 13.0467 7.896 12.972C7.76533 12.8973 7.63467 12.7947 7.504 12.664C7.38267 12.524 7.26133 12.3373 7.14 12.104L5.88 9.738C5.712 9.42067 5.56267 9.136 5.432 8.884C5.30133 8.632 5.18 8.408 5.068 8.212C4.96533 8.00667 4.872 7.82 4.788 7.652C4.71333 7.484 4.63867 7.32067 4.564 7.162C4.48933 7.53533 4.40067 7.92733 4.298 8.338C4.19533 8.73933 4.074 9.206 3.934 9.738L3.052 13H0.21L2.632 4.768C2.76267 4.32933 2.97733 4.00733 3.276 3.802C3.57467 3.58733 3.906 3.48 4.27 3.48C4.64333 3.48 4.956 3.56867 5.208 3.746C5.46933 3.92333 5.684 4.166 5.852 4.474L7.35 7.12ZM29.383 10.592L27.521 13H18.505V3.634H29.355L27.479 6.07H21.417V7.19H28.837L27.171 9.318H21.417V10.592H29.383ZM42.0062 3.634L40.1302 6.07H36.7842V13H33.8862V6.07H29.4902L31.3662 3.634H42.0062ZM43.8909 13L45.6409 10.592H47.9929C48.2729 10.592 48.5622 10.592 48.8609 10.592C49.1689 10.592 49.4349 10.6013 49.6589 10.62C49.5282 10.452 49.3742 10.242 49.1969 9.99C49.0289 9.72867 48.8655 9.486 48.7069 9.262L47.0269 6.784L42.6309 13H39.2009L45.2069 4.53C45.4029 4.25933 45.6502 4.01667 45.9489 3.802C46.2475 3.58733 46.6255 3.48 47.0829 3.48C47.5215 3.48 47.8855 3.58267 48.1749 3.788C48.4735 3.984 48.7255 4.23133 48.9309 4.53L54.7829 13H43.8909ZM73.537 7.148C73.537 7.67067 73.4343 8.14667 73.229 8.576C73.0236 8.996 72.7203 9.35533 72.319 9.654C71.927 9.95267 71.4463 10.186 70.877 10.354C70.3076 10.522 69.659 10.606 68.931 10.606H64.031V13H61.147V8.212H69.211C69.659 8.212 70.0043 8.114 70.247 7.918C70.499 7.722 70.625 7.46067 70.625 7.134C70.625 6.80733 70.499 6.55067 70.247 6.364C70.0043 6.168 69.659 6.07 69.211 6.07H61.147L63.065 3.634H68.945C69.673 3.634 70.3216 3.72267 70.891 3.9C71.4603 4.068 71.941 4.306 72.333 4.614C72.725 4.922 73.0236 5.29067 73.229 5.72C73.4343 6.14933 73.537 6.62533 73.537 7.148ZM85.1609 10.592L83.2849 13H75.0109V3.634H77.9089V10.592H85.1609ZM89.6233 13L91.3733 10.592H93.7253C94.0053 10.592 94.2946 10.592 94.5933 10.592C94.9013 10.592 95.1673 10.6013 95.3913 10.62C95.2606 10.452 95.1066 10.242 94.9293 9.99C94.7613 9.72867 94.598 9.486 94.4393 9.262L92.7593 6.784L88.3633 13H84.9333L90.9393 4.53C91.1353 4.25933 91.3826 4.01667 91.6813 3.802C91.98 3.58733 92.358 3.48 92.8153 3.48C93.254 3.48 93.618 3.58267 93.9073 3.788C94.206 3.984 94.458 4.23133 94.6633 4.53L100.515 13H89.6233ZM111.04 13.154C110.853 13.154 110.667 13.1213 110.48 13.056C110.303 13 110.102 12.8647 109.878 12.65L104.138 7.498V13H101.506V5.23C101.506 4.922 101.548 4.656 101.632 4.432C101.725 4.208 101.842 4.026 101.982 3.886C102.131 3.746 102.299 3.64333 102.486 3.578C102.682 3.51267 102.883 3.48 103.088 3.48C103.265 3.48 103.443 3.51267 103.62 3.578C103.807 3.634 104.017 3.76933 104.25 3.984L109.99 9.136V3.634H112.636V11.39C112.636 11.698 112.589 11.964 112.496 12.188C112.412 12.412 112.295 12.5987 112.146 12.748C112.006 12.888 111.838 12.9907 111.642 13.056C111.446 13.1213 111.245 13.154 111.04 13.154ZM125.223 10.592L123.361 13H114.345V3.634H125.195L123.319 6.07H117.257V7.19H124.677L123.011 9.318H117.257V10.592H125.223ZM137.846 3.634L135.97 6.07H132.624V13H129.726V6.07H125.33L127.206 3.634H137.846ZM155.995 8.226C155.995 8.90733 155.851 9.542 155.561 10.13C155.281 10.7087 154.889 11.2127 154.385 11.642C153.891 12.062 153.298 12.3933 152.607 12.636C151.917 12.8787 151.165 13 150.353 13H144.081V7.162H146.993V10.592H150.353C150.755 10.592 151.123 10.5407 151.459 10.438C151.805 10.326 152.099 10.172 152.341 9.976C152.584 9.78 152.775 9.54667 152.915 9.276C153.055 8.996 153.125 8.688 153.125 8.352C153.125 8.02533 153.055 7.722 152.915 7.442C152.775 7.162 152.579 6.924 152.327 6.728C152.075 6.52267 151.781 6.364 151.445 6.252C151.109 6.13067 150.745 6.07 150.353 6.07H144.081L145.929 3.634H150.353C151.175 3.634 151.931 3.746 152.621 3.97C153.312 4.194 153.905 4.51133 154.399 4.922C154.903 5.32333 155.295 5.80867 155.575 6.378C155.855 6.938 155.995 7.554 155.995 8.226ZM160.129 13L161.879 10.592H164.231C164.511 10.592 164.8 10.592 165.099 10.592C165.407 10.592 165.673 10.6013 165.897 10.62C165.766 10.452 165.612 10.242 165.435 9.99C165.267 9.72867 165.104 9.486 164.945 9.262L163.265 6.784L158.869 13H155.439L161.445 4.53C161.641 4.25933 161.888 4.01667 162.187 3.802C162.486 3.58733 162.864 3.48 163.321 3.48C163.76 3.48 164.124 3.58267 164.413 3.788C164.712 3.984 164.964 4.23133 165.169 4.53L171.021 13H160.129ZM180.694 3.634L178.818 6.07H175.472V13H172.574V6.07H168.178L170.054 3.634H180.694ZM182.578 13L184.328 10.592H186.68C186.96 10.592 187.25 10.592 187.548 10.592C187.856 10.592 188.122 10.6013 188.346 10.62C188.216 10.452 188.062 10.242 187.884 9.99C187.716 9.72867 187.553 9.486 187.394 9.262L185.714 6.784L181.318 13H177.888L183.894 4.53C184.09 4.25933 184.338 4.01667 184.636 3.802C184.935 3.58733 185.313 3.48 185.77 3.48C186.209 3.48 186.573 3.58267 186.862 3.788C187.161 3.984 187.413 4.23133 187.618 4.53L193.47 13H182.578Z" fill="white"/>
</svg>
