<svg width="43" height="58" viewBox="0 0 43 58" fill="none" xmlns="http://www.w3.org/2000/svg">
<path fill-rule="evenodd" clip-rule="evenodd" d="M0.673569 1.90446e-05L3.53625 1.8922e-05L3.93618 0.367325L36.0571 0.367323L36.4571 1.36966e-05L37.5306 1.36506e-05L42.4561 4.52371L42.4561 13.7258L41.7825 14.3637L41.7825 31.8399L42.4561 32.4779L42.4561 57.8608L41.3194 57.8608L40.8984 57.4935L9.57735 57.4935L9.15636 57.8608L5.62011 57.8608L0.673571 53.3371L0.673571 35.5517L-1.04224e-06 34.933L-1.52908e-06 24.2231L0.67357 23.6044L0.67357 13.8804L-2.02735e-06 13.2618L-2.33757e-06 6.43759L0.673569 5.81896L0.673569 1.90446e-05ZM6.39636 55.7568L2 51.7873L2 2.10404L36.6239 2.10404L41 6.05528L41 55.7568L6.39636 55.7568Z" fill="#FF9C00"/>
<path d="M22 21C22 20.4477 21.5523 20 21 20C20.4477 20 20 20.4477 20 21L22 21ZM20.2929 37.7198C20.6834 38.1103 21.3166 38.1103 21.7071 37.7198L28.0711 31.3558C28.4616 30.9653 28.4616 30.3321 28.0711 29.9416C27.6805 29.5511 27.0474 29.5511 26.6569 29.9416L21 35.5984L15.3431 29.9416C14.9526 29.5511 14.3195 29.5511 13.9289 29.9416C13.5384 30.3321 13.5384 30.9653 13.9289 31.3558L20.2929 37.7198ZM20 21L20 37.0127L22 37.0127L22 21L20 21Z" fill="white"/>
</svg>
