<svg width="18" height="170" viewBox="0 0 18 170" fill="none" xmlns="http://www.w3.org/2000/svg">
<path d="M6.79749 19V10.0846H4.5V6.87469H6.79749V4.13297C6.79749 1.97851 8.15463 0 11.2818 0C12.5479 0 13.4841 0.124545 13.4841 0.124545L13.4104 3.1221C13.4104 3.1221 12.4555 3.11256 11.4136 3.11256C10.2859 3.11256 10.1052 3.6458 10.1052 4.53083V6.87469H13.5L13.3523 10.0846H10.1052V19H6.79749Z" fill="white"/>
<path d="M8.99771 84.6655C7.43694 84.6655 6.16323 85.9392 6.16323 87.5C6.16323 89.0608 7.43694 90.3345 8.99771 90.3345C10.5585 90.3345 11.8322 89.0608 11.8322 87.5C11.8322 85.9392 10.5585 84.6655 8.99771 84.6655ZM17.4991 87.5C17.4991 86.3262 17.5097 85.163 17.4438 83.9914C17.3778 82.6305 17.0674 81.4226 16.0722 80.4275C15.075 79.4302 13.8693 79.1218 12.5084 79.0559C11.3346 78.99 10.1715 79.0006 8.99984 79.0006C7.82607 79.0006 6.66293 78.99 5.49129 79.0559C4.13039 79.1218 2.9226 79.4323 1.92745 80.4275C0.930165 81.4248 0.621837 82.6305 0.555919 83.9914C0.49 85.1652 0.500632 86.3283 0.500632 87.5C0.500632 88.6717 0.49 89.837 0.555919 91.0086C0.621837 92.3695 0.932291 93.5774 1.92745 94.5725C2.92473 95.5698 4.13039 95.8782 5.49129 95.9441C6.66506 96.01 7.8282 95.9994 8.99984 95.9994C10.1736 95.9994 11.3368 96.01 12.5084 95.9441C13.8693 95.8782 15.0771 95.5677 16.0722 94.5725C17.0695 93.5752 17.3778 92.3695 17.4438 91.0086C17.5118 89.837 17.4991 88.6738 17.4991 87.5ZM8.99771 91.8613C6.58425 91.8613 4.63648 89.9135 4.63648 87.5C4.63648 85.0865 6.58425 83.1387 8.99771 83.1387C11.4112 83.1387 13.359 85.0865 13.359 87.5C13.359 89.9135 11.4112 91.8613 8.99771 91.8613ZM13.5376 83.9786C12.9741 83.9786 12.519 83.5236 12.519 82.9601C12.519 82.3966 12.9741 81.9415 13.5376 81.9415C14.1011 81.9415 14.5561 82.3966 14.5561 82.9601C14.5563 83.0939 14.5301 83.2264 14.4789 83.35C14.4278 83.4737 14.3528 83.586 14.2582 83.6807C14.1636 83.7753 14.0512 83.8503 13.9276 83.9014C13.8039 83.9526 13.6714 83.9788 13.5376 83.9786Z" fill="#FF9C00"/>
<path d="M18 157.663C17.3381 157.936 16.6177 158.133 15.8757 158.21C16.6461 157.772 17.223 157.079 17.4981 156.263C16.7753 156.675 15.9834 156.963 15.1576 157.116C14.8124 156.763 14.395 156.482 13.9312 156.29C13.4675 156.098 12.9675 155.999 12.4622 156C10.418 156 8.77395 157.586 8.77395 159.533C8.77395 159.807 8.80856 160.08 8.8648 160.343C5.80387 160.19 3.07391 158.79 1.25898 156.646C0.928285 157.187 0.754987 157.803 0.75712 158.429C0.75712 159.655 1.40824 160.736 2.40115 161.372C1.81602 161.35 1.24458 161.196 0.733325 160.923V160.966C0.733325 162.683 2.00096 164.106 3.69042 164.433C3.37321 164.512 3.04688 164.552 2.71914 164.553C2.47903 164.553 2.25189 164.53 2.02259 164.499C2.48984 165.899 3.8505 166.916 5.47074 166.949C4.2031 167.9 2.61531 168.459 0.891239 168.459C0.581901 168.459 0.296359 168.449 0 168.416C1.63538 169.42 3.57577 170 5.66542 170C12.4492 170 16.1613 164.62 16.1613 159.949C16.1613 159.796 16.1613 159.643 16.1505 159.49C16.8686 158.986 17.4981 158.363 18 157.663Z" fill="white"/>
</svg>
